<svg width="39" height="38" viewBox="0 0 39 38" fill="none" xmlns="http://www.w3.org/2000/svg">
<rect width="6.25532" height="7.75472" rx="3.12766" transform="matrix(0.999729 -0.0232619 0.0185053 0.999829 21.3452 19.2035)" fill="#FFC23E"/>
<path d="M35.7228 7.89723C36.7705 7.37488 37.9635 8.09045 38.1506 9.44509C38.8171 14.2704 38.455 19.3166 37.0908 23.8436C35.4854 29.1709 32.6106 33.3877 29.0395 35.6531C25.4684 37.9184 21.4635 38.0659 17.8237 36.066C14.5975 34.2934 11.8681 30.9491 10.0534 26.5889C9.64509 25.6077 9.95598 24.4309 10.7184 23.8366L11.4873 23.2374C12.4705 22.4711 13.7793 22.9815 14.3879 24.1914C15.6491 26.6988 17.3678 28.6255 19.3511 29.7152C21.9337 31.1342 24.7754 31.0296 27.3093 29.4222C29.8433 27.8147 31.8832 24.8226 33.0222 21.0426C33.9761 17.8774 34.2395 14.3544 33.7945 10.9762C33.6462 9.85038 34.1048 8.70395 34.9744 8.27038L35.7228 7.89723Z" fill="#FFC23E"/>
<rect width="6.25533" height="7.75473" rx="3.12766" transform="matrix(-0.999729 0.0232618 -0.0185053 -0.999829 18.1195 18.76)" fill="#1E72D1"/>
<path d="M3.74045 30.1028C2.6928 30.6251 1.49977 29.9095 1.31266 28.5549C0.646158 23.7296 1.00833 18.6834 2.37251 14.1564C3.97784 8.82914 6.85273 4.61233 10.4238 2.34694C13.9949 0.081562 17.9998 -0.0658913 21.6396 1.93399C24.8658 3.70663 27.5951 7.05087 29.4098 11.4111C29.8182 12.3923 29.5073 13.5691 28.7448 14.1634L27.976 14.7626C26.9928 15.5289 25.684 15.0185 25.0754 13.8086C23.8142 11.3012 22.0955 9.37452 20.1122 8.28481C17.5295 6.86577 14.6879 6.9704 12.1539 8.57783C9.62003 10.1853 7.58011 13.1773 6.44104 16.9574C5.48721 20.1226 5.22374 23.6456 5.66874 27.0238C5.81704 28.1496 5.35845 29.296 4.48886 29.7296L3.74045 30.1028Z" fill="#1E72D1"/>
</svg>
