<svg width="120" height="36" viewBox="0 0 120 36" fill="none" xmlns="http://www.w3.org/2000/svg">
<path fill-rule="evenodd" clip-rule="evenodd" d="M10.9734 12.0771C10.9733 12.0139 10.9732 11.9503 10.9732 11.8863V11.1082C8.30901 11.1082 5.4945 11.664 5.4945 14.7259C5.4945 16.2771 6.31864 17.3281 7.73367 17.3281C8.77032 17.3281 9.69812 16.7066 10.2838 15.696C10.9763 14.51 10.9749 13.3929 10.9734 12.0771ZM13.8188 20.7285C14.0935 20.87 14.446 20.8548 14.6896 20.6426L14.7 20.6527C15.436 20.0161 16.7733 18.8792 17.5248 18.2678C17.8255 18.0253 17.7736 17.6362 17.5352 17.3129C17.463 17.2154 17.3903 17.1198 17.318 17.0249C16.7162 16.2343 16.1461 15.4853 16.1461 13.9831V8.38467C16.1461 8.19342 16.1472 8.00343 16.1483 7.81487C16.1609 5.66699 16.1724 3.7055 14.5237 2.20517C13.1087 0.881357 10.7659 0.416504 8.97245 0.416504C5.46857 0.416504 1.5552 1.6898 0.731065 5.91388C0.648133 6.36357 0.979862 6.60106 1.28049 6.66674L4.85694 7.04064C5.18867 7.02548 5.43228 6.70716 5.49448 6.38378C5.80029 4.9286 7.05465 4.22627 8.45931 4.22627C9.21607 4.22627 10.0765 4.49911 10.5274 5.16103C10.9879 5.82302 10.9809 6.70474 10.9746 7.49581C10.9739 7.58628 10.9732 7.67556 10.9732 7.76318V8.22803C10.6282 8.2664 10.266 8.30253 9.8927 8.33976C7.95564 8.53296 5.72066 8.75587 4.04317 9.47606C1.73662 10.4462 0.114258 12.4319 0.114258 15.3473C0.114258 19.0813 2.52965 20.9458 5.62925 20.9458C8.25198 20.9458 9.68256 20.3445 11.704 18.3335C11.8107 18.4831 11.9059 18.6205 11.9955 18.7497C12.472 19.4372 12.7892 19.8949 13.8188 20.7285ZM59.2864 11.8863L59.2866 12.0771C59.2881 13.3929 59.2895 14.51 58.597 15.696C58.0113 16.7066 57.0784 17.3281 56.0469 17.3281C54.6319 17.3281 53.8025 16.2771 53.8025 14.7259C53.8025 11.664 56.617 11.1082 59.2864 11.1082V11.8863ZM63.0028 20.6426C62.7592 20.8548 62.4067 20.87 62.132 20.7285C61.091 19.8857 60.7745 19.4271 60.2911 18.7268L60.2909 18.7264C60.2064 18.604 60.1168 18.4741 60.0173 18.3335C57.9958 20.3445 56.56 20.9458 53.9425 20.9458C50.8377 20.9458 48.4275 19.0813 48.4275 15.3473C48.4275 12.4319 50.0447 10.4462 52.3564 9.47606C54.0339 8.75587 56.2689 8.53296 58.2059 8.33976L58.206 8.33975C58.5793 8.30252 58.9414 8.2664 59.2864 8.22803V7.76318C59.2864 7.67625 59.2871 7.58768 59.2878 7.49795C59.2941 6.70633 59.301 5.82362 58.8355 5.16103C58.3897 4.49911 57.5293 4.22627 56.7674 4.22627C55.3627 4.22627 54.1135 4.9286 53.8077 6.38378C53.7455 6.70716 53.5019 7.02548 53.165 7.04064L49.5937 6.66674C49.2931 6.60106 48.9562 6.36357 49.0443 5.91388C49.8633 1.6898 53.7818 0.416504 57.2857 0.416504C59.0791 0.416504 61.4219 0.881357 62.837 2.20517C64.4856 3.70549 64.4741 5.66699 64.4615 7.81487C64.4604 8.00343 64.4593 8.19342 64.4593 8.38467V13.9831C64.4593 15.4853 65.0295 16.2343 65.6312 17.0249C65.7035 17.1198 65.7762 17.2154 65.8484 17.3129C66.0817 17.6362 66.1335 18.0253 65.8329 18.2678C65.0813 18.8792 63.744 20.0161 63.008 20.6527L63.0028 20.6426ZM21.0702 20.693H24.7555C25.1494 20.693 25.4656 20.3949 25.4656 20.0261V10.2541L25.4654 10.0215C25.4617 7.91385 25.457 5.17104 28.0106 5.17104C30.361 5.17104 30.3209 7.61137 30.2882 9.59839C30.2845 9.82423 30.2809 10.0442 30.2809 10.2541L30.2861 20.0261C30.2861 20.3798 30.5763 20.6678 30.9495 20.693H34.6296C35.0236 20.693 35.3397 20.3949 35.3397 20.0261V10.2541C35.3397 10.1725 35.3395 10.0878 35.3393 10.0005V10.0005C35.3366 8.96911 35.333 7.57939 35.6818 6.72223C36.0602 5.79253 36.9932 5.21146 37.8847 5.21146C38.9525 5.21146 39.7766 5.5601 40.0513 6.79802C40.1932 7.39181 40.1738 8.76474 40.1609 9.6836L40.1609 9.68413C40.1577 9.90659 40.155 10.1024 40.155 10.2541V20.0261C40.155 20.3798 40.4504 20.6678 40.8184 20.693H44.4986C44.8925 20.693 45.2087 20.3949 45.2087 20.0261L45.2139 8.38963C45.2139 8.10589 45.2188 7.81641 45.2237 7.5241L45.2237 7.52368C45.2534 5.78089 45.2847 3.9376 44.286 2.6093C43.2546 1.21475 41.5648 0.593262 40.0202 0.593262C37.8484 0.593262 35.8218 1.6796 34.9303 4.00891C33.8936 1.6796 32.4527 0.593262 30.1461 0.593262C27.8758 0.593262 26.1913 1.6796 25.2946 4.00891H25.2272V1.59876C25.2013 1.26528 24.9162 0.997471 24.5585 0.982323H21.122C20.7281 0.982323 20.4119 1.27538 20.4119 1.64423V20.0817C20.4379 20.4101 20.7178 20.6678 21.0702 20.693ZM68.9428 4.23637V1.59885C68.9428 1.19968 69.2538 0.931885 69.627 0.931885H81.7403C82.129 0.931885 82.44 1.20473 82.44 1.59885V3.85742C82.4349 4.23637 82.1083 4.73154 81.5278 5.51471L75.2509 14.2509C77.5833 14.1953 80.0454 14.5338 82.1601 15.696C82.637 15.9587 82.7666 16.3427 82.8029 16.7217V19.5361C82.8029 19.9201 82.3675 20.3698 81.9114 20.1373C78.1846 18.2325 73.2346 18.0253 69.1139 20.1575C68.694 20.3799 68.2535 19.9352 68.2535 19.5512V16.8783C68.2535 16.4488 68.2586 15.7162 68.6992 15.0644L75.9713 4.89828H69.6426C69.2538 4.89828 68.9428 4.63049 68.9428 4.23637ZM68.8255 24.2964C71.0723 24.0366 75.9867 23.4683 76.8628 24.5636C77.7486 25.6695 75.8802 30.2172 75.045 32.2502L75.0435 32.2538C74.7895 32.8703 75.3338 33.1179 75.9039 32.653C79.6203 29.6264 80.574 23.2852 79.8173 22.3707C79.0605 21.4612 72.5711 20.678 68.6163 23.3913C68.0046 23.8057 68.1083 24.3817 68.7873 24.3008L68.8255 24.2964ZM48.4016 35.3965C57.0369 35.3965 67.0665 32.7439 73.9861 27.772C75.1316 26.9433 74.152 25.7104 72.9806 26.1955C65.2264 29.404 56.7933 30.9501 49.1272 30.9501C37.7603 30.9501 26.7562 27.9134 17.8566 22.8658C17.0791 22.4211 16.4986 23.1992 17.1465 23.7702C25.3931 31.031 36.2934 35.3965 48.4016 35.3965ZM92.8688 0.593262C98.3371 0.593262 101.297 5.17104 101.297 10.9918C101.297 16.6155 98.0261 21.0771 92.8688 21.0771C87.4989 21.0771 84.5755 16.4993 84.5755 10.7947C84.5755 5.05483 87.5352 0.593262 92.8688 0.593262ZM92.8999 4.35742C90.1838 4.35742 90.0128 7.96507 90.0128 10.2135L90.0128 10.2963V10.2964C90.0124 12.5827 90.0115 17.2773 92.8688 17.2773C95.7247 17.2773 95.8595 13.3968 95.8595 11.0321C95.8595 9.47584 95.7921 7.61644 95.3101 6.14103C94.8954 4.85764 94.0713 4.35742 92.8999 4.35742ZM104.718 20.693H108.387C108.781 20.693 109.103 20.3949 109.108 20.0261V10.0975C109.108 8.85449 109.175 7.73278 109.694 6.60602C110.103 5.71674 110.927 5.13062 111.824 5.13062C114.173 5.13062 114.151 7.64421 114.133 9.61657V9.61754V9.61849C114.132 9.78249 114.131 9.94273 114.131 10.0975V20.112C114.167 20.4252 114.447 20.6678 114.784 20.693H118.479C118.842 20.693 119.148 20.4354 119.189 20.112V8.50584C119.189 6.72223 119.189 4.24134 118.225 2.76594C117.189 1.17433 115.577 0.593262 113.923 0.593262C111.378 0.593262 109.932 1.79581 108.901 4.31713H108.833V1.4977C108.761 1.2097 108.496 0.997471 108.175 0.982323H104.759C104.386 0.982323 104.08 1.24506 104.049 1.5836L104.054 20.0261C104.054 20.3798 104.35 20.6678 104.718 20.693Z" fill="white"/>
</svg>
