<svg width="22" height="21" viewBox="0 0 22 21" fill="none" xmlns="http://www.w3.org/2000/svg">
<path d="M13.8311 19.2062V13.1852H16.1229L16.4661 10.5796H13.8311V8.91615C13.8311 8.16179 14.0451 7.64772 15.1498 7.64772L16.5589 7.64712V5.31671C16.3152 5.28496 15.4788 5.21401 14.5056 5.21401C12.4741 5.21401 11.0832 6.42825 11.0832 8.65811V10.5796H8.78552V13.1852H11.0832V19.2062H4.51672C3.41215 19.2062 2.51672 18.3108 2.51672 17.2062L2.51672 4.53955C2.51672 3.43498 3.41215 2.53955 4.51672 2.53955L17.538 2.53955C18.6426 2.53955 19.538 3.43498 19.538 4.53955V17.2062C19.538 18.3108 18.6426 19.2062 17.538 19.2062H13.8311Z" fill="#1E72D1"/>
</svg>
