<svg width="132" height="42" viewBox="0 0 132 42" fill="none" xmlns="http://www.w3.org/2000/svg">
<path fill-rule="evenodd" clip-rule="evenodd" d="M17.7461 14.9196V19.3722L28.6415 19.3675C28.3073 21.8233 27.4595 23.6215 26.1708 24.8801C24.5818 26.4322 22.1014 28.1404 17.7461 28.1404C11.0316 28.1404 5.78008 22.8549 5.78008 16.2965C5.78008 9.73817 11.0316 4.45268 17.7461 4.45268C21.3699 4.45268 24.015 5.84385 25.9673 7.63249L29.1841 4.49054C26.4615 1.94953 22.8378 0 17.751 0C8.55601 0 0.824097 7.31546 0.824097 16.2965C0.824097 25.2776 8.55601 32.5931 17.751 32.5931C22.7118 32.5931 26.4566 31.0032 29.3876 28.0221C32.4009 25.0789 33.3359 20.948 33.3359 17.6073C33.3359 16.6136 33.2584 15.6956 33.1082 14.9196H17.7461ZM109.652 31.9544V1.19727H105.05V31.9544H109.652ZM56.7254 22.1027C56.7254 28.1453 51.8857 32.598 45.9462 32.598C40.0068 32.598 35.1671 28.1453 35.1671 22.1027C35.1671 16.0175 40.0068 11.6074 45.9462 11.6074C51.8857 11.6074 56.7254 16.0175 56.7254 22.1027ZM52.0067 22.1028C52.0067 18.3268 49.2017 15.7432 45.9462 15.7432C42.6907 15.7432 39.8857 18.3268 39.8857 22.1028C39.8857 25.841 42.6907 28.4624 45.9462 28.4624C49.2017 28.4624 52.0067 25.8362 52.0067 22.1028ZM79.9792 22.1027C79.9792 28.1453 75.1395 32.598 69.2001 32.598C63.2607 32.598 58.4209 28.1453 58.4209 22.1027C58.4209 16.0222 63.2607 11.6074 69.2001 11.6074C75.1395 11.6074 79.9792 16.0175 79.9792 22.1027ZM75.2607 22.1028C75.2607 18.3268 72.4557 15.7432 69.2001 15.7432C65.9446 15.7432 63.1396 18.3268 63.1396 22.1028C63.1396 25.841 65.9446 28.4624 69.2001 28.4624C72.4557 28.4624 75.2607 25.8362 75.2607 22.1028ZM102.264 31.0838V12.2462H97.7829V13.9544H97.6182C96.5572 12.7194 94.5225 11.6074 91.9597 11.6074C86.5871 11.6074 81.6651 16.2163 81.6651 22.1405C81.6651 28.0222 86.5871 32.5932 91.9597 32.5932C94.5274 32.5932 96.5621 31.4812 97.6182 30.2084H97.7829V31.7178C97.7829 35.7352 95.5883 37.8693 92.0469 37.8693C89.1596 37.8693 87.3671 35.8535 86.6356 34.1453L82.5274 35.8156C83.7095 38.598 86.8439 42.0002 92.0518 42.0002C97.5843 42.0002 102.264 38.8346 102.264 31.0838ZM92.3812 15.7432C95.5931 15.7432 98.1171 18.4451 98.1171 22.1406C98.1171 25.7984 95.5931 28.4624 92.3812 28.4624C89.1256 28.4624 86.3982 25.7984 86.3982 22.1406C86.3982 18.4451 89.1256 15.7432 92.3812 15.7432ZM131.249 27.9417L127.587 25.5568C126.366 27.3076 124.699 28.4622 122.296 28.4622C119.898 28.4622 118.188 27.388 117.088 25.2823L131.453 19.4716L130.963 18.2792C130.072 15.9369 127.344 11.6025 121.768 11.6025C116.231 11.6025 111.634 15.8565 111.634 22.0978C111.634 27.9842 116.192 32.5931 122.296 32.5931C127.218 32.5931 130.067 29.6499 131.249 27.9417ZM125.915 17.8866L116.313 21.7809C116.192 17.7304 119.53 15.6626 121.928 15.6626C123.798 15.6626 125.387 16.5758 125.915 17.8866Z" fill="white"/>
</svg>
