<svg width="22" height="21" viewBox="0 0 22 21" fill="none" xmlns="http://www.w3.org/2000/svg">
<path d="M3.09388 5.77872C3.11941 5.53288 3.02324 5.29038 2.83601 5.12538L0.929625 2.87538V2.53955H6.85133L11.4284 12.3687L15.4522 2.53955H21.0973V2.87538L19.4667 4.40622C19.3262 4.51122 19.2564 4.68372 19.2854 4.85455V16.1029C19.2564 16.2729 19.3262 16.4454 19.4667 16.5504L21.059 18.0812V18.4171H13.0488V18.0812L14.699 16.5129C14.8607 16.3546 14.8607 16.3079 14.8607 16.0654V6.97372L10.2743 18.3804H9.65473L4.31431 6.97372V14.6187C4.27005 14.9396 4.37899 15.2637 4.60963 15.4954L6.75516 18.0437V18.3804H0.671753V18.0437L2.81729 15.4954C3.04707 15.2629 3.1492 14.9371 3.09388 14.6187V5.77872Z" fill="#1E72D1"/>
</svg>
