<svg width="169" height="35" viewBox="0 0 169 35" fill="none" xmlns="http://www.w3.org/2000/svg">
<path fill-rule="evenodd" clip-rule="evenodd" d="M0.742798 0H17.7208V16.5064H0.742798V0ZM164.318 15.6985H168.002V12.8173H164.374V8.40127L164.263 8.4282L160.829 9.4245L160.746 9.45143V12.8173H155.317V10.9324C155.317 10.0708 155.539 9.39757 155.926 8.96674C156.314 8.5359 156.896 8.32049 157.616 8.32049C158.114 8.32049 158.641 8.4282 159.222 8.67054L159.361 8.75132V5.70855L159.278 5.68163C158.779 5.52006 158.114 5.41235 157.256 5.41235C156.176 5.41235 155.234 5.6547 154.375 6.05861C153.517 6.51637 152.88 7.13569 152.409 7.97043C151.938 8.77825 151.689 9.69377 151.689 10.7439V12.8173H149.168V15.6716H151.689V27.735H155.317V15.6985H160.746V23.3728C160.746 26.5233 162.269 28.112 165.315 28.112C165.814 28.112 166.34 28.0312 166.839 27.9504C167.365 27.8427 167.753 27.708 167.974 27.6003L168.002 27.5734V24.6922L167.864 24.7999C167.642 24.9345 167.448 25.0423 167.116 25.123C166.839 25.2038 166.589 25.2307 166.396 25.2307C165.676 25.2307 165.177 25.0692 164.817 24.6653C164.485 24.2883 164.318 23.669 164.318 22.7534V15.6985ZM77.1574 7.10876C76.7974 6.73177 76.2712 6.51636 75.6341 6.51636C75.0248 6.51636 74.5263 6.73177 74.1108 7.10876C73.6954 7.48574 73.4738 7.97042 73.4738 8.56282C73.4738 9.12829 73.6954 9.61298 74.1108 9.98996C74.5263 10.3669 75.0248 10.5554 75.6341 10.5554C76.2435 10.5554 76.7697 10.34 77.1574 9.98996C77.5729 9.61298 77.7945 9.12829 77.7945 8.56282C77.7945 7.99735 77.5729 7.51266 77.1574 7.10876ZM59.7918 20.0069L65.2757 6.94727H70.3165V27.735H66.6329V14.5407C66.6606 13.706 66.716 12.3327 66.799 10.7978H66.716C66.6834 10.9372 66.6508 11.0826 66.6182 11.2279L66.6182 11.228L66.6182 11.2282C66.5123 11.7005 66.4064 12.1728 66.3005 12.4404L59.9303 27.762H57.493L51.0674 12.575C50.929 12.1981 50.7351 11.6057 50.5689 10.7978H50.4858C50.4938 10.8914 50.5042 10.994 50.5155 11.1062L50.5155 11.1066C50.5433 11.382 50.5769 11.7157 50.5966 12.1173C50.6243 13.2482 50.6243 14.1637 50.6243 14.9716V27.8158H47.1622V7.00112H52.3969L57.7423 20.0608C58.2408 21.1917 58.5455 22.1342 58.7117 22.7535H58.7948L59.7918 20.0069ZM73.8063 12.8174H77.4068V27.735H73.8063V12.8174ZM90.1748 12.6827C90.874 12.8134 91.3904 13.0203 91.8508 13.2048L91.892 13.2212L91.9197 13.2482V16.6679L91.7812 16.5602C90.701 15.8063 89.5101 15.4293 88.3468 15.4293C86.962 15.4293 85.8264 15.887 84.9678 16.7756C84.1093 17.6642 83.6938 18.8759 83.6938 20.4108C83.6938 21.8918 84.1093 23.0766 84.9401 23.9383C85.7433 24.8269 86.8789 25.2308 88.3191 25.2308C88.8177 25.2308 89.3993 25.1231 90.0363 24.9076C90.6456 24.7191 91.255 24.396 91.7812 24.019L91.9197 23.9113V27.1426L91.892 27.1695C90.7287 27.8158 89.2608 28.1658 87.5436 28.1658C86.048 28.1658 84.7186 27.8427 83.583 27.2234C82.3921 26.604 81.5058 25.6885 80.8688 24.5576C80.2317 23.3997 79.8994 22.1341 79.8994 20.707C79.8994 19.0644 80.2317 17.6373 80.8965 16.3987C81.5335 15.1869 82.5305 14.2176 83.7769 13.5174C85.0232 12.8173 86.5189 12.4673 88.1529 12.4673C88.8177 12.4673 89.5101 12.5481 90.1748 12.6827ZM103.414 12.8173C103.165 12.6557 102.666 12.575 102.057 12.575C101.17 12.575 100.34 12.8442 99.6194 13.4097C99.0101 13.8944 98.5947 14.5945 98.2346 15.4292H98.2069V12.8173H94.6064V27.7349H98.2069V20.1146C98.2069 18.8221 98.4839 17.745 99.0932 16.9641C99.7025 16.1563 100.478 15.7524 101.42 15.7524C101.641 15.7524 101.863 15.7883 102.109 15.8282L102.109 15.8282C102.232 15.8481 102.361 15.869 102.5 15.887C102.888 15.9947 103.165 16.1024 103.358 16.237L103.497 16.3448V12.8442L103.414 12.8173ZM111.861 12.4941C114.243 12.4941 116.154 13.1673 117.456 14.5406C118.813 15.9139 119.478 17.7988 119.478 20.1684C119.478 22.5649 118.785 24.5037 117.345 25.9577C115.933 27.4118 113.966 28.1388 111.501 28.1388C109.147 28.1388 107.264 27.4387 105.879 26.0924C104.494 24.7191 103.774 22.8342 103.774 20.5184C103.774 18.0411 104.466 16.0755 105.907 14.6483C107.319 13.2212 109.341 12.4941 111.861 12.4941ZM115.794 20.2493C115.739 21.8649 115.434 23.1305 114.742 23.9653C114.077 24.8 113.024 25.2039 111.723 25.2039C110.421 25.2039 109.369 24.8 108.621 23.9114C107.873 23.0767 107.513 21.8649 107.513 20.3301C107.513 18.7414 107.901 17.5297 108.621 16.668C109.369 15.8063 110.393 15.3755 111.695 15.3755C112.969 15.3755 113.966 15.7794 114.686 16.6141C115.406 17.4489 115.794 18.6606 115.794 20.2493ZM127.51 19.0106C128.95 19.5491 129.947 20.2223 130.75 20.8686C131.36 21.5417 131.637 22.4303 131.637 23.4266C131.637 24.8538 131.055 25.9578 129.947 26.8195C128.867 27.7081 127.344 28.112 125.488 28.112C124.879 28.112 124.186 28.0043 123.411 27.8696C122.635 27.6811 121.998 27.5196 121.472 27.2772L121.389 27.2503V23.8305L121.527 23.9383C122.109 24.3422 122.801 24.6922 123.549 24.9346C124.297 25.1769 124.934 25.2846 125.543 25.2846C127.122 25.2846 127.898 24.7999 127.898 23.8036C127.898 23.4536 127.814 23.1843 127.676 22.9689C127.482 22.7804 127.233 22.538 126.845 22.3226C126.457 22.1072 125.82 21.8379 124.989 21.4879C123.992 21.084 123.272 20.6531 122.774 20.2762C122.275 19.8723 121.915 19.3876 121.666 18.8759C121.417 18.3643 121.306 17.745 121.306 17.0449C121.306 15.7255 121.832 14.5945 122.94 13.7598C124.048 12.8712 125.46 12.4673 127.177 12.4673C127.676 12.4673 128.285 12.5211 128.95 12.6288C129.615 12.7635 130.169 12.925 130.584 13.0866L130.667 13.1135V16.3987L130.529 16.2909C130.086 15.9678 129.532 15.7255 128.922 15.5639C128.313 15.4023 127.676 15.2946 127.067 15.2946C126.374 15.2946 125.903 15.4293 125.488 15.6985C125.073 15.9678 124.906 16.3717 124.906 16.7756C124.906 17.2603 125.045 17.6373 125.322 17.9066C125.654 18.2028 126.374 18.5528 127.51 19.0106ZM146.731 14.5406C145.429 13.1673 143.518 12.4941 141.136 12.4941C138.616 12.4941 136.594 13.2212 135.182 14.6483C133.769 16.0755 133.049 18.0411 133.049 20.5184C133.049 22.8342 133.769 24.7191 135.154 26.0924C136.539 27.4387 138.422 28.1388 140.776 28.1388C143.241 28.1388 145.208 27.4118 146.62 25.9577C148.061 24.5037 148.753 22.5649 148.753 20.1684C148.753 17.7988 148.088 15.9139 146.731 14.5406ZM143.989 23.9653C144.682 23.1305 145.042 21.8649 145.042 20.2493C145.042 18.6606 144.654 17.4489 143.934 16.6141C143.214 15.7794 142.189 15.3755 140.943 15.3755C139.641 15.3755 138.616 15.8063 137.868 16.668C137.148 17.5297 136.76 18.7414 136.76 20.3301C136.76 21.8649 137.12 23.0767 137.868 23.9114C138.616 24.8 139.641 25.2039 140.97 25.2039C142.272 25.2039 143.324 24.8 143.989 23.9653ZM36.4714 0H19.4934V16.5064H36.4714V0ZM0.742798 18.2297H17.7208V34.736H0.742798V18.2297ZM36.4714 18.2297H19.4934V34.7361H36.4714V18.2297Z" fill="white"/>
</svg>
