<svg width="153" height="38" viewBox="0 0 153 38" fill="none" xmlns="http://www.w3.org/2000/svg">
<path fill-rule="evenodd" clip-rule="evenodd" d="M0.532471 13.5795C0.532471 6.50937 5.86612 0 15.9747 0C24.0767 0 30.3755 5.55856 30.4009 12.9944C30.4009 20.7471 25.3213 26.9639 18.2605 26.9639C15.8985 26.9639 13.6634 25.7693 12.9015 24.3796C12.9015 24.3796 11.7331 28.6705 11.4538 29.7188C10.6664 32.62 7.87259 36.6426 7.64401 36.9352C7.61861 36.9839 7.54242 37.0327 7.46622 37.0327C7.33923 37.0327 7.21224 36.9352 7.21224 36.8133C7.13604 36.3988 6.32329 31.5716 7.03445 28.5973C7.46622 26.842 9.77747 17.4314 9.77747 17.4314C9.2949 16.3831 9.04092 15.2373 9.06632 14.0914C9.06632 10.9708 10.9458 8.63039 13.3078 8.63039C15.2889 8.63039 16.254 10.0688 16.254 11.7997C16.254 12.9914 15.7679 14.5471 15.2528 16.1954C14.9354 17.2111 14.607 18.2619 14.3746 19.2843C13.8158 21.5028 15.5429 23.3313 17.8287 23.3313C21.9687 23.3313 25.1689 19.138 25.1689 13.0675C25.1689 7.70397 21.1559 3.9495 15.4159 3.9495C8.76154 3.9495 4.85019 8.72791 4.85019 13.677C4.85019 15.603 5.61214 17.6752 6.57728 18.7967C6.72967 18.9917 6.80586 19.2355 6.72967 19.455C6.63734 19.8221 6.48336 20.4063 6.34599 20.9274C6.21885 21.4097 6.10594 21.8381 6.06931 21.9904C5.96772 22.4049 5.73913 22.478 5.28196 22.283C2.36115 20.9665 0.532471 16.8707 0.532471 13.5795ZM151.399 17.7729H147.716C147.716 17.7729 147.081 20.3083 146.7 21.7711C146.61 22.0997 146.522 22.4182 146.438 22.7258L146.434 22.7412L146.433 22.7417L146.433 22.7421C145.779 25.1192 145.303 26.8494 145.303 27.6466C145.303 28.6949 145.887 29.3044 146.903 29.3044C148.656 29.3044 149.545 27.8904 149.9 26.5495C149.951 26.2814 150.205 26.0863 150.484 26.0863H152.084C152.135 26.0863 152.211 26.0863 152.262 26.1107C152.465 26.2082 152.542 26.4276 152.465 26.6227C151.348 30.4015 148.732 32.9858 144.567 32.9858C141.62 32.9858 140.274 31.2548 140.274 28.9631C140.274 27.2565 142.916 17.8704 142.916 17.8704H140.35C139.868 17.8704 139.639 17.5778 139.741 17.1634C139.805 16.9774 139.942 16.4464 140.078 15.9152L140.079 15.9138C140.157 15.6099 140.235 15.3061 140.3 15.0667C140.401 14.6035 140.706 14.4085 141.214 14.4085H143.83C143.83 14.4085 145.379 10.0445 145.379 7.60655C145.379 4.63224 143.398 2.80376 140.376 2.80376C136.033 2.80376 133.925 5.72932 133.925 9.28875C133.925 12.6969 135.56 14.1811 136.886 15.3838C137.788 16.2029 138.547 16.8913 138.547 17.9679C138.547 18.8943 137.963 19.9183 136.617 19.9183C135.042 19.9183 134.128 18.7237 133.671 17.651C132.883 17.4072 132.045 17.2853 131.232 17.2853C129.505 17.2853 128.489 17.846 128.489 19.0894C128.489 20.4175 129.921 20.8986 131.784 21.525C132.042 21.6115 132.307 21.7008 132.579 21.7955C135.296 22.7463 137.963 23.8922 137.963 26.9884C137.963 30.4259 134.991 33.0101 129.81 33.0101C126.026 33.0101 123.13 31.5717 121.987 29.7676C119.575 31.6936 116.984 32.9858 112.971 32.9858C107.841 32.9858 104.844 29.7189 104.844 25.8669C104.844 25.1599 104.92 24.4529 105.021 23.7703C104.556 23.6661 104.092 23.5711 103.644 23.4796C103.358 23.4211 103.079 23.3641 102.812 23.307C102.075 23.7946 101.135 24.0628 99.9924 24.0628C98.5193 24.0628 97.4018 23.1364 97.4018 22.1368C97.4018 20.6009 98.6209 19.8939 100.119 20.1864C100.297 19.8695 100.373 19.5038 100.373 19.1625C100.373 18.2361 99.9162 17.651 98.8241 17.651C95.7255 17.651 93.6682 22.6244 92.3729 27.4028C91.996 28.8363 91.6769 30.0234 91.4631 30.8192C91.3023 31.4175 91.201 31.7945 91.1792 31.8887C91.103 32.3031 90.722 32.5957 90.2903 32.5713H87.0139C86.4551 32.5713 86.2519 32.2056 86.3789 31.7668C86.3922 31.7287 86.4675 31.4455 86.5905 30.9829L86.5921 30.977L86.593 30.9737C86.7058 30.5496 86.8582 29.9766 87.0393 29.3044C84.7534 31.6693 81.5278 32.9858 78.1752 32.9614C74.4417 32.9614 71.8765 31.1817 70.7843 28.7193C69.4636 30.8404 67.2286 32.9614 63.5204 32.9614C61.2853 32.9614 60.0662 31.9618 59.6091 30.4747C58.3645 31.8887 56.6121 32.9614 54.2754 32.9614C50.8466 32.9614 50.1609 30.6941 50.1609 28.9387C50.1609 27.5383 50.8294 25.0506 51.3861 22.979C51.7501 21.6244 52.0663 20.4478 52.1165 19.8695C52.2181 18.5286 51.3038 17.846 50.2117 17.846C47.9258 17.846 46.3003 19.5282 45.64 22.0393C45.64 22.0393 43.1763 31.3767 43.0493 31.8643C42.9223 32.3519 42.7192 32.5713 42.135 32.5713H38.8078C38.2744 32.5713 38.1221 32.1812 38.249 31.7424C38.2689 31.7043 38.3506 31.3988 38.4822 30.907L38.4822 30.9069C38.5192 30.7688 38.5601 30.616 38.6046 30.4503C37.2331 31.8643 35.4298 32.9614 33.1694 32.9614C30.2232 32.9614 29.1564 31.2304 29.1564 28.9387C29.1564 27.7639 29.7863 25.4 30.4352 22.9647L30.436 22.962C30.5005 22.7198 30.5652 22.4769 30.6295 22.2343C31.5947 18.5286 32.509 15.213 32.509 15.213C32.6106 14.7985 32.8392 14.506 33.4234 14.506H36.6744C37.2331 14.506 37.4109 14.8473 37.3093 15.2618C37.2733 15.4233 37.0836 16.1252 36.7997 17.1765C36.4836 18.3468 36.0505 19.95 35.5822 21.7224C35.4942 22.0632 35.4078 22.3958 35.3239 22.7187L35.3239 22.7188L35.3239 22.7189L35.3238 22.719C34.7295 25.0062 34.2615 26.8074 34.2615 27.5979C34.2615 28.6462 34.7187 29.2557 35.7346 29.2557C37.7157 29.2557 39.5698 26.8421 40.3317 23.9409C40.8445 22.0056 41.3627 20.0343 41.7782 18.4534L41.7796 18.4482L41.7807 18.4438C42.2694 16.5846 42.6155 15.2676 42.643 15.1886C42.7446 14.8229 42.9223 14.4572 43.6081 14.4572H46.8083C46.8845 14.4572 46.9861 14.4572 47.0623 14.4816C47.3671 14.5791 47.5448 14.8961 47.4432 15.1886C47.3417 15.5543 47.0623 16.4807 47.0623 16.4807C47.9766 15.3593 50.1355 14.0672 52.2181 14.0672C55.5199 14.0672 57.12 15.7494 57.12 18.6262C57.12 19.7312 56.6012 21.5283 56.098 23.2712L56.098 23.2713C55.6242 24.9122 55.1643 26.5051 55.1643 27.4272C55.1643 28.6462 55.6469 29.2069 56.8152 29.2069C58.7455 29.2069 59.9392 25.7694 60.2948 24.3066C61.0568 21.2592 61.9711 17.8704 61.9965 17.7972H59.3805C58.8979 17.7972 58.6693 17.5047 58.7709 17.0902C58.8355 16.9042 58.9721 16.3729 59.1086 15.8415L59.1087 15.8412L59.1088 15.8407L59.1092 15.8393L59.1092 15.8393C59.1872 15.5359 59.2651 15.2326 59.3297 14.9936C59.4313 14.5304 59.736 14.3353 60.244 14.3353H62.9108L64.2824 9.04495C64.4601 8.3867 64.8411 8.11852 65.3237 8.02101C65.8063 7.92349 68.3969 7.43589 68.3969 7.43589C68.9303 7.314 69.4636 7.65531 69.3112 8.2648C69.2604 8.43546 67.7365 14.311 67.7365 14.311H71.0891C71.5717 14.311 71.8003 14.6035 71.6987 15.018C71.5971 15.3105 71.2923 16.4564 71.1399 17.1146C71.0129 17.5778 70.7335 17.7729 70.2256 17.7729H66.8222C66.6782 18.3255 66.5407 18.8599 66.4117 19.3607L66.4113 19.3625L66.4104 19.3657C66.1759 20.2767 65.97 21.0764 65.8063 21.6736C65.6513 22.2582 65.4998 22.8168 65.357 23.343C64.8211 25.3187 64.4093 26.8368 64.4093 27.5491C64.4093 28.5974 64.9935 29.2069 66.0094 29.2069C68.0921 29.2069 70.0224 26.1838 70.3018 23.9897C70.9621 18.6993 74.7719 14.0428 81.0199 14.0428H81.0453C85.2614 14.0428 87.3948 16.4807 87.3948 18.8212C87.3948 23.1608 84.1947 25.3306 79.0388 25.3306C77.8451 25.3306 76.1434 25.0868 75.3814 24.7942C75.3814 27.9148 76.9053 29.4751 79.8261 29.4751C84.2709 29.4751 87.8012 26.3057 88.487 23.7459C89.5791 19.6745 90.6966 15.4568 90.7728 15.1155C90.8998 14.6035 91.23 14.4572 91.6872 14.4572H94.9382C95.5223 14.4572 95.6747 14.8473 95.5731 15.213C95.5731 15.2529 95.4977 15.5316 95.3715 15.998C95.2661 16.3875 95.1254 16.9078 94.9636 17.5291C96.4113 15.4568 98.4939 14.0672 100.704 14.0672C103.853 14.0672 105.047 16.2369 105.047 18.0654C105.047 19.0162 104.869 19.9914 104.513 20.8935C104.704 20.9422 104.894 20.9849 105.085 21.0275C105.275 21.0702 105.466 21.1129 105.656 21.1616C107.002 17.4315 110.126 14.0672 115.663 14.0672H115.689C119.905 14.0672 122.038 16.5051 122.038 18.8456C122.038 23.1851 118.66 25.3549 113.708 25.3549C112.539 25.3549 110.736 25.1111 110.05 24.9161C110.05 28.0367 111.549 29.4995 114.495 29.4995C117.466 29.4995 119.549 28.5243 121.479 27.0127C121.733 25.7694 122.749 24.843 123.943 24.843C125.365 24.843 126.127 25.6719 126.127 26.7202C126.153 27.2565 125.924 27.7685 125.518 28.1098C125.899 28.5487 127.346 29.7433 129.962 29.7433C132.198 29.7433 133.315 29.085 133.315 27.9636C133.315 26.5387 131.839 26.0759 130.029 25.5083C129.702 25.4058 129.365 25.2999 129.023 25.1843C126.508 24.331 123.841 23.0632 123.841 19.8208C123.841 16.3588 126.711 13.9696 131.283 13.9696C131.613 13.9696 131.944 13.9696 132.274 13.994C131.385 12.6044 130.902 11.0197 130.877 9.38627C130.877 3.94961 134.788 0.0732422 140.808 0.0732422C146.141 0.0732422 149.9 3.68143 149.9 7.92349C149.9 9.6758 149.189 12.2102 148.799 13.602C148.717 13.8949 148.649 14.1372 148.605 14.311H152.262C152.745 14.311 152.973 14.6035 152.872 15.018C152.807 15.2041 152.671 15.7357 152.534 16.2674L152.533 16.2726C152.455 16.5748 152.377 16.8766 152.313 17.1146C152.211 17.5778 151.907 17.7729 151.399 17.7729ZM80.1817 17.6265C81.8072 17.6265 82.366 18.5773 82.366 19.6987C82.366 21.6003 80.8421 22.7462 78.4292 22.7462C77.4895 22.7218 76.5497 22.5755 75.6608 22.3317C75.9656 20.5764 77.1339 17.6265 80.1817 17.6265ZM114.85 17.6265C116.324 17.6265 117.035 18.5773 117.035 19.6987C117.035 21.6003 115.511 22.7462 113.098 22.7462C112.158 22.7218 111.218 22.5755 110.33 22.3317C110.634 20.5764 111.955 17.6265 114.85 17.6265ZM39.1125 9.53242C38.9856 11.1902 37.5632 12.5067 35.9124 12.5067C34.2615 12.5067 33.0169 11.1659 33.1185 9.53242C33.2455 7.87461 34.6678 6.55811 36.3187 6.55811C37.9696 6.55811 39.2141 7.89899 39.1125 9.53242Z" fill="white"/>
</svg>
