<svg width="22" height="21" viewBox="0 0 22 21" fill="none" xmlns="http://www.w3.org/2000/svg">
<path d="M19.6808 5.81002C19.0546 6.08224 18.3815 6.26557 17.6752 6.34821C18.3964 5.92529 18.9503 5.25515 19.2106 4.45654C18.5362 4.84821 17.7886 5.13293 16.9929 5.2864C16.3567 4.62182 15.4482 4.20654 14.4439 4.20654C12.1893 4.20654 10.5326 6.26627 11.0418 8.40446C8.1404 8.2621 5.56735 6.90099 3.84465 4.83224C2.92976 6.36904 3.37018 8.37946 4.9248 9.39751C4.35316 9.37946 3.81416 9.22599 3.34394 8.96974C3.30565 10.5538 4.46522 12.0357 6.14465 12.3656C5.65316 12.4961 5.11487 12.5267 4.56735 12.4239C5.01132 13.7822 6.30068 14.7704 7.82976 14.7982C6.36168 15.9253 4.51203 16.4288 2.65955 16.2149C4.20494 17.185 6.04111 17.751 8.01274 17.751C14.4964 17.751 18.1596 12.3892 17.9383 7.58015C18.6205 7.09751 19.2127 6.49543 19.6808 5.81002Z" fill="#1E72D1"/>
</svg>
