<svg width="175" height="25" viewBox="0 0 175 25" fill="none" xmlns="http://www.w3.org/2000/svg">
<path fill-rule="evenodd" clip-rule="evenodd" d="M15.7305 23.4393C16.7691 21.5846 18.8324 17.5344 20.3937 14.4363L20.7135 14.536C22.1667 17.6135 24.0526 21.5806 24.98 23.4195C25.7516 24.9517 26.6289 25.1016 27.5209 23.4661C29.8517 18.4776 36.6632 3.46825 36.6632 3.46825C36.9586 2.73115 37.3701 2.16382 37.8976 1.75212C38.4237 1.34325 39.2364 1.11406 40.3327 1.06737C40.5561 1.06737 40.6693 0.971167 40.6693 0.780172V0.075612L40.584 0.00345835H32.2162L32.1104 0.075612V0.780172C32.1104 0.863644 32.1501 0.932968 32.2265 0.985314C32.3044 1.04049 32.3852 1.0702 32.4705 1.0702L33.1656 1.10416C34.0238 1.13811 34.2575 1.30222 34.5896 1.57952C34.9203 1.86389 34.9599 2.34775 34.7028 3.02967L27.2961 19.9518L27.011 19.8768L22.3089 10.6152L22.4171 10.3978L26.2645 3.47108C26.7127 2.73964 27.1447 2.08743 27.3637 1.78325C27.7649 1.22724 27.9897 1.12255 29.086 1.07303C29.3094 1.07303 29.4226 0.976826 29.4226 0.783001V0.0812711L29.3388 0.0062879C29.3388 0.0062879 24.6318 -0.00785988 22.5361 0.0062879L22.4318 0.0784416V0.780172C22.4318 0.866473 22.47 0.934382 22.5464 0.986729C22.6243 1.04191 22.7037 1.0702 22.7889 1.0702L23.1254 1.10557C23.9822 1.13953 24.3761 1.35599 24.4936 1.49181C24.6979 1.73232 24.7993 1.99264 24.304 3.0325L21.3444 8.71539L18.6682 3.4442C17.7894 1.7592 17.5734 1.23856 18.896 1.13953L19.4192 1.06737C19.6734 1.06737 19.7983 0.98107 19.7983 0.812711V0.075612L19.6073 0.0147766C19.6073 0.0147766 14.6269 0.0147766 12.3887 0.0176061L12.2844 0.0897598V0.829689C12.2844 0.995218 12.4637 1.03766 12.8105 1.08152C13.9587 1.22707 14.02 1.34467 14.9987 3.22314C15.0759 3.3714 15.1588 3.53062 15.2485 3.70169C15.4322 4.05255 15.9715 5.10798 15.9715 5.10798L18.7608 10.3851C18.7608 10.3851 19.0772 11.0609 19.5733 12.1161L15.516 19.9066L15.2852 19.8486C15.2852 19.8486 8.99104 7.07169 7.16876 2.79765C6.97919 2.35482 6.89395 2.02659 6.89395 1.82428C6.89395 1.38994 7.30103 1.15509 8.11517 1.12255L9.06452 1.08435C9.31582 1.08435 9.44367 0.990974 9.44367 0.797149V0.0954189L9.35843 0.0232652C9.35843 0.0232652 1.8195 0.0147766 0.261749 0.0232652L0.176514 0.0954189V0.832518C0.176514 0.965508 0.351393 1.04756 0.702622 1.08435C1.65932 1.13387 2.2883 1.281 2.59103 1.52576C2.89229 1.77335 3.21119 2.39868 3.63443 3.37346C4.81846 6.11151 6.69153 9.96107 8.55152 13.7838L8.55156 13.7838C10.286 17.3484 12.009 20.8897 13.1514 23.4845C13.8333 24.9531 14.6901 25.1809 15.7305 23.4393ZM46.0582 23.384L45.2558 23.3091C44.0331 23.1987 43.651 22.7205 43.651 21.9113V9.66211C43.651 8.92501 44.0713 8.62933 45.2558 8.52039L46.0582 8.44541C46.211 8.44541 46.2875 8.37184 46.2875 8.26148V7.45223L46.2493 7.37866C46.2493 7.37866 43.3072 7.45223 42.2755 7.45223C41.091 7.45223 38.0725 7.37866 38.0725 7.37866L38.0343 7.45223V8.29968C38.0343 8.41286 38.1489 8.44682 38.3018 8.44682L39.066 8.52322C40.249 8.63074 40.7089 8.85428 40.7089 9.66211V21.9113C40.7089 22.6102 40.3269 23.1987 39.066 23.3091L38.3018 23.384C38.1489 23.384 38.0343 23.4562 38.0343 23.6033V24.3758L38.1107 24.4508C38.1107 24.4508 41.091 24.3758 42.1609 24.3758C43.3454 24.3758 46.2493 24.4508 46.2493 24.4508L46.2875 24.3758V23.6033C46.2875 23.4562 46.1728 23.384 46.0582 23.384ZM56.5319 23.3091L56.9522 23.384C57.0668 23.4194 57.1815 23.4562 57.1815 23.6033V24.3758L57.1433 24.4508C57.1433 24.4508 54.7361 24.3758 53.5898 24.3758C52.52 24.3758 49.3868 24.4508 49.3868 24.4508L49.3104 24.3758V23.6033C49.3104 23.4562 49.425 23.384 49.5779 23.384L50.342 23.3091C51.4883 23.1987 51.985 22.6102 51.985 21.9113V9.66211C51.985 8.85428 51.5647 8.63074 50.342 8.52322L49.5779 8.44682C49.425 8.44682 49.3104 8.41286 49.3104 8.29968V7.45223L49.3486 7.37866C49.3486 7.37866 52.4818 7.45223 53.6662 7.45223C54.7376 7.45223 57.1433 7.37866 57.1433 7.37866L57.1815 7.45223V8.26148C57.1815 8.37184 57.105 8.40862 56.9522 8.44541L56.5319 8.52039C55.3474 8.73968 54.9271 8.92501 54.9271 9.66211V15.2165C56.188 15.2165 56.914 14.5926 58.5952 12.8623C60.1236 11.2424 61.308 9.88423 61.308 9.18392C61.308 8.88823 60.9642 8.55859 60.2 8.44682C60.0471 8.41145 59.9707 8.37325 59.9707 8.2629V7.41545L60.0089 7.38008C60.0089 7.38008 63.1039 7.45365 64.2119 7.45365C65.2054 7.45365 66.8866 7.38008 66.8866 7.38008L67.0012 7.41545V8.2629C67.0012 8.37325 66.8866 8.44682 66.6955 8.44682L66.6865 8.44748C65.2012 8.55747 64.171 8.63377 62.7982 10.1389L59.5122 13.7791C58.8627 14.4426 58.6334 14.8459 58.6334 15.1416C58.6334 15.3623 58.7862 15.5448 58.9773 15.7655L64.7468 22.4602C65.2054 22.9738 66.1224 23.1959 66.8866 23.3416L67.0776 23.377C67.1922 23.4138 67.3451 23.4873 67.3451 23.5977V24.3701L67.2304 24.4069C67.2304 24.4069 65.2054 24.3701 64.1355 24.3701C63.1803 24.3701 61.8048 24.4069 61.8048 24.4069L61.7665 24.3701V23.9287C61.7665 23.4491 61.7283 23.0473 61.1934 22.4588L56.9522 17.3811C56.3791 16.644 55.7677 16.463 54.9271 16.463V21.9113C54.9271 22.7205 55.4238 23.1251 56.5319 23.3091ZM77.9334 23.384L77.131 23.3091C75.9083 23.1987 75.5262 22.7205 75.5262 21.9113V9.66211C75.5262 8.92501 75.9465 8.62933 77.131 8.52039L77.9334 8.44541C78.0862 8.44541 78.1626 8.37184 78.1626 8.26148V7.45223L78.1244 7.37866C78.1244 7.37866 75.1823 7.45223 74.1507 7.45223C72.9662 7.45223 69.9477 7.37866 69.9477 7.37866L69.9095 7.45223V8.29968C69.9095 8.41286 70.0241 8.44682 70.1769 8.44682L70.9411 8.52322C72.1256 8.63074 72.5841 8.85428 72.5841 9.66211V21.9113C72.5841 22.6102 72.202 23.1987 70.9411 23.3091L70.1769 23.384C70.0241 23.384 69.9095 23.4562 69.9095 23.6033V24.3758L69.9859 24.4508C69.9859 24.4508 72.9662 24.3758 74.036 24.3758C75.2205 24.3758 78.1244 24.4508 78.1244 24.4508L78.1626 24.3758V23.6033C78.1626 23.4562 78.048 23.384 77.9334 23.384ZM81.4898 8.44687C81.2605 8.44687 81.2223 8.33793 81.2223 8.26295V7.41691L81.2987 7.38013C81.5385 7.38013 82.0724 7.393 82.6936 7.40798C83.5574 7.4288 84.5897 7.4537 85.2342 7.4537C85.732 7.4537 86.3289 7.43777 86.9674 7.42074C87.7013 7.40117 88.4902 7.38013 89.2462 7.38013C94.6689 7.38013 95.6624 9.95361 95.6624 11.8692C95.6624 14.0777 94.5543 17.534 89.1316 17.534C88.1763 17.534 87.4122 17.459 86.7229 17.1661V22.0924C86.7229 22.9017 87.1814 23.087 88.4056 23.2695L89.1712 23.3799C89.3241 23.4166 89.4387 23.4548 89.4387 23.6006V24.373L89.402 24.4466C89.402 24.4466 86.3452 24.373 85.1608 24.373C84.0909 24.373 81.2252 24.4466 81.2252 24.4466L81.187 24.373V23.6006C81.187 23.4534 81.2634 23.4166 81.4163 23.3799L82.2187 23.2695C83.4032 23.1224 83.7852 22.7913 83.7852 22.0924L83.7823 9.73432C83.7823 8.59401 83.2856 8.55722 81.4898 8.44687ZM92.6056 12.3106C92.6056 15.1401 91.502 16.4672 89.208 16.4672C88.4438 16.4672 87.4886 16.4318 86.7244 16.1361L86.7229 9.73569C86.7229 8.7793 87.1814 8.44824 89.0169 8.44824C91.1155 8.44824 92.6056 9.14714 92.6056 12.3106ZM98.4619 24.4508L98.4222 24.3758V23.5666C98.4222 23.4944 98.4619 23.384 98.6515 23.384L99.5318 23.3091C100.718 23.1987 101.062 22.463 101.062 21.7288V9.58996C101.062 8.74109 100.602 8.59537 99.5318 8.52322L98.6515 8.44682C98.4222 8.41286 98.4222 8.33788 98.4222 8.29968V7.45223L98.4619 7.37866C98.4619 7.37866 101.441 7.45223 102.587 7.45223H108.204C109.35 7.45223 112.064 7.37866 112.064 7.37866L112.142 7.45223C112.179 9.03395 112.446 10.4714 112.715 11.8678L111.762 12.0149C111.343 10.6525 110.617 8.70431 108.171 8.70431H105.115C104.389 8.70431 104.007 8.9618 104.007 9.58572V14.9208H106.871C107.942 14.9208 108.208 14.4794 108.362 13.7437L108.59 12.9713C108.59 12.8609 108.668 12.7859 108.819 12.7859H109.468C109.545 12.7859 109.545 12.8241 109.545 12.8963C109.525 13.1107 109.499 13.3408 109.472 13.5795C109.398 14.2417 109.316 14.9709 109.316 15.6197C109.316 16.2319 109.384 16.7799 109.452 17.3279C109.486 17.6019 109.52 17.8758 109.545 18.1579L109.468 18.2328H108.819C108.63 18.2328 108.551 18.1579 108.551 18.0475L108.36 17.2397C108.207 16.5026 107.863 16.0979 106.866 16.0979H104.004V21.7273C104.004 22.4248 104.421 23.1237 105.112 23.1237H108.742C110.69 23.1237 111.762 21.9466 112.219 20.0324L113.172 20.1428L112.407 24.3716L112.33 24.4451C112.33 24.4451 110.076 24.3716 108.93 24.3716L102.243 24.3758C101.097 24.3758 98.4619 24.4508 98.4619 24.4508ZM119.021 21.7288C119.021 22.8677 118.639 23.1988 117.491 23.3091L116.613 23.3841C116.461 23.3841 116.383 23.4945 116.386 23.6006V24.373L116.425 24.4466C116.425 24.4466 119.328 24.373 120.476 24.373C120.931 24.373 121.407 24.3839 121.995 24.3972C122.939 24.4186 124.169 24.4466 126.053 24.4466C130.293 24.4466 135.032 22.5366 135.032 16.098C135.032 11.2057 131.898 7.38013 125.517 7.38013C124.981 7.38013 123.765 7.40155 122.646 7.42127L122.646 7.42127L122.646 7.42128C121.691 7.4381 120.806 7.4537 120.473 7.4537C119.784 7.4537 116.42 7.38013 116.42 7.38013L116.383 7.4537V8.26295C116.383 8.3733 116.501 8.44687 116.654 8.44687L117.491 8.52327L117.578 8.53065C118.763 8.63132 119.021 8.65322 119.021 9.59001V21.7288ZM125.135 23.384C129.336 23.384 131.708 21.8773 131.708 16.7246C131.708 12.9005 130.828 8.44678 124.409 8.44678C122.919 8.44678 121.963 8.66748 121.963 9.58992V21.7287C121.963 22.7558 122.229 23.384 125.135 23.384ZM146.46 23.384L145.657 23.3091C144.435 23.1987 144.053 22.7205 144.053 21.9113L144.05 9.66211C144.05 8.92501 144.47 8.62933 145.654 8.52039L146.457 8.44541C146.608 8.44541 146.686 8.37184 146.686 8.26148V7.45223L146.649 7.37866C146.649 7.37866 143.706 7.45223 142.674 7.45223C141.493 7.45223 138.474 7.37866 138.474 7.37866L138.436 7.45223V8.29968C138.436 8.41286 138.551 8.44682 138.703 8.44682L139.469 8.52322C140.652 8.63074 141.112 8.85428 141.112 9.66211V21.9113C141.112 22.6102 140.728 23.1987 139.469 23.3091L138.703 23.384C138.551 23.384 138.436 23.4562 138.436 23.6033V24.3758L138.514 24.4508C138.514 24.4508 141.493 24.3758 142.564 24.3758C143.747 24.3758 146.651 24.4508 146.651 24.4508L146.689 24.3758V23.6033C146.689 23.4562 146.574 23.384 146.46 23.384ZM155.824 23.3091L156.932 23.384C157.085 23.384 157.238 23.4944 157.238 23.6769V24.3758L157.161 24.4508C157.161 24.4508 152.996 24.3758 152.079 24.3758C151.085 24.3758 148.639 24.4508 148.639 24.4508L148.561 24.3758V23.6769C148.561 23.4944 148.676 23.384 148.868 23.384C150.551 23.2737 151.503 22.978 152.573 20.6238L161.054 1.49459C161.473 0.538202 161.78 0.168945 162.355 0.168945C162.888 0.168945 163.081 0.538202 163.385 1.27389L171.218 21.2109C171.754 22.6469 172.518 23.1973 174.047 23.3444L174.467 23.3798C174.658 23.3798 174.849 23.4902 174.849 23.6755V24.373L174.734 24.4465C174.734 24.4465 171.792 24.373 170.302 24.373C168.965 24.373 165.219 24.4465 165.219 24.4465L165.182 24.373V23.6755C165.182 23.4902 165.259 23.3798 165.453 23.3798L166.522 23.3062C167.973 23.1973 168.511 22.753 168.127 21.7245L165.796 15.5066H157.849C156.932 15.5066 156.703 15.6537 156.513 16.1305L154.296 21.4656C153.913 22.388 154.41 23.1987 155.824 23.3091ZM161.479 4.14307L165.185 13.963V13.9645H158.535C157.695 13.9645 157.429 13.8555 157.582 13.4863L161.402 4.14307H161.479Z" fill="white"/>
</svg>
