<svg width="21" height="21" viewBox="0 0 21 21" fill="none" xmlns="http://www.w3.org/2000/svg">
<path fill-rule="evenodd" clip-rule="evenodd" d="M17.402 5.39987C16.0668 5.03955 10.7364 5.03955 10.7364 5.03955C10.7364 5.03955 5.41659 5.03955 4.08138 5.37928C3.36647 5.57487 2.77779 6.15129 2.57803 6.86161C2.23108 8.169 2.23108 10.8765 2.23108 10.8765C2.23108 10.8765 2.23108 13.5943 2.57803 14.8811C2.77779 15.5914 3.35595 16.1575 4.08138 16.3531C5.42711 16.7031 10.7364 16.7031 10.7364 16.7031C10.7364 16.7031 16.0668 16.7031 17.402 16.3634C18.1274 16.1678 18.7056 15.612 18.8948 14.8914C19.2523 13.5943 19.2523 10.8868 19.2523 10.8868C19.2523 10.8868 19.2628 8.169 18.8948 6.86161C18.7056 6.15129 18.1274 5.58518 17.402 5.39987ZM9.04375 13.3677V8.375L13.47 10.8765L9.04375 13.3677Z" fill="#1E72D1"/>
</svg>
