<svg width="40" height="40" viewBox="0 0 40 40" fill="none" xmlns="http://www.w3.org/2000/svg">
<path d="M39.4423 17.004C39.1195 16.9743 38.8352 17.2118 38.8058 17.5338C38.4873 21.0132 36.9531 24.2884 34.4857 26.7558C28.4164 32.8252 18.296 32.6556 12.4586 25.8599C10.1564 23.1564 8.90076 19.7545 8.90076 16.1552C8.90076 12.1461 10.4576 8.38138 13.2844 5.55451C19.1297 -0.290637 28.6405 -0.290637 34.4857 5.55451C36.9852 8.05404 38.5231 11.374 38.8163 14.9028C38.8431 15.225 39.1255 15.4653 39.4484 15.4378C39.7707 15.4111 40.0102 15.1281 39.9834 14.8057C39.6673 11.0011 38.009 7.42154 35.3138 4.72631C29.012 -1.57556 18.7581 -1.57548 12.4562 4.72631C9.40818 7.77435 7.72951 11.8332 7.72951 16.1551C7.72951 19.8535 8.95975 23.3588 11.2245 26.2033L9.38967 28.0381L9.03818 27.6867C8.62795 27.2765 7.96045 27.2765 7.55014 27.6867L0.766012 34.471C-0.23594 35.473 -0.236018 37.0945 0.766012 38.0966L1.9196 39.2502C2.41937 39.75 3.07593 39.9999 3.73241 39.9999C4.3889 39.9999 5.04546 39.7501 5.54514 39.2502L12.3293 32.466C12.7396 32.0558 12.7396 31.3882 12.3293 30.978L11.978 30.6266L13.8108 28.7938C23.8225 36.7861 38.8021 30.4256 39.9722 17.6406C40.0016 17.3185 39.7644 17.0336 39.4423 17.004ZM4.71694 38.4222C4.17405 38.9651 3.29062 38.9651 2.74773 38.4222L1.59414 37.2686C1.05125 36.7256 1.05125 35.8423 1.59414 35.2993L8.29428 28.5992C10.5833 30.8882 10.8099 31.1149 11.4171 31.722L4.71694 38.4222ZM11.1498 29.7985L10.2179 28.8666L11.9884 27.096C12.2994 27.4344 12.6159 27.7488 12.9193 28.029L11.1498 29.7985Z" fill="url(#paint0_linear_218_26392)"/>
<defs>
<linearGradient id="paint0_linear_218_26392" x1="7.62605" y1="-6.09551e-05" x2="16.311" y2="38.8863" gradientUnits="userSpaceOnUse">
<stop stop-color="#268AFF"/>
<stop offset="1" stop-color="#78CAD2"/>
</linearGradient>
</defs>
</svg>
