<svg width="40" height="28" viewBox="0 0 40 28" fill="none" xmlns="http://www.w3.org/2000/svg">
<path d="M40 7.62265C39.9991 7.01538 39.8205 6.39953 39.4255 5.89187L36.2562 1.83656C35.7253 1.16249 34.9176 0.819291 34.1104 0.817963C33.63 0.817963 33.1409 0.941088 32.7087 1.21062L29.6184 3.13328C29.2934 3.34054 28.7362 3.48281 28.198 3.47913C27.7798 3.48093 27.3758 3.39726 27.109 3.26546L24.0827 1.7996C23.5946 1.5646 23.0505 1.46828 22.5033 1.46734C21.7174 1.47101 20.9216 1.66413 20.282 2.10734L19.9289 2.35507C19.6466 2.21421 19.2153 1.9996 18.7267 1.75648C18.1408 1.46921 17.4518 1.35335 16.7558 1.35109C16.1272 1.35288 15.4987 1.44976 14.9468 1.68289L12.8855 2.56242C12.5501 2.70788 12.0165 2.80289 11.4865 2.80054C10.9565 2.80281 10.4238 2.70781 10.0883 2.56242L8.02522 1.68242C7.64889 1.52195 7.24663 1.45335 6.84796 1.45289C6.38889 1.45335 5.93257 1.54382 5.50843 1.71562C5.08483 1.88835 4.69163 2.14335 4.3785 2.49328L0.622253 6.69999C0.205925 7.16492 -0.000871967 7.75039 -1.25914e-05 8.32671C-0.000871967 9.01398 0.293191 9.70343 0.860378 10.1866L4.36428 13.176L2.7021 14.91C2.24389 15.3882 2.01577 16.0082 2.01577 16.6212C2.01491 17.2735 2.27397 17.9321 2.7871 18.417L3.12428 18.7374C3.44202 19.0388 3.82382 19.2305 4.22335 19.3328C4.02296 19.7014 3.91343 20.1055 3.91429 20.5105C3.91343 21.1632 4.17249 21.8213 4.68468 22.3068L4.68382 22.3063L5.02202 22.6281C5.50343 23.0844 6.12749 23.3117 6.74233 23.3113C7.0728 23.3118 7.40366 23.2454 7.7146 23.1154C7.82374 23.5581 8.04913 23.979 8.40366 24.3153L8.74186 24.6371C9.22327 25.0934 9.84632 25.3207 10.4622 25.3203C10.9436 25.3208 11.4272 25.1789 11.8435 24.9035C11.9653 25.2953 12.174 25.6666 12.4916 25.9684L12.8298 26.2902C13.3102 26.7466 13.9343 26.9738 14.5493 26.9734C15.2042 26.9739 15.8656 26.7166 16.3541 26.2066L17.8232 24.6726L19.8191 26.5198C20.2968 26.9629 20.91 27.1834 21.5153 27.182C22.1803 27.1834 22.8512 26.917 23.3407 26.393L23.6593 26.0516C23.9343 25.7562 24.1138 25.4066 24.218 25.0417L24.9911 25.7553C25.4697 26.1966 26.082 26.4162 26.6865 26.4157C27.3523 26.4162 28.0251 26.1498 28.5151 25.6253L28.8319 25.2844C29.1977 24.8935 29.4037 24.4094 29.4673 23.9149C29.6713 23.9672 29.8781 24.0027 30.0867 24.0027C30.7526 24.0027 31.4234 23.7367 31.9139 23.2127L32.2316 22.8718C32.6757 22.3959 32.8966 21.7855 32.8957 21.1837C32.8957 20.9969 32.8689 20.811 32.8275 20.6273C33.3798 20.5541 33.9152 20.3078 34.3224 19.8705L34.641 19.5292C35.0851 19.0533 35.3051 18.4429 35.3051 17.8406C35.3059 17.178 35.0387 16.5093 34.5115 16.0221L33.9156 15.4717L39.2936 9.52562C39.7764 8.99031 39.9991 8.30124 40 7.62265ZM4.84483 18.0676C4.55991 18.0667 4.28124 17.9648 4.0635 17.7585L3.72577 17.4381C3.4921 17.2172 3.37671 16.9232 3.37577 16.6213C3.37671 16.3382 3.47803 16.0618 3.68671 15.8441L7.09108 12.2915C7.31288 12.0601 7.60882 11.9442 7.91241 11.9438C8.19647 11.9443 8.47421 12.0466 8.69374 12.2534L9.03007 12.5742C9.03007 12.5742 9.37827 13.0891 9.37913 13.3914C9.37827 13.6177 9.31007 13.8382 9.1778 14.0291C9.16647 14.0405 5.50343 17.858 5.50343 17.858C5.30889 17.9957 5.07889 18.0666 4.84483 18.0676ZM7.56374 21.6111C7.34241 21.8416 7.04694 21.9569 6.74335 21.9579C6.45843 21.9574 6.18061 21.8552 5.96202 21.6488L5.62382 21.3274L5.62296 21.3269C5.39116 21.1069 5.27475 20.812 5.27475 20.5102C5.27475 20.227 5.37702 19.9506 5.58468 19.7329C5.58468 19.7329 10.1226 15.0091 10.1608 14.9635C10.3777 14.7549 10.6572 14.6472 10.9458 14.6467C11.2307 14.6472 11.5085 14.749 11.7271 14.9558L12.0653 15.2776C12.298 15.4976 12.4135 15.7921 12.4144 16.0944C12.4134 16.3775 12.3112 16.6543 12.1034 16.872L7.56374 21.6111ZM11.283 23.6195C11.0622 23.8505 10.7668 23.9661 10.4631 23.9669C10.1782 23.9665 9.90038 23.8642 9.68179 23.6574L9.34264 23.336C9.10999 23.1155 8.99358 22.8211 8.99358 22.5192C8.99358 22.2666 9.07952 22.0215 9.24397 21.8174L12.4043 18.5189C12.6175 18.3266 12.8847 18.2253 13.1616 18.2253C13.4465 18.2258 13.7243 18.3276 13.9429 18.5344L14.282 18.8562C14.5138 19.0762 14.6302 19.3707 14.6311 19.6725C14.6301 19.9562 14.527 20.233 14.3201 20.4502L11.283 23.6195ZM17.2879 23.2714L15.3702 25.2728C15.1493 25.5037 14.8534 25.6192 14.5498 25.6201C14.2649 25.6196 13.9871 25.5173 13.7685 25.3105L13.4303 24.9891C13.1985 24.7691 13.0821 24.4742 13.0812 24.1723C13.0821 23.8887 13.1844 23.6119 13.3922 23.3951L15.309 21.3937C15.5308 21.1629 15.8267 21.0469 16.1303 21.0465C16.4144 21.0469 16.693 21.1487 16.9116 21.356L17.2508 21.6774C17.4826 21.8974 17.598 22.1919 17.599 22.4937C17.5979 22.7773 17.4956 23.0541 17.2879 23.2714ZM33.9471 17.8424C33.9467 18.1204 33.8471 18.3927 33.6453 18.609L33.3276 18.9499C33.1058 19.1872 32.8048 19.3072 32.4967 19.3076C32.2172 19.3072 31.9435 19.209 31.7263 19.0082L26.372 14.0566L25.4462 15.0479L31.1773 20.3572C31.4159 20.5781 31.5359 20.8781 31.5376 21.1844C31.5359 21.4635 31.4372 21.7353 31.2359 21.9517L30.9191 22.2927C30.6973 22.5299 30.3963 22.6494 30.0882 22.6504C29.8087 22.6495 29.5341 22.5509 29.3187 22.3513L23.963 17.3998L23.038 18.3911L27.791 22.7864C28.0201 23.0059 28.1374 23.2982 28.1374 23.5981C28.1374 23.8763 28.0387 24.1485 27.8374 24.3644L27.5197 24.7054C27.2987 24.9426 26.9969 25.0627 26.688 25.0635C26.4075 25.0627 26.1339 24.964 25.9176 24.7644L21.1741 20.3851H21.1733L21.1724 20.3842L20.2493 21.3773L20.2502 21.3782L20.268 21.395L22.6437 23.5877C22.8542 23.804 22.9633 24.0812 22.9641 24.368C22.9633 24.6448 22.8655 24.9157 22.6641 25.1317L22.3464 25.473C22.1246 25.7103 21.8246 25.8294 21.5173 25.8303C21.2378 25.8294 20.9641 25.7312 20.7478 25.5309L18.6793 23.6155C18.8593 23.2623 18.9598 22.8791 18.9598 22.4946C18.9606 21.8423 18.7016 21.1847 18.1894 20.6988L17.8502 20.377C17.3698 19.9211 16.7466 19.6934 16.1317 19.6943C16.084 19.6943 16.0359 19.7052 15.9891 19.708C15.9891 19.6966 15.9917 19.6848 15.9917 19.6734C15.9926 19.0212 15.2213 17.8767 15.2213 17.8767L14.8831 17.5559C14.5236 17.2149 14.0849 17.0023 13.6287 16.9168C13.7227 16.6505 13.7759 16.3732 13.7759 16.0955C13.7759 15.4432 13.5177 14.785 13.0055 14.2997L12.6673 13.9779C12.1859 13.5216 11.5629 13.2938 10.9479 13.2943C10.8761 13.2943 10.8052 13.3088 10.7338 13.3152C10.7143 12.6889 10.462 12.063 9.97116 11.5967V11.5962L9.6339 11.2759C9.15249 10.8191 8.52944 10.5913 7.91444 10.5918C7.2585 10.5913 6.59811 10.8486 6.1096 11.3586L5.306 12.1972L1.74616 9.16093C1.4903 8.94187 1.36257 8.63913 1.36163 8.32827C1.36249 8.06781 1.45116 7.81281 1.64022 7.60109L5.39639 3.39445C5.54546 3.22718 5.76593 3.07585 6.02413 2.97078C6.28233 2.86578 6.57546 2.80812 6.84952 2.80851C7.08819 2.80851 7.31218 2.85171 7.49132 2.92898L9.5535 3.8089C10.1348 4.0539 10.8098 4.15437 11.488 4.15656C12.1671 4.15429 12.8412 4.05382 13.4226 3.8089L15.4838 2.92937C15.8016 2.79078 16.281 2.70484 16.7578 2.70663C17.2851 2.70343 17.8132 2.81257 18.1195 2.9689C18.3141 3.0657 18.4986 3.15757 18.6699 3.24343L16.5677 4.72117C15.8923 5.19617 15.5282 5.95156 15.5291 6.71382C15.5283 7.21835 15.6882 7.73195 16.0137 8.16781L16.0128 8.16687L16.2905 8.53999C16.8177 9.24093 17.6399 9.60132 18.4617 9.60312C18.9258 9.60312 19.3985 9.48585 19.8198 9.23312L21.077 8.47812C21.3334 8.32132 21.7206 8.22226 22.121 8.22406C22.5915 8.22132 23.0655 8.36046 23.3505 8.56992L26.8286 11.0634C27.6026 11.618 28.8634 12.6466 29.5621 13.2938L33.5878 17.0159C33.8262 17.2369 33.9462 17.5356 33.9471 17.8424ZM38.2842 8.62078L32.9212 14.5509L30.4863 12.3002C29.7237 11.5961 28.466 10.5694 27.6224 9.96343L24.1453 7.46992C23.5558 7.05226 22.834 6.87171 22.1204 6.86906C21.5131 6.87085 20.9013 7.0032 20.3732 7.31765L19.1169 8.07265C18.9242 8.18851 18.697 8.24765 18.461 8.24812C18.0391 8.24953 17.6169 8.05265 17.3816 7.73218L17.1048 7.35953L17.1038 7.35859C16.9566 7.15999 16.888 6.93726 16.8869 6.71179C16.8887 6.37085 17.046 6.03999 17.3506 5.82499L21.0677 3.21328C21.3891 2.98062 21.9609 2.81742 22.5041 2.82148C22.8813 2.81968 23.2417 2.89554 23.4885 3.01742L26.5147 4.48328C27.0306 4.73101 27.6129 4.83234 28.1987 4.83374C28.9513 4.83007 29.7122 4.66648 30.3391 4.28148L33.4303 2.35843C33.6276 2.23531 33.8644 2.17163 34.1112 2.17163C34.5285 2.17078 34.9466 2.35984 35.1834 2.66843L38.3528 6.72374C38.5355 6.95601 38.6414 7.28367 38.6414 7.62328C38.6419 8.00304 38.5078 8.37671 38.2842 8.62078Z" fill="url(#paint0_linear_218_26381)"/>
<defs>
<linearGradient id="paint0_linear_218_26381" x1="7.61705" y1="0.817963" x2="11.4914" y2="27.1566" gradientUnits="userSpaceOnUse">
<stop stop-color="#268AFF"/>
<stop offset="1" stop-color="#78CAD2"/>
</linearGradient>
</defs>
</svg>
