<svg width="30" height="40" viewBox="0 0 30 40" fill="none" xmlns="http://www.w3.org/2000/svg">
<path d="M29.2055 0H0.794556C0.470884 0 0.208618 0.262344 0.208618 0.585938V28.4188C0.208618 28.7423 0.470884 29.0047 0.794556 29.0047C1.11823 29.0047 1.38049 28.7423 1.38049 28.4188V1.17188H28.6196V4.85547C28.6196 5.17906 28.8818 5.44141 29.2055 5.44141C29.5292 5.44141 29.7914 5.17906 29.7914 4.85547V0.585938C29.7914 0.262344 29.5292 0 29.2055 0V0Z" fill="url(#paint0_linear_218_17700)"/>
<path d="M29.2055 7.00391C28.8818 7.00391 28.6196 7.26625 28.6196 7.58984V38.8281H1.38049V31.1531C1.38049 30.8295 1.11823 30.5672 0.794556 30.5672C0.470884 30.5672 0.208618 30.8295 0.208618 31.1531V39.4141C0.208618 39.7377 0.470884 40 0.794556 40H29.2055C29.5292 40 29.7914 39.7377 29.7914 39.4141V7.58984C29.7914 7.26625 29.5292 7.00391 29.2055 7.00391Z" fill="url(#paint1_linear_218_17700)"/>
<path d="M2.73413 12.187C2.73413 14.6859 4.7671 16.7189 7.26601 16.7189C9.76491 16.7189 11.7979 14.6859 11.7979 12.187C11.7979 9.68812 9.76491 7.65515 7.26601 7.65515C4.7671 7.65515 2.73413 9.68812 2.73413 12.187ZM7.26601 15.547C5.41327 15.547 3.90601 14.0398 3.90601 12.187C3.90601 10.5342 5.10585 9.15734 6.68007 8.87921V12.187C6.68007 12.5106 6.94233 12.773 7.26601 12.773H10.5738C10.2956 14.3472 8.91882 15.547 7.26601 15.547ZM10.5738 11.6011H7.85194V8.87921C9.23569 9.12375 10.3293 10.2173 10.5738 11.6011Z" fill="url(#paint2_linear_218_17700)"/>
<path d="M3.63562 33.7773C3.31195 33.7773 3.04968 34.0397 3.04968 34.3633V36.8887C3.04968 37.2123 3.31195 37.4746 3.63562 37.4746H7.42375C7.74742 37.4746 8.00968 37.2123 8.00968 36.8887V34.3633C8.00968 34.0397 7.74742 33.7773 7.42375 33.7773H3.63562ZM6.83781 36.3027H4.22156V34.9492H6.83781V36.3027Z" fill="url(#paint3_linear_218_17700)"/>
<path d="M9.94922 37.4746H13.7373C14.0609 37.4746 14.3232 37.2123 14.3232 36.8887V30.5752C14.3232 30.2516 14.0609 29.9892 13.7373 29.9892H9.94922C9.62555 29.9892 9.36328 30.2516 9.36328 30.5752V36.8887C9.36328 37.2123 9.62555 37.4746 9.94922 37.4746ZM10.5352 31.1611H13.1513V36.3027H10.5352V31.1611Z" fill="url(#paint4_linear_218_17700)"/>
<path d="M16.2628 25.2541C15.9391 25.2541 15.6769 25.5164 15.6769 25.84V36.8887C15.6769 37.2123 15.9391 37.4746 16.2628 37.4746H20.0509C20.3745 37.4746 20.6368 37.2123 20.6368 36.8887V25.84C20.6368 25.5164 20.3745 25.2541 20.0509 25.2541H16.2628ZM19.4649 36.3027H16.8488V26.4259H19.4649V36.3027Z" fill="url(#paint5_linear_218_17700)"/>
<path d="M26.3642 25.3359C26.6878 25.3359 26.9501 25.0736 26.9501 24.75V22.6836C26.9501 22.36 26.6878 22.0977 26.3642 22.0977H22.5767C22.253 22.0977 21.9907 22.36 21.9907 22.6836V36.8883C21.9907 37.2119 22.253 37.4742 22.5767 37.4742H26.3641C26.6878 37.4742 26.95 37.2119 26.95 36.8883V27.4844C26.95 27.1608 26.6878 26.8984 26.3641 26.8984C26.0404 26.8984 25.7781 27.1608 25.7781 27.4844V36.3023H23.1626V23.2695H25.7781V24.75C25.7782 25.0736 26.0405 25.3359 26.3642 25.3359Z" fill="url(#paint6_linear_218_17700)"/>
<path d="M21.3136 2.52539H8.68652C8.36285 2.52539 8.10059 2.78773 8.10059 3.11133V5.63672C8.10059 5.96031 8.36285 6.22266 8.68652 6.22266H21.3136C21.6373 6.22266 21.8996 5.96031 21.8996 5.63672V3.11133C21.8995 2.78773 21.6372 2.52539 21.3136 2.52539ZM20.7276 5.05078H9.27246V3.69727H20.7277V5.05078H20.7276Z" fill="url(#paint7_linear_218_17700)"/>
<path d="M26.68 7.65515H15C14.6763 7.65515 14.4141 7.9175 14.4141 8.24109C14.4141 8.56468 14.6763 8.82703 15 8.82703H26.68C27.0037 8.82703 27.2659 8.56468 27.2659 8.24109C27.2659 7.9175 27.0036 7.65515 26.68 7.65515Z" fill="url(#paint8_linear_218_17700)"/>
<path d="M26.68 10.2858H15C14.6763 10.2858 14.4141 10.5481 14.4141 10.8717C14.4141 11.1953 14.6763 11.4577 15 11.4577H26.68C27.0037 11.4577 27.2659 11.1953 27.2659 10.8717C27.2659 10.5481 27.0036 10.2858 26.68 10.2858Z" fill="url(#paint9_linear_218_17700)"/>
<path d="M27.2659 13.5023C27.2659 13.1788 27.0037 12.9164 26.68 12.9164H15C14.6763 12.9164 14.4141 13.1788 14.4141 13.5023C14.4141 13.8259 14.6763 14.0883 15 14.0883H26.68C27.0036 14.0883 27.2659 13.8259 27.2659 13.5023Z" fill="url(#paint10_linear_218_17700)"/>
<path d="M22.5309 16.133C22.5309 15.8094 22.2686 15.547 21.9449 15.547H15C14.6763 15.547 14.4141 15.8094 14.4141 16.133C14.4141 16.4566 14.6763 16.7189 15 16.7189H21.9449C22.2685 16.7189 22.5309 16.4566 22.5309 16.133Z" fill="url(#paint11_linear_218_17700)"/>
<path d="M15 19.4141H4.34595C4.02228 19.4141 3.76001 19.6764 3.76001 20C3.76001 20.3236 4.02228 20.5859 4.34595 20.5859H15C15.3237 20.5859 15.586 20.3236 15.586 20C15.586 19.6764 15.3237 19.4141 15 19.4141Z" fill="url(#paint12_linear_218_17700)"/>
<path d="M15.586 22.6306C15.586 22.307 15.3237 22.0447 15 22.0447H4.34595C4.02228 22.0447 3.76001 22.307 3.76001 22.6306C3.76001 22.9542 4.02228 23.2166 4.34595 23.2166H15C15.3237 23.2166 15.586 22.9542 15.586 22.6306Z" fill="url(#paint13_linear_218_17700)"/>
<path d="M10.8509 25.2612C10.8509 24.9377 10.5886 24.6753 10.2649 24.6753H4.34595C4.02228 24.6753 3.76001 24.9377 3.76001 25.2612C3.76001 25.5848 4.02228 25.8472 4.34595 25.8472H10.2649C10.5885 25.8472 10.8509 25.5848 10.8509 25.2612Z" fill="url(#paint14_linear_218_17700)"/>
<defs>
<linearGradient id="paint0_linear_218_17700" x1="5.84198" y1="5.80486e-08" x2="12.0238" y2="28.251" gradientUnits="userSpaceOnUse">
<stop stop-color="#268AFF"/>
<stop offset="1" stop-color="#78CAD2"/>
</linearGradient>
<linearGradient id="paint1_linear_218_17700" x1="5.84198" y1="7.00391" x2="13.7362" y2="38.7164" gradientUnits="userSpaceOnUse">
<stop stop-color="#268AFF"/>
<stop offset="1" stop-color="#78CAD2"/>
</linearGradient>
<linearGradient id="paint2_linear_218_17700" x1="4.46011" y1="7.65515" x2="6.42678" y2="16.4672" gradientUnits="userSpaceOnUse">
<stop stop-color="#268AFF"/>
<stop offset="1" stop-color="#78CAD2"/>
</linearGradient>
<linearGradient id="paint3_linear_218_17700" x1="3.9942" y1="33.7773" x2="4.60508" y2="37.4493" gradientUnits="userSpaceOnUse">
<stop stop-color="#268AFF"/>
<stop offset="1" stop-color="#78CAD2"/>
</linearGradient>
<linearGradient id="paint4_linear_218_17700" x1="10.3078" y1="29.9892" x2="12.6189" y2="36.8508" gradientUnits="userSpaceOnUse">
<stop stop-color="#268AFF"/>
<stop offset="1" stop-color="#78CAD2"/>
</linearGradient>
<linearGradient id="paint5_linear_218_17700" x1="16.6214" y1="25.2541" x2="21.8877" y2="34.8311" gradientUnits="userSpaceOnUse">
<stop stop-color="#268AFF"/>
<stop offset="1" stop-color="#78CAD2"/>
</linearGradient>
<linearGradient id="paint6_linear_218_17700" x1="22.9351" y1="22.0977" x2="30.2787" y2="32.7102" gradientUnits="userSpaceOnUse">
<stop stop-color="#268AFF"/>
<stop offset="1" stop-color="#78CAD2"/>
</linearGradient>
<linearGradient id="paint7_linear_218_17700" x1="10.7283" y1="2.52539" x2="10.9531" y2="6.28557" gradientUnits="userSpaceOnUse">
<stop stop-color="#268AFF"/>
<stop offset="1" stop-color="#78CAD2"/>
</linearGradient>
<linearGradient id="paint8_linear_218_17700" x1="16.8614" y1="7.65515" x2="16.8857" y2="8.85073" gradientUnits="userSpaceOnUse">
<stop stop-color="#268AFF"/>
<stop offset="1" stop-color="#78CAD2"/>
</linearGradient>
<linearGradient id="paint9_linear_218_17700" x1="16.8614" y1="10.2858" x2="16.8857" y2="11.4814" gradientUnits="userSpaceOnUse">
<stop stop-color="#268AFF"/>
<stop offset="1" stop-color="#78CAD2"/>
</linearGradient>
<linearGradient id="paint10_linear_218_17700" x1="16.8614" y1="12.9164" x2="16.8857" y2="14.112" gradientUnits="userSpaceOnUse">
<stop stop-color="#268AFF"/>
<stop offset="1" stop-color="#78CAD2"/>
</linearGradient>
<linearGradient id="paint11_linear_218_17700" x1="15.9597" y1="15.547" x2="15.9982" y2="16.7419" gradientUnits="userSpaceOnUse">
<stop stop-color="#268AFF"/>
<stop offset="1" stop-color="#78CAD2"/>
</linearGradient>
<linearGradient id="paint12_linear_218_17700" x1="6.01198" y1="19.4141" x2="6.03842" y2="20.6096" gradientUnits="userSpaceOnUse">
<stop stop-color="#268AFF"/>
<stop offset="1" stop-color="#78CAD2"/>
</linearGradient>
<linearGradient id="paint13_linear_218_17700" x1="6.01198" y1="22.0447" x2="6.03842" y2="23.2402" gradientUnits="userSpaceOnUse">
<stop stop-color="#268AFF"/>
<stop offset="1" stop-color="#78CAD2"/>
</linearGradient>
<linearGradient id="paint14_linear_218_17700" x1="5.1103" y1="24.6753" x2="5.15435" y2="25.8698" gradientUnits="userSpaceOnUse">
<stop stop-color="#268AFF"/>
<stop offset="1" stop-color="#78CAD2"/>
</linearGradient>
</defs>
</svg>
