<svg width="40" height="40" viewBox="0 0 40 40" fill="none" xmlns="http://www.w3.org/2000/svg">
<g clip-path="url(#clip0_218_26301)">
<path d="M38 20H37.3334V4H38C39.1045 4 40 3.10453 40 2C40 0.895469 39.1046 0 38 0H2C0.895391 0 0 0.895391 0 2C0 3.10461 0.895391 4 2 4H2.66664V20H2C0.895391 20 0 20.8955 0 22C0 23.1045 0.895391 24 2 24H38C39.1045 24 40 23.1045 40 22C40 20.8955 39.1046 20 38 20ZM2 2.66664C1.63203 2.66617 1.33383 2.36797 1.33336 2C1.33383 1.63203 1.63203 1.33383 2 1.33336H38C38.3682 1.33336 38.6666 1.6318 38.6666 2C38.6666 2.3682 38.3682 2.66664 38 2.66664H2ZM36 4V20H4V4H36ZM38 22.6666H2C1.6318 22.6666 1.33336 22.3682 1.33336 22C1.33336 21.6318 1.6318 21.3334 2 21.3334H38C38.368 21.3338 38.6662 21.632 38.6666 22C38.6662 22.368 38.368 22.6662 38 22.6666Z" fill="url(#paint0_linear_218_26301)"/>
<path d="M11.3333 15.2887C11.7015 15.2887 12 14.9902 12 14.6221V11.3583L14 12.2082V16.1865L14.0015 16.1937C14.0022 16.2784 14.0192 16.3622 14.0513 16.4404C14.0972 16.5123 14.1442 16.5833 14.1925 16.6537C14.254 16.7165 14.3274 16.7666 14.4083 16.801L17.7233 18.2086C19.1805 18.822 20.8236 18.8214 22.2803 18.2069L25.5917 16.8009C25.6726 16.7665 25.7461 16.7165 25.8076 16.6536C25.8558 16.5833 25.9029 16.5122 25.9487 16.4404C25.9809 16.362 25.9978 16.2783 25.9986 16.1937L26 16.1864V12.2081L28.6403 11.0861C29.0629 10.8897 29.3333 10.4659 29.3333 9.99983C29.3333 9.53373 29.0629 9.10998 28.6403 8.91358L20.4137 5.41788C20.1494 5.3046 19.8502 5.3046 19.5859 5.41788L11.3597 8.91358C10.9315 9.10373 10.6586 9.53147 10.6666 9.99983V14.6219C10.6667 14.9902 10.9651 15.2887 11.3333 15.2887ZM24.6666 15.7454L21.7629 16.9782C20.6368 17.4526 19.367 17.4533 18.2404 16.9798L15.3332 15.7454V12.7748L19.5861 14.582C19.8504 14.6953 20.1497 14.6953 20.414 14.582L24.6665 12.7748V15.7454H24.6666ZM20 6.69069L27.7871 9.99998L25.0769 11.1517L25.0711 11.1542L20 13.3092L14.9289 11.1542L14.923 11.1517L12.2129 9.99998L20 6.69069Z" fill="url(#paint1_linear_218_26301)"/>
<path d="M38.6666 36H37.3333V35.1429C37.3162 33.455 36.3476 31.9214 34.8309 31.1807C35.8927 30.2742 36.2772 28.802 35.7941 27.4921C35.311 26.1822 34.0627 25.3121 32.6666 25.3121C31.2704 25.3121 30.0221 26.1822 29.5391 27.4921C29.056 28.802 29.4404 30.2742 30.5023 31.1807C28.9855 31.9215 28.017 33.455 27.9998 35.1429V36H24.6665V35.1429C24.6494 33.455 23.6808 31.9214 22.1641 31.1807C23.2259 30.2742 23.6104 28.802 23.1273 27.4921C22.6442 26.1822 21.3959 25.3121 19.9998 25.3121C18.6036 25.3121 17.3553 26.1822 16.8723 27.4921C16.3892 28.802 16.7736 30.2742 17.8355 31.1807C16.3188 31.9215 15.3502 33.455 15.333 35.1429V36H12V35.1429C11.9829 33.455 11.0143 31.9214 9.49758 31.1807C10.5595 30.2742 10.9439 28.802 10.4608 27.4921C9.97773 26.1822 8.72945 25.3121 7.33328 25.3121C5.93711 25.3121 4.68883 26.1822 4.20578 27.4921C3.72273 28.802 4.10711 30.2742 5.16898 31.1807C3.65227 31.9215 2.68367 33.455 2.66656 35.1429V36H1.33336C0.597266 36.0007 0.000703125 36.5973 0 37.3334V38.6667C0.000703125 39.4028 0.597266 39.9993 1.33336 40.0001H38.6667C39.4028 39.9994 39.9993 39.4028 40.0001 38.6667V37.3334C39.9993 36.5973 39.4027 36.0007 38.6666 36ZM32.6666 26.6666C33.7712 26.6666 34.6666 27.562 34.6666 28.6666C34.6666 29.7712 33.7712 30.6666 32.6666 30.6666C31.5626 30.6655 30.6678 29.7707 30.6666 28.6666C30.6666 27.5621 31.5621 26.6666 32.6666 26.6666ZM29.3334 35.1429C29.4372 33.378 30.8988 31.9999 32.6667 31.9999C34.4347 31.9999 35.8962 33.378 36.0001 35.1429V36H29.3334V35.1429H29.3334ZM20 26.6666C21.1045 26.6666 22 27.562 22 28.6666C22 29.7712 21.1045 30.6666 20 30.6666C18.8959 30.6655 18.0012 29.7707 18 28.6666C18 27.5621 18.8955 26.6666 20 26.6666ZM16.6666 35.1429C16.7705 33.378 18.232 31.9999 20 31.9999C21.768 31.9999 23.2295 33.378 23.3334 35.1429V36H16.6667V35.1429H16.6666ZM7.33336 26.6666C8.43789 26.6666 9.33336 27.562 9.33336 28.6666C9.33336 29.7712 8.43797 30.6666 7.33336 30.6666C6.2293 30.6655 5.33453 29.7707 5.33336 28.6666C5.33336 27.5621 6.22875 26.6666 7.33336 26.6666ZM4 35.1429C4.05609 33.3561 5.54633 31.951 7.33336 32C9.12031 31.951 10.6105 33.3561 10.6667 35.1429V36H4V35.1429ZM1.33336 38.6666V37.3333H38.6667L38.6677 38.6666H1.33336Z" fill="url(#paint2_linear_218_26301)"/>
</g>
<defs>
<linearGradient id="paint0_linear_218_26301" x1="7.61706" y1="4.80324e-08" x2="10.8395" y2="24.0642" gradientUnits="userSpaceOnUse">
<stop stop-color="#268AFF"/>
<stop offset="1" stop-color="#78CAD2"/>
</linearGradient>
<linearGradient id="paint1_linear_218_26301" x1="14.2211" y1="5.33292" x2="16.3374" y2="18.6062" gradientUnits="userSpaceOnUse">
<stop stop-color="#268AFF"/>
<stop offset="1" stop-color="#78CAD2"/>
</linearGradient>
<linearGradient id="paint2_linear_218_26301" x1="7.61708" y1="25.3121" x2="8.83744" y2="40.2034" gradientUnits="userSpaceOnUse">
<stop stop-color="#268AFF"/>
<stop offset="1" stop-color="#78CAD2"/>
</linearGradient>
<clipPath id="clip0_218_26301">
<rect width="40" height="40" fill="white"/>
</clipPath>
</defs>
</svg>
