<svg width="540" height="392" viewBox="0 0 540 392" fill="none" xmlns="http://www.w3.org/2000/svg">
<g clip-path="url(#clip0_307_27239)">
<path d="M536.708 344.115H0V344.378H536.708V344.115Z" fill="#EBEBEB"/>
<path d="M482.93 361.026H447.378V361.289H482.93V361.026Z" fill="#EBEBEB"/>
<path d="M355.537 363.885H346.209V364.148H355.537V363.885Z" fill="#EBEBEB"/>
<path d="M446.305 351.272H425.706V351.535H446.305V351.272Z" fill="#EBEBEB"/>
<path d="M102.672 353.038H56.3114V353.301H102.672V353.038Z" fill="#EBEBEB"/>
<path d="M119.031 353.038H112.236V353.301H119.031V353.038Z" fill="#EBEBEB"/>
<path d="M241.68 357.473H141.122V357.736H241.68V357.473Z" fill="#EBEBEB"/>
<path d="M254.399 297.238H47.1337C45.51 297.235 43.9537 296.601 42.8066 295.476C41.6595 294.351 41.0152 292.826 41.0152 291.236V5.94896C41.0293 4.3682 41.6798 2.85674 42.8255 1.74287C43.9711 0.629011 45.5192 0.00270792 47.1337 0H254.399C256.025 0 257.584 0.6323 258.733 1.7578C259.883 2.8833 260.529 4.40981 260.529 6.00151V291.236C260.529 292.828 259.883 294.354 258.733 295.48C257.584 296.605 256.025 297.238 254.399 297.238ZM47.1337 0.210211C45.5811 0.212996 44.0932 0.818838 42.9964 1.89476C41.8996 2.97068 41.2835 4.42877 41.2836 5.94896V291.236C41.2835 292.756 41.8996 294.214 42.9964 295.29C44.0932 296.366 45.5811 296.972 47.1337 296.975H254.399C255.953 296.972 257.442 296.367 258.541 295.291C259.639 294.215 260.257 292.757 260.26 291.236V5.94896C260.257 4.4278 259.639 2.96974 258.541 1.89412C257.442 0.818497 255.953 0.21299 254.399 0.210211H47.1337Z" fill="#EBEBEB"/>
<path d="M486.59 297.238H279.313C277.689 297.235 276.131 296.602 274.983 295.477C273.834 294.352 273.187 292.827 273.184 291.236V5.94896C273.201 4.36724 273.854 2.85579 275.001 1.74222C276.149 0.628644 277.698 0.00267839 279.313 0H486.59C488.202 0.0054702 489.748 0.632995 490.891 1.74656C492.035 2.86013 492.684 4.37002 492.698 5.94896V291.236C492.698 292.824 492.055 294.348 490.91 295.472C489.765 296.597 488.212 297.232 486.59 297.238ZM279.313 0.210211C277.76 0.21299 276.271 0.818497 275.172 1.89412C274.074 2.96974 273.455 4.4278 273.453 5.94896V291.236C273.455 292.757 274.074 294.215 275.172 295.291C276.271 296.367 277.76 296.972 279.313 296.975H486.59C488.143 296.972 489.633 296.367 490.731 295.291C491.83 294.215 492.448 292.757 492.451 291.236V5.94896C492.448 4.4278 491.83 2.96974 490.731 1.89412C489.633 0.818497 488.143 0.21299 486.59 0.210211H279.313Z" fill="#EBEBEB"/>
<path d="M221.585 258.023H148.861V334.666H221.585V258.023Z" fill="#E6E6E6"/>
<path d="M232.695 252.326H223.55V344.619H232.695V252.326Z" fill="#E6E6E6"/>
<path d="M166.401 264.056H160.443V292.697H166.401V264.056Z" fill="#FAFAFA"/>
<path d="M191.1 264.056H185.143V292.697H191.1V264.056Z" fill="#F5F5F5"/>
<path d="M172.358 266.074H166.401V292.697H172.358V266.074Z" fill="#F5F5F5"/>
<path d="M185.143 266.074H179.185V292.697H185.143V266.074Z" fill="#FAFAFA"/>
<path d="M179.185 264.056H175.332V292.697H179.185V264.056Z" fill="#EBEBEB"/>
<path d="M175.342 266.074H172.358V292.697H175.342V266.074Z" fill="#FAFAFA"/>
<path d="M197.058 264.056H191.1V292.697H197.058V264.056Z" fill="#EBEBEB"/>
<path d="M203.015 266.074H197.058V292.697H203.015V266.074Z" fill="#E6E6E6"/>
<path d="M215.81 266.074H209.853V292.697H215.81V266.074Z" fill="#E6E6E6"/>
<path d="M209.853 264.056H205.999V292.697H209.853V264.056Z" fill="#FAFAFA"/>
<path d="M205.999 266.074H203.015V292.697H205.999V266.074Z" fill="#EBEBEB"/>
<path d="M218.794 264.739H215.81V292.697H218.794V264.739Z" fill="#FAFAFA"/>
<path d="M212.826 331.082H218.783V302.441H212.826V331.082Z" fill="#FAFAFA"/>
<path d="M188.116 331.082H194.073V302.441H188.116V331.082Z" fill="#FAFAFA"/>
<path d="M206.869 331.092H212.826V304.469H206.869V331.092Z" fill="#F0F0F0"/>
<path d="M194.084 331.092H200.042V304.469H194.084V331.092Z" fill="#EBEBEB"/>
<path d="M200.031 331.082H203.884V302.441H200.031V331.082Z" fill="#FAFAFA"/>
<path d="M203.884 331.092H206.869V304.469H203.884V331.092Z" fill="#F5F5F5"/>
<path d="M182.159 331.082H188.116V302.441H182.159V331.082Z" fill="#EBEBEB"/>
<path d="M176.212 331.092H182.169V304.469H176.212V331.092Z" fill="#F5F5F5"/>
<path d="M163.417 331.092H169.374V304.469H163.417V331.092Z" fill="#E6E6E6"/>
<path d="M169.374 331.082H173.228V302.441H169.374V331.082Z" fill="#FAFAFA"/>
<path d="M156.59 331.082H160.443V302.441H156.59V331.082Z" fill="#FAFAFA"/>
<path d="M173.217 331.092H176.201V304.469H173.217V331.092Z" fill="#EBEBEB"/>
<path d="M160.433 331.092H163.417V303.134H160.433V331.092Z" fill="#F0F0F0"/>
<path d="M221.22 252.326H146.564V339.49H218.783V344.661H223.657V252.379L221.22 252.326ZM218.783 331.082H151.158V297.511H218.783V331.082ZM218.783 292.718H151.158V260.661H218.783V292.718Z" fill="#F0F0F0"/>
<path d="M76.0193 334.676H148.743V258.034H76.0193L76.0193 334.676Z" fill="#E6E6E6"/>
<path d="M78.8209 344.619H87.9663V338.513H78.8209V344.619Z" fill="#E6E6E6"/>
<path d="M140.338 292.708H146.296V264.067H140.338V292.708Z" fill="#FAFAFA"/>
<path d="M115.639 292.708H121.596V264.067H115.639V292.708Z" fill="#F5F5F5"/>
<path d="M134.381 292.697H140.338V266.074H134.381V292.697Z" fill="#F5F5F5"/>
<path d="M121.596 292.697H127.554V266.074H121.596V292.697Z" fill="#FAFAFA"/>
<path d="M127.554 292.708H131.407V264.067H127.554V292.708Z" fill="#EBEBEB"/>
<path d="M131.397 292.697H134.381V266.074H131.397V292.697Z" fill="#FAFAFA"/>
<path d="M113.6 292.708H119.557V264.067H113.6V292.708Z" fill="#EBEBEB"/>
<path d="M107.642 292.697H113.6V266.074H107.642V292.697Z" fill="#E6E6E6"/>
<path d="M94.847 292.697H100.804V266.074H94.847V292.697Z" fill="#E6E6E6"/>
<path d="M100.804 292.708H104.658V264.067H100.804V292.708Z" fill="#FAFAFA"/>
<path d="M104.658 292.697H107.642V266.074H104.658V292.697Z" fill="#EBEBEB"/>
<path d="M91.8736 292.697H94.8577V264.739H91.8736V292.697Z" fill="#F5F5F5"/>
<path d="M95.0294 302.451H89.0719V331.092H95.0294V302.451Z" fill="#FAFAFA"/>
<path d="M119.74 302.451H113.782V331.092H119.74V302.451Z" fill="#FAFAFA"/>
<path d="M100.998 304.458H95.0402V331.082H100.998V304.458Z" fill="#F5F5F5"/>
<path d="M113.782 304.458H107.825V331.082H113.782V304.458Z" fill="#EBEBEB"/>
<path d="M107.825 302.451H103.971V331.092H107.825V302.451Z" fill="#FAFAFA"/>
<path d="M103.982 304.458H100.998V331.082H103.982V304.458Z" fill="#F5F5F5"/>
<path d="M121.768 302.451H115.811V331.092H121.768V302.451Z" fill="#EBEBEB"/>
<path d="M127.726 304.458H121.768V331.082H127.726V304.458Z" fill="#F5F5F5"/>
<path d="M140.521 304.458H134.563V331.082H140.521V304.458Z" fill="#E6E6E6"/>
<path d="M134.563 302.451H130.71V331.092H134.563V302.451Z" fill="#FAFAFA"/>
<path d="M146.564 302.451H142.711V331.092H146.564V302.451Z" fill="#FAFAFA"/>
<path d="M130.71 304.458H127.726V331.082H130.71V304.458Z" fill="#EBEBEB"/>
<path d="M143.505 303.124H140.521V331.082H143.505V303.124Z" fill="#EBEBEB"/>
<path d="M73.9584 252.326V344.609H78.8317V339.49H151.051V252.326H73.9584ZM78.8317 297.521H146.457V331.082H78.8317V297.521ZM78.8317 260.735H146.457V292.781H78.8317V260.735Z" fill="#F0F0F0"/>
<path d="M79.1858 188.685L232.824 188.685L232.824 33.2344L79.1858 33.2344L79.1858 188.685Z" fill="#EBEBEB"/>
<path d="M73.8188 188.685L227.457 188.685L227.457 33.2344L73.8188 33.2344L73.8188 188.685Z" fill="#F0F0F0"/>
<path d="M223.582 36.9236H77.887V185.069H223.582V36.9236Z" fill="#E0E0E0"/>
<path d="M223.582 36.9236H81.5258V185.069H223.582V36.9236Z" fill="#F5F5F5"/>
<path d="M151.083 185.069H153.971L153.971 36.9235H151.083L151.083 185.069Z" fill="#EBEBEB"/>
<path d="M134.531 36.9236L94.0419 185.069H90.1562L130.645 36.9236H134.531Z" fill="white"/>
<path d="M149.86 187.907H152.328L152.328 34.6322H149.86L149.86 187.907Z" fill="#F0F0F0"/>
<path d="M119.836 36.9236L81.5258 177.124V100.06L98.7756 36.9236H119.836Z" fill="white"/>
<path d="M223.582 50.3665V64.5872L190.649 185.069H186.764L223.582 50.3665Z" fill="white"/>
<path d="M223.582 79.0815V156.145L215.681 185.07H194.621L223.582 79.0815Z" fill="white"/>
<path d="M401.044 73.1833C412.843 70.4565 420.151 58.8801 417.366 47.3267C414.581 35.7733 402.759 28.618 390.959 31.3448C379.16 34.0717 371.853 45.6481 374.637 57.2015C377.422 68.7549 389.245 75.9102 401.044 73.1833Z" fill="#E0E0E0"/>
<path d="M409.2 65.1675C416.49 58.0296 416.49 46.4567 409.2 39.3188C401.911 32.1809 390.092 32.1809 382.802 39.3188C375.512 46.4567 375.512 58.0296 382.802 65.1675C390.092 72.3054 401.911 72.3054 409.2 65.1675Z" fill="#F0F0F0"/>
<path d="M395.124 64.7869V52.0061L386.473 56.7989" fill="#F0F0F0"/>
<path d="M395.124 65.838C394.839 65.838 394.566 65.7273 394.365 65.5302C394.164 65.333 394.051 65.0657 394.051 64.787V53.814L387.009 57.7134C386.762 57.8528 386.467 57.8901 386.192 57.8171C385.916 57.7442 385.681 57.567 385.539 57.3245C385.396 57.082 385.358 56.794 385.433 56.524C385.507 56.2539 385.688 56.0239 385.936 55.8845L394.587 51.0917C394.751 50.9995 394.936 50.9509 395.124 50.9509C395.313 50.9509 395.498 50.9995 395.661 51.0917C395.823 51.1834 395.958 51.3151 396.052 51.4737C396.146 51.6323 396.196 51.8122 396.198 51.9956V64.7764C396.199 64.9153 396.172 65.0532 396.119 65.1819C396.066 65.3106 395.987 65.4277 395.887 65.5265C395.787 65.6252 395.668 65.7035 395.537 65.757C395.406 65.8105 395.266 65.838 395.124 65.838Z" fill="#E0E0E0"/>
<path d="M465.154 113.293H326.855V118.822H465.154V113.293Z" fill="#E0E0E0"/>
<path d="M339.317 92.9131H333.22V113.293H339.317V92.9131Z" fill="#EBEBEB"/>
<path d="M368.783 92.9131H362.686V113.293H368.783V92.9131Z" fill="#EBEBEB"/>
<path d="M406.663 112.494L400.663 113.293L396.219 93.218L402.219 92.4087L406.663 112.494Z" fill="#EBEBEB"/>
<path d="M346.874 95.6038H340.777V113.293H346.874V95.6038Z" fill="#EBEBEB"/>
<path d="M360.871 95.6038H354.774V113.293H360.871V95.6038Z" fill="#EBEBEB"/>
<path d="M396.219 95.6038H390.122V113.293H396.219V95.6038Z" fill="#EBEBEB"/>
<path d="M381.706 112.263L375.76 113.293L370.833 96.0242L376.779 94.9941L381.706 112.263Z" fill="#EBEBEB"/>
<path d="M352.134 91.9041H349.085V113.293H352.134V91.9041Z" fill="#EBEBEB"/>
<path d="M388.372 91.9041H385.324V113.293H388.372V91.9041Z" fill="#EBEBEB"/>
<path d="M451.886 97.1699H422.196V113.114H451.886V97.1699Z" fill="#EBEBEB"/>
<path d="M298.234 391.936C429.939 391.936 536.708 386.499 536.708 379.792C536.708 373.085 429.939 367.647 298.234 367.647C166.528 367.647 59.7595 373.085 59.7595 379.792C59.7595 386.499 166.528 391.936 298.234 391.936Z" fill="#F5F5F5"/>
<path d="M87.2258 326.698C87.2258 326.698 80.5921 328.117 77.7583 326.698C74.9245 325.28 75.9871 304.626 73.0889 304.227C66.4337 303.239 67.5716 330.65 70.4054 336.421C73.2392 342.191 87.8269 339.742 87.8269 339.742L87.2258 326.698Z" fill="#44A1A0"/>
<path opacity="0.2" d="M87.2258 326.698C87.2258 326.698 80.5921 328.117 77.7583 326.698C74.9245 325.28 75.9871 304.626 73.0889 304.227C66.4337 303.239 67.5716 330.65 70.4054 336.421C73.2392 342.191 87.8269 339.742 87.8269 339.742L87.2258 326.698Z" fill="white"/>
<path d="M87.7733 364.789C87.7733 364.789 77.9516 273.2 89.6732 271.592C101.395 269.984 104.229 270.982 99.6989 363.033L87.7733 364.789Z" fill="#44A1A0"/>
<path opacity="0.3" d="M87.7733 364.789C87.7733 364.789 77.9516 273.2 89.6732 271.592C101.395 269.984 104.229 270.982 99.6989 363.033L87.7733 364.789Z" fill="white"/>
<path d="M74.0014 354.446H112.569L109.349 378.61H77.2217L74.0014 354.446Z" fill="#263238"/>
<path d="M99.4198 308.011C99.4198 308.011 110.1 308.925 110.422 308.011C110.744 307.096 110.744 287.284 115.274 288.461C119.804 289.638 117.818 313.466 115.274 316.24C112.73 319.015 99.4198 320.571 99.4198 320.571C99.4198 320.571 97.6809 311.721 99.4198 308.011Z" fill="#44A1A0"/>
<path opacity="0.4" d="M99.4198 308.011C99.4198 308.011 110.1 308.925 110.422 308.011C110.744 307.096 110.744 287.284 115.274 288.461C119.804 289.638 117.818 313.466 115.274 316.24C112.73 319.015 99.4198 320.571 99.4198 320.571C99.4198 320.571 97.6809 311.721 99.4198 308.011Z" fill="white"/>
<path d="M92.6465 352.008C91.8665 345.386 91.1509 338.757 90.4997 332.122C89.8485 325.486 89.3082 318.829 88.8789 312.152C88.428 305.499 88.1167 298.835 88.0309 292.182C88.0309 288.839 88.0309 285.497 88.2241 282.155C88.3181 280.471 88.5081 278.794 88.793 277.131C88.9376 276.274 89.164 275.433 89.4692 274.619C89.6335 274.167 89.8769 273.748 90.1884 273.378C90.2919 273.273 90.4032 273.174 90.5212 273.084C90.6854 272.985 90.8676 272.917 91.0579 272.884C91.2469 272.877 91.4352 272.911 91.6083 272.986C91.7814 273.061 91.9346 273.173 92.0562 273.315C92.5915 274.073 92.9573 274.932 93.1296 275.838C93.3443 276.668 93.516 277.499 93.6556 278.329C93.9347 279.979 94.1493 281.65 94.3211 283.311C94.6753 286.632 94.9222 289.964 95.1261 293.296C95.5197 299.959 95.7881 306.616 95.9312 313.266C96.0743 319.915 96.1602 326.572 96.1888 333.236C96.1888 339.899 96.1459 346.556 96.06 353.206C95.9741 346.542 95.8418 339.885 95.6629 333.236C95.5233 326.572 95.3516 319.908 95.1047 313.266C94.8578 306.623 94.6002 299.949 94.1601 293.296C93.9347 289.974 93.677 286.653 93.3013 283.353C93.1189 281.703 92.9042 280.063 92.6143 278.434C92.4748 277.625 92.3031 276.815 92.0991 276.027C91.9575 275.279 91.6696 274.566 91.2511 273.925C91.1652 273.809 91.1223 273.841 91.1545 273.82C91.1867 273.799 91.1545 273.82 91.1545 273.82L91.0257 273.935C90.798 274.218 90.6169 274.534 90.489 274.871C90.2061 275.62 89.9976 276.395 89.8664 277.183C89.5801 278.804 89.3866 280.439 89.2868 282.081C89.0721 285.392 89.0291 288.713 89.0506 292.035C89.0506 298.688 89.4156 305.341 89.7483 312.005C90.0811 318.668 90.5534 325.3 91.0579 331.975C91.5624 338.649 92.0454 345.375 92.6465 352.008Z" fill="#44A1A0"/>
<path d="M100.762 312.709C102.146 312.583 103.52 312.488 104.894 312.341C106.268 312.194 107.631 312.068 108.984 311.847C109.646 311.737 110.302 311.593 110.948 311.416C111.549 311.29 112.269 310.87 112.022 310.806C111.964 310.107 111.964 309.404 112.022 308.704C112.022 308.021 112.108 307.348 112.172 306.665C112.419 303.964 112.741 301.273 113.17 298.593C113.548 295.905 114.071 293.239 114.737 290.605C114.587 291.951 114.469 293.296 114.362 294.652L113.986 298.688L113.235 306.76C113.092 308.066 113.02 309.378 113.02 310.691V310.838C113.025 310.929 113.025 311.02 113.02 311.111C112.982 311.271 112.905 311.419 112.795 311.542C112.645 311.728 112.449 311.872 112.226 311.963C111.884 312.129 111.524 312.256 111.152 312.341C110.446 312.505 109.729 312.618 109.005 312.677C106.263 312.909 103.506 312.92 100.762 312.709Z" fill="#44A1A0"/>
<path d="M100.762 317.281L105.324 316.293C106.837 315.978 108.361 315.662 109.864 315.305C111.346 314.994 112.806 314.587 114.233 314.086C114.33 314.046 114.42 313.993 114.501 313.928C114.575 313.802 114.632 313.668 114.673 313.529C114.789 313.185 114.878 312.834 114.941 312.478C115.081 311.753 115.178 311.006 115.263 310.26C115.628 307.265 115.8 304.227 116.026 301.19L116.337 296.638L116.691 292.087C116.874 295.135 116.895 298.184 116.852 301.232C116.809 304.28 116.67 307.328 116.337 310.376C116.24 311.143 116.133 311.91 115.972 312.678C115.893 313.073 115.786 313.463 115.65 313.844C115.578 314.071 115.473 314.287 115.339 314.485C115.164 314.703 114.929 314.868 114.662 314.958C113.155 315.469 111.603 315.842 110.025 316.072C106.955 316.619 103.864 317.029 100.762 317.281Z" fill="#44A1A0"/>
<path d="M83.9197 330.524C81.167 330.656 78.411 330.343 75.7618 329.599C75.409 329.482 75.0706 329.327 74.7528 329.137C74.5533 329.027 74.3839 328.872 74.259 328.685C74.1412 328.527 74.0472 328.354 73.9799 328.17C73.7189 327.518 73.5247 326.842 73.4002 326.152C73.1599 324.826 72.988 323.49 72.885 322.147C72.6703 319.478 72.5845 316.808 72.6059 314.149C72.6274 311.49 72.7025 308.82 72.9494 306.161L73.2178 310.144L73.4325 314.128C73.6042 316.776 73.7223 319.383 73.9477 322.063C74.055 323.377 74.1838 324.691 74.3985 325.973C74.4896 326.598 74.6369 327.213 74.8386 327.813C74.8865 327.944 74.9476 328.071 75.0211 328.191C75.079 328.28 75.1559 328.355 75.2465 328.412C75.5049 328.582 75.7778 328.729 76.0623 328.853C77.3015 329.336 78.5897 329.688 79.9052 329.904C81.2255 330.156 82.578 330.335 83.9197 330.524Z" fill="#44A1A0"/>
<path d="M70.9743 308.652C71.1246 310.208 71.2212 311.805 71.3607 313.308L71.6827 317.975C71.9082 321.128 72.0906 324.176 72.3375 327.266C72.4663 328.811 72.5951 330.367 72.7991 331.88C72.8719 332.614 73.0156 333.339 73.2285 334.046C73.4002 334.655 74.0335 335.002 74.699 335.338C76.1495 335.905 77.6626 336.303 79.2074 336.526C80.7639 336.82 82.3418 336.999 83.9197 337.178C80.7008 337.365 77.4729 337.01 74.377 336.127C73.974 335.966 73.5891 335.766 73.2285 335.528C72.8323 335.279 72.5306 334.91 72.3697 334.476C72.0949 333.703 71.9042 332.903 71.8008 332.091C71.5432 330.524 71.4144 328.937 71.2748 327.413C71.0387 324.26 70.8992 321.181 70.8562 318.07C70.8133 314.958 70.8455 311.774 70.9743 308.652Z" fill="#44A1A0"/>
<path d="M415.962 55.7058V141.041C415.962 141.799 415.655 142.526 415.107 143.062C414.56 143.598 413.817 143.9 413.043 143.9H279.166C278.783 143.9 278.403 143.826 278.049 143.682C277.695 143.538 277.373 143.328 277.102 143.062C276.831 142.797 276.616 142.482 276.469 142.135C276.322 141.788 276.247 141.416 276.247 141.041V55.7058C276.247 55.3304 276.322 54.9586 276.469 54.6117C276.616 54.2649 276.831 53.9497 277.102 53.6843C277.373 53.4188 277.695 53.2082 278.049 53.0645C278.403 52.9209 278.783 52.8469 279.166 52.8469H413.043C413.817 52.8469 414.56 53.1481 415.107 53.6843C415.655 54.2204 415.962 54.9476 415.962 55.7058Z" fill="#407BFF"/>
<path opacity="0.6" d="M415.962 62.4534V140.988C415.962 141.746 415.655 142.473 415.107 143.01C414.56 143.546 413.817 143.847 413.043 143.847H279.166C278.783 143.847 278.403 143.773 278.049 143.629C277.695 143.486 277.373 143.275 277.102 143.01C276.831 142.744 276.616 142.429 276.469 142.082C276.322 141.735 276.247 141.363 276.247 140.988V62.4534H415.962Z" fill="white"/>
<path opacity="0.4" d="M410.101 59.8472C411.216 59.8472 412.119 58.9625 412.119 57.8712C412.119 56.7799 411.216 55.8953 410.101 55.8953C408.987 55.8953 408.083 56.7799 408.083 57.8712C408.083 58.9625 408.987 59.8472 410.101 59.8472Z" fill="white"/>
<path opacity="0.4" d="M402.459 59.8472C403.573 59.8472 404.477 58.9625 404.477 57.8712C404.477 56.7799 403.573 55.8953 402.459 55.8953C401.344 55.8953 400.441 56.7799 400.441 57.8712C400.441 58.9625 401.344 59.8472 402.459 59.8472Z" fill="white"/>
<path opacity="0.4" d="M396.834 57.8712C396.834 58.2621 396.716 58.6441 396.494 58.969C396.272 59.294 395.957 59.5472 395.588 59.6968C395.219 59.8464 394.814 59.8855 394.422 59.8093C394.031 59.733 393.671 59.5448 393.389 59.2685C393.107 58.9921 392.915 58.64 392.837 58.2567C392.759 57.8734 392.799 57.4761 392.952 57.1151C393.104 56.754 393.363 56.4454 393.695 56.2283C394.027 56.0111 394.417 55.8953 394.816 55.8953C395.351 55.8953 395.864 56.1034 396.243 56.474C396.621 56.8446 396.834 57.3472 396.834 57.8712Z" fill="white"/>
<path opacity="0.2" d="M411.218 67.6877H280.927V139.485H411.218V67.6877Z" fill="white"/>
<path d="M411.218 97.2433V99.0406L401.289 109.646L388.451 102.488L385.284 107.417L383.835 109.667L371.952 128.144L361.669 109.478L361.046 108.332L355.186 97.7057L340.77 119.725L329.628 116.919L315.856 121.502L310.553 118.643L280.927 124.392V123.141L310.746 117.36L315.984 120.167L329.595 115.637L340.211 118.338L355.293 95.2988L361.927 107.396L362.571 108.521L372.027 125.737L381.484 111.012L382.933 108.773L388.032 100.838L401.042 108.101L411.218 97.2433Z" fill="white"/>
<path d="M411.196 112.526V113.787L403.543 115.458L388.225 107.123L383.813 109.657L381.463 111.012L378.189 112.904L368.163 102.562L362.549 108.521L361.647 109.478L339.718 132.759L330.39 120.093L313.43 125.233L304.671 122.427C296.953 125.075 286.508 128.733 280.905 130.688V129.385C284.791 127.976 291.8 125.559 304.456 121.208L304.66 121.145L313.44 123.951L330.894 118.696L339.825 130.867L361.025 108.364L361.905 107.428L368.152 100.796L378.436 111.412L382.933 108.816L385.284 107.46L388.236 105.747L403.757 114.208L411.196 112.526Z" fill="#407BFF"/>
<path d="M269.075 86.7939V242.549C269.075 243.308 268.768 244.035 268.22 244.571C267.673 245.107 266.93 245.408 266.156 245.408H35.6183C34.8439 245.408 34.1013 245.107 33.5538 244.571C33.0062 244.035 32.6986 243.308 32.6986 242.549V86.7939C32.6986 86.0357 33.0062 85.3085 33.5538 84.7724C34.1013 84.2363 34.8439 83.9351 35.6183 83.9351H266.156C266.93 83.9351 267.673 84.2363 268.22 84.7724C268.768 85.3085 269.075 86.0357 269.075 86.7939Z" fill="#1E72D1"/>
<path opacity="0.4" d="M269.075 93.594V242.549C269.075 243.307 268.768 244.035 268.22 244.571C267.673 245.107 266.93 245.408 266.156 245.408H35.6183C34.8439 245.408 34.1013 245.107 33.5538 244.571C33.0062 244.035 32.6986 243.307 32.6986 242.549V93.594H269.075Z" fill="white"/>
<path opacity="0.2" d="M269.075 236.211V242.518C269.075 242.893 269 243.265 268.853 243.612C268.706 243.959 268.491 244.274 268.22 244.539C267.949 244.805 267.627 245.015 267.273 245.159C266.919 245.303 266.539 245.377 266.156 245.377H35.6183C35.2349 245.377 34.8552 245.303 34.501 245.159C34.1467 245.015 33.8249 244.805 33.5538 244.539C33.2826 244.274 33.0676 243.959 32.9209 243.612C32.7741 243.265 32.6986 242.893 32.6986 242.518V236.211H269.075Z" fill="black"/>
<path opacity="0.4" d="M263.215 90.9876C264.329 90.9876 265.233 90.1029 265.233 89.0116C265.233 87.9203 264.329 87.0356 263.215 87.0356C262.1 87.0356 261.197 87.9203 261.197 89.0116C261.197 90.1029 262.1 90.9876 263.215 90.9876Z" fill="white"/>
<path opacity="0.4" d="M255.572 90.9876C256.686 90.9876 257.59 90.1029 257.59 89.0116C257.59 87.9203 256.686 87.0356 255.572 87.0356C254.457 87.0356 253.554 87.9203 253.554 89.0116C253.554 90.1029 254.457 90.9876 255.572 90.9876Z" fill="white"/>
<path opacity="0.4" d="M249.947 89.0116C249.947 89.4024 249.829 89.7845 249.607 90.1094C249.385 90.4344 249.07 90.6876 248.701 90.8372C248.333 90.9868 247.927 91.0259 247.535 90.9496C247.144 90.8734 246.784 90.6852 246.502 90.4089C246.22 90.1325 246.028 89.7804 245.95 89.3971C245.872 89.0138 245.912 88.6165 246.065 88.2554C246.218 87.8944 246.476 87.5858 246.808 87.3687C247.14 87.1515 247.53 87.0356 247.929 87.0356C248.464 87.0356 248.978 87.2438 249.356 87.6144C249.735 87.985 249.947 88.4876 249.947 89.0116Z" fill="white"/>
<path opacity="0.2" d="M269.075 93.594H32.6986V102.959H269.075V93.594Z" fill="black"/>
<path d="M41.2322 98.7027H36.9386C36.7962 98.7027 36.6597 98.6473 36.5591 98.5487C36.4584 98.4502 36.4019 98.3165 36.4019 98.1771C36.4019 98.0378 36.4584 97.9041 36.5591 97.8055C36.6597 97.707 36.7962 97.6516 36.9386 97.6516H41.2322C41.3746 97.6516 41.5111 97.707 41.6118 97.8055C41.7124 97.9041 41.769 98.0378 41.769 98.1771C41.769 98.3165 41.7124 98.4502 41.6118 98.5487C41.5111 98.6473 41.3746 98.7027 41.2322 98.7027Z" fill="white"/>
<path d="M38.2052 100.405C38.0636 100.403 37.9286 100.346 37.8295 100.247L36.0906 98.5447C36.0403 98.4958 36.0003 98.4377 35.9731 98.3736C35.9459 98.3096 35.9318 98.2409 35.9318 98.1715C35.9318 98.1022 35.9459 98.0335 35.9731 97.9694C36.0003 97.9054 36.0403 97.8473 36.0906 97.7984L37.8295 96.0957C37.9306 95.9968 38.0676 95.9412 38.2106 95.9412C38.3535 95.9412 38.4906 95.9968 38.5916 96.0957C38.6927 96.1947 38.7495 96.3289 38.7495 96.4688C38.7495 96.6088 38.6927 96.743 38.5916 96.842L37.2284 98.1768L38.5916 99.5011C38.6907 99.6011 38.746 99.7349 38.746 99.8742C38.746 100.014 38.6907 100.147 38.5916 100.247C38.4892 100.348 38.3503 100.405 38.2052 100.405Z" fill="white"/>
<path d="M264.707 96.6004H260.145C260.002 96.6004 259.866 96.545 259.765 96.4464C259.664 96.3479 259.608 96.2142 259.608 96.0748C259.608 95.9355 259.664 95.8018 259.765 95.7032C259.866 95.6047 260.002 95.5493 260.145 95.5493H264.707C264.849 95.5493 264.985 95.6047 265.086 95.7032C265.187 95.8018 265.243 95.9355 265.243 96.0748C265.243 96.2142 265.187 96.3479 265.086 96.4464C264.985 96.545 264.849 96.6004 264.707 96.6004Z" fill="white"/>
<path d="M264.707 98.7027H260.145C260.002 98.7027 259.866 98.6473 259.765 98.5487C259.664 98.4502 259.608 98.3165 259.608 98.1771C259.608 98.0378 259.664 97.9041 259.765 97.8055C259.866 97.707 260.002 97.6516 260.145 97.6516H264.707C264.849 97.6516 264.985 97.707 265.086 97.8055C265.187 97.9041 265.243 98.0378 265.243 98.1771C265.243 98.3165 265.187 98.4502 265.086 98.5487C264.985 98.6473 264.849 98.7027 264.707 98.7027Z" fill="white"/>
<path d="M264.707 100.804H260.145C260.002 100.804 259.866 100.749 259.765 100.651C259.664 100.552 259.608 100.418 259.608 100.279C259.608 100.14 259.664 100.006 259.765 99.9073C259.866 99.8088 260.002 99.7534 260.145 99.7534H264.707C264.849 99.7534 264.985 99.8088 265.086 99.9073C265.187 100.006 265.243 100.14 265.243 100.279C265.243 100.418 265.187 100.552 265.086 100.651C264.985 100.749 264.849 100.804 264.707 100.804Z" fill="white"/>
<path d="M91.8223 119.345H44.6887C44.404 119.345 44.131 119.234 43.9297 119.037C43.7284 118.84 43.6153 118.573 43.6153 118.294C43.6153 118.015 43.7284 117.748 43.9297 117.551C44.131 117.354 44.404 117.243 44.6887 117.243H91.8223C92.107 117.243 92.38 117.354 92.5814 117.551C92.7827 117.748 92.8957 118.015 92.8957 118.294C92.8957 118.573 92.7827 118.84 92.5814 119.037C92.38 119.234 92.107 119.345 91.8223 119.345Z" fill="white"/>
<path d="M129.617 130.297H44.6887C44.404 130.297 44.131 130.186 43.9297 129.989C43.7284 129.792 43.6153 129.525 43.6153 129.246C43.6153 128.967 43.7284 128.7 43.9297 128.503C44.131 128.306 44.404 128.195 44.6887 128.195H129.617C129.902 128.195 130.175 128.306 130.376 128.503C130.578 128.7 130.691 128.967 130.691 129.246C130.691 129.525 130.578 129.792 130.376 129.989C130.175 130.186 129.902 130.297 129.617 130.297Z" fill="white"/>
<path d="M129.617 137.066H44.6887C44.404 137.066 44.131 136.955 43.9297 136.758C43.7284 136.561 43.6153 136.293 43.6153 136.015C43.6153 135.736 43.7284 135.469 43.9297 135.271C44.131 135.074 44.404 134.964 44.6887 134.964H129.617C129.902 134.964 130.175 135.074 130.376 135.271C130.578 135.469 130.691 135.736 130.691 136.015C130.691 136.293 130.578 136.561 130.376 136.758C130.175 136.955 129.902 137.066 129.617 137.066Z" fill="white"/>
<path d="M129.617 143.845H44.6887C44.404 143.845 44.131 143.734 43.9297 143.537C43.7284 143.34 43.6153 143.073 43.6153 142.794C43.6153 142.515 43.7284 142.248 43.9297 142.051C44.131 141.854 44.404 141.743 44.6887 141.743H129.617C129.902 141.743 130.175 141.854 130.376 142.051C130.578 142.248 130.691 142.515 130.691 142.794C130.691 143.073 130.578 143.34 130.376 143.537C130.175 143.734 129.902 143.845 129.617 143.845Z" fill="white"/>
<path d="M129.617 150.614H44.6887C44.404 150.614 44.131 150.503 43.9297 150.306C43.7284 150.109 43.6153 149.842 43.6153 149.563C43.6153 149.284 43.7284 149.017 43.9297 148.82C44.131 148.622 44.404 148.512 44.6887 148.512H129.617C129.902 148.512 130.175 148.622 130.376 148.82C130.578 149.017 130.691 149.284 130.691 149.563C130.691 149.842 130.578 150.109 130.376 150.306C130.175 150.503 129.902 150.614 129.617 150.614Z" fill="white"/>
<path d="M129.617 157.383H44.6887C44.404 157.383 44.131 157.272 43.9297 157.075C43.7284 156.878 43.6153 156.61 43.6153 156.332C43.6153 156.053 43.7284 155.785 43.9297 155.588C44.131 155.391 44.404 155.281 44.6887 155.281H129.617C129.902 155.281 130.175 155.391 130.376 155.588C130.578 155.785 130.691 156.053 130.691 156.332C130.691 156.61 130.578 156.878 130.376 157.075C130.175 157.272 129.902 157.383 129.617 157.383Z" fill="white"/>
<path d="M129.617 164.162H44.6887C44.404 164.162 44.131 164.051 43.9297 163.854C43.7284 163.657 43.6153 163.39 43.6153 163.111C43.6153 162.832 43.7284 162.565 43.9297 162.368C44.131 162.171 44.404 162.06 44.6887 162.06H129.617C129.902 162.06 130.175 162.171 130.376 162.368C130.578 162.565 130.691 162.832 130.691 163.111C130.691 163.39 130.578 163.657 130.376 163.854C130.175 164.051 129.902 164.162 129.617 164.162Z" fill="white"/>
<path d="M129.617 170.931H44.6887C44.404 170.931 44.131 170.82 43.9297 170.623C43.7284 170.426 43.6153 170.158 43.6153 169.88C43.6153 169.601 43.7284 169.334 43.9297 169.136C44.131 168.939 44.404 168.829 44.6887 168.829H129.617C129.902 168.829 130.175 168.939 130.376 169.136C130.578 169.334 130.691 169.601 130.691 169.88C130.691 170.158 130.578 170.426 130.376 170.623C130.175 170.82 129.902 170.931 129.617 170.931Z" fill="white"/>
<path d="M129.617 177.7H44.6887C44.404 177.7 44.131 177.589 43.9297 177.392C43.7284 177.195 43.6153 176.927 43.6153 176.648C43.6153 176.37 43.7284 176.102 43.9297 175.905C44.131 175.708 44.404 175.597 44.6887 175.597H129.617C129.902 175.597 130.175 175.708 130.376 175.905C130.578 176.102 130.691 176.37 130.691 176.648C130.691 176.927 130.578 177.195 130.376 177.392C130.175 177.589 129.902 177.7 129.617 177.7Z" fill="white"/>
<path opacity="0.4" d="M257.075 114.815H144.849V176.659H257.075V114.815Z" fill="white"/>
<path d="M144.849 164.214L172.221 158.907L176.472 161.187L187.507 157.519L196.287 159.737L208.181 141.564L221.684 166.117L234.79 145.726L245.203 151.549L257.075 138.874V176.648H144.849V164.214Z" fill="white"/>
<path d="M144.849 169.88C144.849 169.722 167.391 161.955 167.391 161.955L174.465 164.214L188.333 160.01L195.697 170.037L218.593 145.726L226.761 154.135L234.769 149.521L247.199 156.289L257.053 154.187V176.659H144.849V169.88Z" fill="#1E72D1"/>
<path opacity="0.3" d="M124.583 228.676C135.971 228.676 145.203 219.636 145.203 208.485C145.203 197.334 135.971 188.294 124.583 188.294C113.195 188.294 103.963 197.334 103.963 208.485C103.963 219.636 113.195 228.676 124.583 228.676Z" fill="white"/>
<path d="M124.561 208.485H145.182C145.182 212.478 143.972 216.382 141.707 219.702C139.441 223.023 136.22 225.61 132.453 227.139C128.685 228.667 124.539 229.067 120.539 228.288C116.539 227.509 112.865 225.586 109.981 222.762C107.097 219.938 105.133 216.341 104.337 212.424C103.542 208.507 103.95 204.448 105.511 200.758C107.071 197.069 109.714 193.916 113.105 191.697C116.496 189.478 120.483 188.294 124.561 188.294V208.485Z" fill="#FFC23E"/>
<path d="M124.583 221.728C132.053 221.728 138.108 215.799 138.108 208.485C138.108 201.171 132.053 195.242 124.583 195.242C117.113 195.242 111.058 201.171 111.058 208.485C111.058 215.799 117.113 221.728 124.583 221.728Z" fill="white"/>
<path d="M129.327 209.536H119.849C119.565 209.536 119.291 209.425 119.09 209.228C118.889 209.031 118.776 208.764 118.776 208.485C118.776 208.206 118.889 207.939 119.09 207.742C119.291 207.545 119.565 207.434 119.849 207.434H129.327C129.612 207.434 129.885 207.545 130.086 207.742C130.288 207.939 130.401 208.206 130.401 208.485C130.401 208.764 130.288 209.031 130.086 209.228C129.885 209.425 129.612 209.536 129.327 209.536Z" fill="#1E72D1"/>
<path opacity="0.3" d="M177.18 228.676C188.569 228.676 197.801 219.636 197.801 208.485C197.801 197.334 188.569 188.294 177.18 188.294C165.792 188.294 156.56 197.334 156.56 208.485C156.56 219.636 165.792 228.676 177.18 228.676Z" fill="white"/>
<path d="M177.159 208.485L191.274 223.2C188.823 225.455 185.845 227.089 182.6 227.959C179.355 228.829 175.943 228.908 172.659 228.19C169.376 227.472 166.323 225.978 163.764 223.839C161.206 221.7 159.221 218.981 157.983 215.918C156.744 212.856 156.29 209.543 156.659 206.269C157.028 202.995 158.21 199.859 160.101 197.135C161.992 194.41 164.535 192.181 167.508 190.64C170.482 189.099 173.795 188.294 177.159 188.294V208.485Z" fill="#FFC23E"/>
<path d="M177.18 221.728C184.65 221.728 190.705 215.799 190.705 208.485C190.705 201.171 184.65 195.242 177.18 195.242C169.711 195.242 163.655 201.171 163.655 208.485C163.655 215.799 169.711 221.728 177.18 221.728Z" fill="white"/>
<path d="M181.914 209.536H172.436C172.151 209.536 171.878 209.425 171.677 209.228C171.475 209.031 171.362 208.764 171.362 208.485C171.362 208.206 171.475 207.939 171.677 207.742C171.878 207.545 172.151 207.434 172.436 207.434H181.914C182.199 207.434 182.472 207.545 182.673 207.742C182.874 207.939 182.987 208.206 182.987 208.485C182.987 208.764 182.874 209.031 182.673 209.228C182.472 209.425 182.199 209.536 181.914 209.536Z" fill="#1E72D1"/>
<path opacity="0.3" d="M229.767 228.676C241.155 228.676 250.387 219.636 250.387 208.485C250.387 197.334 241.155 188.294 229.767 188.294C218.379 188.294 209.147 197.334 209.147 208.485C209.147 219.636 218.379 228.676 229.767 228.676Z" fill="white"/>
<path d="M229.756 208.485H250.377C250.381 211.713 249.595 214.896 248.084 217.765C246.573 220.635 244.381 223.108 241.692 224.977C239.003 226.845 235.896 228.056 232.631 228.506C229.366 228.956 226.039 228.633 222.927 227.564C219.816 226.494 217.012 224.71 214.751 222.361C212.489 220.011 210.836 217.165 209.93 214.061C209.024 210.957 208.891 207.685 209.543 204.52C210.195 201.356 211.612 198.39 213.676 195.872L229.756 208.485Z" fill="#FFC23E"/>
<path d="M229.767 221.728C237.237 221.728 243.292 215.799 243.292 208.485C243.292 201.171 237.237 195.242 229.767 195.242C222.297 195.242 216.242 201.171 216.242 208.485C216.242 215.799 222.297 221.728 229.767 221.728Z" fill="white"/>
<path d="M234.511 209.536H225.022C224.738 209.536 224.465 209.425 224.263 209.228C224.062 209.031 223.949 208.764 223.949 208.485C223.949 208.206 224.062 207.939 224.263 207.742C224.465 207.545 224.738 207.434 225.022 207.434H234.511C234.796 207.434 235.069 207.545 235.27 207.742C235.472 207.939 235.585 208.206 235.585 208.485C235.585 208.764 235.472 209.031 235.27 209.228C235.069 209.425 234.796 209.536 234.511 209.536Z" fill="#1E72D1"/>
<path opacity="0.3" d="M71.9964 228.676C83.3847 228.676 92.6167 219.636 92.6167 208.485C92.6167 197.334 83.3847 188.294 71.9964 188.294C60.6081 188.294 51.3761 197.334 51.3761 208.485C51.3761 219.636 60.6081 228.676 71.9964 228.676Z" fill="white"/>
<path d="M71.9642 208.485L89.8258 198.405C88.0177 195.332 85.4149 192.78 82.2793 191.005C79.1438 189.23 75.586 188.295 71.9642 188.294V208.485Z" fill="#FFC23E"/>
<path d="M71.9963 221.728C79.466 221.728 85.5214 215.799 85.5214 208.485C85.5214 201.171 79.466 195.242 71.9963 195.242C64.5266 195.242 58.4713 201.171 58.4713 208.485C58.4713 215.799 64.5266 221.728 71.9963 221.728Z" fill="white"/>
<path d="M76.7409 209.536H67.2626C66.9779 209.536 66.7049 209.425 66.5036 209.228C66.3023 209.031 66.1892 208.764 66.1892 208.485C66.1892 208.206 66.3023 207.939 66.5036 207.742C66.7049 207.545 66.9779 207.434 67.2626 207.434H76.7409C77.0256 207.434 77.2986 207.545 77.4999 207.742C77.7012 207.939 77.8143 208.206 77.8143 208.485C77.8143 208.764 77.7012 209.031 77.4999 209.228C77.2986 209.425 77.0256 209.536 76.7409 209.536Z" fill="#1E72D1"/>
<path d="M158.685 65.9095C158.474 65.9122 158.263 65.8727 158.068 65.7931C157.872 65.7136 157.695 65.5958 157.548 65.447C155.78 63.7185 153.385 62.7477 150.887 62.7477C148.389 62.7477 145.994 63.7185 144.227 65.447C143.925 65.7439 143.515 65.9112 143.087 65.9122C142.659 65.9132 142.249 65.7477 141.946 65.4522C141.642 65.1568 141.471 64.7555 141.47 64.3366C141.469 63.9177 141.638 63.5156 141.94 63.2188C143.114 62.069 144.508 61.1569 146.043 60.5346C147.577 59.9123 149.221 59.592 150.882 59.592C152.542 59.592 154.187 59.9123 155.721 60.5346C157.255 61.1569 158.649 62.069 159.823 63.2188C160.122 63.5157 160.29 63.9159 160.29 64.3329C160.29 64.7498 160.122 65.15 159.823 65.447C159.675 65.5944 159.497 65.7112 159.302 65.7906C159.107 65.87 158.897 65.9104 158.685 65.9095Z" fill="#1E72D1"/>
<path d="M164.417 60.2969C164.204 60.2987 163.993 60.2587 163.795 60.1793C163.598 60.0999 163.419 59.9826 163.269 59.8345C159.981 56.6227 155.526 54.8191 150.882 54.8191C146.237 54.8191 141.783 56.6227 138.494 59.8345C138.189 60.1129 137.786 60.2646 137.368 60.2573C136.951 60.2501 136.553 60.0847 136.258 59.7958C135.963 59.507 135.794 59.1173 135.787 58.7088C135.78 58.3004 135.934 57.9051 136.219 57.6062C140.114 53.8059 145.388 51.6721 150.887 51.6721C156.386 51.6721 161.66 53.8059 165.555 57.6062C165.854 57.9032 166.022 58.3034 166.022 58.7203C166.022 59.1373 165.854 59.5375 165.555 59.8345C165.407 59.9818 165.229 60.0987 165.034 60.1781C164.839 60.2575 164.629 60.2979 164.417 60.2969Z" fill="#1E72D1"/>
<path d="M169.731 55.0941C169.305 55.0903 168.897 54.9245 168.593 54.6316C166.268 52.3524 163.507 50.5442 160.468 49.3105C157.429 48.0768 154.172 47.4419 150.882 47.4419C147.592 47.4419 144.334 48.0768 141.295 49.3105C138.256 50.5442 135.495 52.3524 133.17 54.6316C132.867 54.9243 132.458 55.0884 132.032 55.0884C131.607 55.0884 131.198 54.9243 130.895 54.6316C130.744 54.486 130.624 54.3125 130.543 54.1212C130.461 53.93 130.419 53.7248 130.419 53.5175C130.419 53.3102 130.461 53.105 130.543 52.9138C130.624 52.7225 130.744 52.5491 130.895 52.4034C133.518 49.8305 136.633 47.7893 140.063 46.3966C143.492 45.004 147.169 44.2871 150.882 44.2871C154.594 44.2871 158.271 45.004 161.7 46.3966C165.13 47.7893 168.246 49.8305 170.869 52.4034C171.094 52.6239 171.247 52.9047 171.309 53.2103C171.371 53.516 171.339 53.8327 171.217 54.1207C171.095 54.4086 170.889 54.6547 170.625 54.8279C170.36 55.0012 170.049 55.0938 169.731 55.0941Z" fill="#1E72D1"/>
<path d="M153.995 71.6167C153.995 72.2195 153.812 72.8088 153.47 73.3101C153.128 73.8113 152.642 74.202 152.073 74.4327C151.504 74.6634 150.878 74.7238 150.274 74.6062C149.671 74.4886 149.116 74.1983 148.68 73.772C148.245 73.3457 147.949 72.8026 147.829 72.2113C147.708 71.6201 147.77 71.0072 148.006 70.4502C148.241 69.8933 148.64 69.4172 149.152 69.0823C149.664 68.7474 150.266 68.5686 150.882 68.5686C151.291 68.5672 151.696 68.6451 152.075 68.7978C152.453 68.9505 152.797 69.175 153.086 69.4583C153.375 69.7416 153.605 70.0782 153.76 70.4486C153.916 70.819 153.996 71.216 153.995 71.6167Z" fill="#1E72D1"/>
<path d="M514.29 359.954H333.431V378.6H514.29V359.954Z" fill="#F45D01"/>
<path opacity="0.4" d="M514.29 359.954H333.431V378.6H514.29V359.954Z" fill="white"/>
<path opacity="0.2" d="M443.413 359.954H333.431V378.6H443.413V359.954Z" fill="white"/>
<path d="M400.401 314.959H521.149L539.548 221.877C540.021 219.491 539.95 217.031 539.338 214.674C538.726 212.318 537.589 210.123 536.009 208.248C534.429 206.372 532.445 204.862 530.199 203.826C527.953 202.79 525.5 202.253 523.017 202.254H436.575C432.664 202.255 428.876 203.589 425.859 206.026C422.843 208.464 420.787 211.853 420.044 215.613L400.401 314.959Z" fill="#F45D01"/>
<path opacity="0.3" d="M486.886 314.959H521.235L539.634 221.877C540.107 219.491 540.035 217.031 539.424 214.674C538.812 212.318 537.675 210.123 536.095 208.248C534.515 206.372 532.531 204.862 530.285 203.826C528.039 202.79 525.586 202.253 523.103 202.254C519.192 202.255 515.404 203.589 512.387 206.026C509.371 208.464 507.315 211.853 506.572 215.613L486.886 314.959Z" fill="black"/>
<path d="M517.274 313.813H328.987C324.297 313.813 320.496 317.535 320.496 322.127V354.541C320.496 359.133 324.297 362.855 328.987 362.855H517.274C521.964 362.855 525.765 359.133 525.765 354.541V322.127C525.765 317.535 521.964 313.813 517.274 313.813Z" fill="#F45D01"/>
<path opacity="0.3" d="M517.274 313.813H444.057C439.367 313.813 435.566 317.535 435.566 322.127V354.541C435.566 359.133 439.367 362.855 444.057 362.855H517.274C521.964 362.855 525.765 359.133 525.765 354.541V322.127C525.765 317.535 521.964 313.813 517.274 313.813Z" fill="black"/>
<path d="M430.006 211.125C422.835 211.63 420.345 244.843 419.873 246.293C419.4 247.744 400.401 276.227 400.401 276.227L404.297 280.179C404.297 280.179 430.414 256.068 431.262 247.334C432.11 238.6 436.35 210.673 430.006 211.125Z" fill="#263238"/>
<path opacity="0.2" d="M432.464 236.582C432.002 240.964 431.498 244.895 431.262 247.334C431.004 250.003 428.396 254.092 424.896 258.485C419.84 247.901 427.634 224.463 427.634 224.463C427.634 224.463 430.059 229.823 432.464 236.582Z" fill="black"/>
<path d="M393.467 368.068L400.53 365.314L397.771 355.235L395.227 345.986L386.296 347.92L390.085 358.598L393.467 368.068Z" fill="#EBB376"/>
<path opacity="0.2" d="M390.171 358.808L397.846 355.424L395.259 346.08L386.307 347.972L390.171 358.808Z" fill="black"/>
<path d="M446.912 277.247C446.912 277.247 387.874 269.458 371.472 279.706C355.071 289.954 386.833 352.449 386.833 352.449L396.773 350.295C396.773 350.295 389.323 300.769 389.881 298.699C390.44 296.628 418.23 310.134 456.283 311.416L446.912 277.247Z" fill="#F45D01"/>
<path opacity="0.5" d="M446.912 277.247C446.912 277.247 387.874 269.458 371.472 279.706C355.071 289.954 386.833 352.449 386.833 352.449L396.773 350.295C396.773 350.295 389.323 300.769 389.881 298.699C390.44 296.628 418.23 310.134 456.283 311.416L446.912 277.247Z" fill="white"/>
<path d="M329.824 364.978L335.298 370.149L343.553 363.538L351.11 357.463L345.635 350.295L337.263 358.062L329.824 364.978Z" fill="#EBB376"/>
<path d="M337.445 371.022C338.111 370.517 331.466 362.792 331.466 362.792C331.466 362.792 322.514 361.552 317.694 357.537C312.875 353.522 311.952 358.388 316.03 363.843L326.142 377.244C329.008 381.07 330.586 376.277 337.445 371.022Z" fill="#2E353A"/>
<path d="M329.845 362.676C329.803 362.686 329.759 362.686 329.717 362.676C329.051 362.329 325.734 360.574 325.799 359.229C325.799 358.977 325.949 358.63 326.529 358.398C326.668 358.341 326.818 358.312 326.969 358.312C327.12 358.312 327.269 358.341 327.409 358.398C328.094 358.818 328.647 359.414 329.008 360.122C328.858 359.187 328.847 358.262 329.276 357.915C329.435 357.81 329.622 357.753 329.813 357.753C330.005 357.753 330.192 357.81 330.35 357.915C330.555 358.023 330.734 358.172 330.875 358.354C331.015 358.535 331.115 358.744 331.166 358.966C331.52 360.406 330.092 362.477 330.092 362.571C330.05 362.625 329.989 362.663 329.921 362.676H329.845ZM326.926 358.808C326.858 358.797 326.789 358.797 326.722 358.808C326.325 358.966 326.325 359.134 326.314 359.187C326.314 359.817 327.892 360.995 329.319 361.814C328.836 360.763 327.988 359.176 327.173 358.829C327.092 358.807 327.009 358.799 326.926 358.808ZM329.727 358.272C329.689 358.262 329.648 358.262 329.609 358.272C329.244 358.577 329.48 360.217 329.921 361.772C330.462 360.971 330.726 360.02 330.672 359.061C330.627 358.917 330.551 358.785 330.449 358.672C330.347 358.56 330.222 358.47 330.082 358.409C329.975 358.34 329.854 358.293 329.727 358.272Z" fill="#577AFA"/>
<path opacity="0.2" d="M337.102 358.23L343.403 363.685L351.035 357.536L345.603 350.326L337.102 358.23Z" fill="black"/>
<path d="M430.167 284.72C430.167 284.72 431.015 273.285 431.412 270.951C431.736 268.642 432.216 266.356 432.85 264.109C435.448 256.478 470.152 265.444 470.152 265.444C470.152 265.444 490.675 295.714 476.334 309.998C473.114 313.151 466.921 314.591 460.544 314.538C460.544 314.538 441.083 315.453 404.899 313.803C404.899 313.803 392.157 332.375 348.008 361.909L340.805 354.552C340.805 354.552 390.73 298.363 392.329 297.059C406.809 285.624 430.167 284.72 430.167 284.72Z" fill="#F45D01"/>
<path opacity="0.6" d="M430.167 284.72C430.167 284.72 431.015 273.285 431.412 270.951C431.736 268.642 432.216 266.356 432.85 264.109C435.448 256.478 470.152 265.444 470.152 265.444C470.152 265.444 490.675 295.714 476.334 309.998C473.114 313.151 466.921 314.591 460.544 314.538C460.544 314.538 441.083 315.453 404.899 313.803C404.899 313.803 392.157 332.375 348.008 361.909L340.805 354.552C340.805 354.552 390.73 298.363 392.329 297.059C406.809 285.624 430.167 284.72 430.167 284.72Z" fill="white"/>
<path d="M351.303 360.795L342.458 351.262L338.186 355.561L346.473 364.242L351.303 360.795Z" fill="#F45D01"/>
<path d="M473.221 221.93C469.797 232.009 469.636 254.754 470.849 267.335L432.056 267.094C425.379 242.015 427.634 224.421 428.202 218.545C428.911 211.388 430.038 211.125 430.038 211.125C430.038 211.125 437.96 210.368 444.851 210.421C450.187 210.599 455.503 211.147 460.759 212.06C464.669 212.7 468.539 213.553 472.352 214.615C472.753 214.727 473.127 214.917 473.45 215.175C473.774 215.433 474.04 215.752 474.234 216.114C474.428 216.476 474.544 216.872 474.577 217.279C474.61 217.686 474.557 218.096 474.424 218.482C473.984 219.67 473.586 220.826 473.221 221.93Z" fill="#263238"/>
<path opacity="0.1" d="M432.056 267.094L455.467 267.241L470.881 267.335C469.87 255.625 469.974 243.848 471.193 232.157C471.542 228.694 472.233 225.273 473.254 221.94C473.619 220.826 474.016 219.67 474.424 218.493C474.559 218.106 474.613 217.695 474.581 217.287C474.549 216.879 474.433 216.481 474.239 216.118C474.045 215.755 473.778 215.435 473.453 215.176C473.129 214.918 472.754 214.727 472.352 214.615C468.539 213.553 464.669 212.7 460.759 212.061C455.503 211.147 450.187 210.599 444.851 210.421C437.96 210.421 430.038 211.125 430.038 211.125C430.038 211.125 428.965 211.398 428.202 218.546C427.601 224.421 425.347 242.016 432.056 267.094Z" fill="white"/>
<path opacity="0.2" d="M470.849 267.335C469.838 255.625 469.942 243.848 471.161 232.156C466.405 238.799 457.979 252.253 455.435 267.241L470.849 267.335Z" fill="black"/>
<path d="M445.549 280.946C445.549 280.946 435.888 287.116 434.75 287.61C433.612 288.104 426.453 289.817 424.392 289.712C422.331 289.607 425.09 283.301 426.861 282.481C428.632 281.661 434.965 282.786 434.965 282.786L442.479 277.257L445.549 280.946Z" fill="#E4897B"/>
<path d="M379.287 287.61V290.7C379.287 291.489 380.242 291.815 381.047 291.815H444.057C444.872 291.815 445.839 291.489 445.839 290.7V287.61H379.287Z" fill="#263238"/>
<path opacity="0.4" d="M379.287 287.61V290.7C379.287 291.489 380.242 291.815 381.047 291.815H444.057C444.872 291.815 445.839 291.489 445.839 290.7V287.61H379.287Z" fill="white"/>
<path opacity="0.2" d="M379.287 287.61V290.7C379.287 291.489 380.242 291.815 381.047 291.815H422.61C423.415 291.815 424.37 291.489 424.37 290.7V287.61H379.287Z" fill="black"/>
<path d="M368.725 255.553L376.238 288.872C376.375 289.405 376.688 289.88 377.129 290.222C377.569 290.564 378.113 290.755 378.675 290.763H419.647C419.904 290.759 420.156 290.695 420.383 290.579C420.611 290.462 420.807 290.295 420.957 290.091C421.107 289.887 421.206 289.651 421.247 289.403C421.288 289.155 421.27 288.901 421.193 288.661L413.679 255.595C413.527 255.09 413.202 254.652 412.758 254.355C412.314 254.058 411.778 253.92 411.242 253.966H370.292C369.197 253.977 368.499 254.46 368.725 255.553Z" fill="#263238"/>
<path opacity="0.4" d="M368.725 255.553L376.238 288.872C376.375 289.405 376.688 289.88 377.129 290.222C377.569 290.564 378.113 290.755 378.675 290.763H418.263C418.519 290.759 418.771 290.695 418.999 290.579C419.226 290.462 419.422 290.295 419.572 290.091C419.722 289.887 419.822 289.651 419.863 289.403C419.904 289.155 419.885 288.901 419.808 288.661L412.294 255.595C412.143 255.09 411.817 254.652 411.373 254.355C410.929 254.058 410.394 253.92 409.858 253.966H370.292C369.197 253.977 368.499 254.46 368.725 255.553Z" fill="white"/>
<path opacity="0.2" d="M388.948 272.486C388.948 275.334 392.071 277.657 394.368 277.657C396.666 277.657 398.007 275.334 397.363 272.486C396.719 269.637 394.433 267.409 392.189 267.325C392.844 270.173 391.438 272.486 389.162 272.486H388.948Z" fill="black"/>
<path d="M473.984 215.781C466.287 209.738 469.207 243.802 465.579 251.57C461.951 259.337 440.311 277.667 440.311 277.667L444.937 282.733C444.937 282.733 471.343 268.471 475.046 258.906C479.769 246.808 479.673 220.248 473.984 215.781Z" fill="#263238"/>
<path d="M440.311 277.667L437.348 280.116L441.416 284.972L444.958 282.775L440.311 277.667Z" fill="#F45D01"/>
<path d="M397.32 347.184L384.815 351.157L387.058 356.738L398.544 352.912L397.32 347.184Z" fill="#F45D01"/>
<path d="M385.695 369.424C385.407 369.443 385.121 369.369 384.879 369.214C384.729 369.088 384.621 368.92 384.569 368.732C384.517 368.545 384.525 368.346 384.59 368.163C384.622 368.018 384.686 367.88 384.776 367.761C384.867 367.641 384.983 367.542 385.116 367.469C385.852 367.147 386.667 367.034 387.466 367.143C386.597 366.734 385.813 366.219 385.77 365.683C385.77 365.346 385.953 365.062 386.404 364.831C386.604 364.722 386.826 364.658 387.054 364.644C387.282 364.629 387.511 364.665 387.724 364.747C389.141 365.273 390.075 367.574 390.118 367.69C390.128 367.721 390.128 367.754 390.118 367.785C390.118 367.785 390.118 367.837 390.118 367.858C390.12 367.883 390.12 367.907 390.118 367.932L390.032 367.995C388.688 368.728 387.218 369.213 385.695 369.424ZM386.822 367.627C386.327 367.594 385.831 367.688 385.384 367.9C385.312 367.937 385.25 367.989 385.201 368.053C385.153 368.117 385.12 368.19 385.105 368.268C385.008 368.678 385.105 368.773 385.191 368.815C385.695 369.193 387.595 368.562 389.098 367.869C388.348 367.726 387.586 367.645 386.822 367.627ZM387.155 365.147C386.974 365.149 386.797 365.196 386.64 365.283C386.5 365.346 386.264 365.493 386.286 365.641C386.286 366.103 387.842 366.849 389.398 367.364C389.031 366.484 388.379 365.745 387.541 365.262C387.42 365.203 387.289 365.164 387.155 365.147Z" fill="#577AFA"/>
<path d="M402 365.136C402 364.316 391.685 365.294 391.685 365.294C391.685 365.294 385.566 371.821 379.469 373.439C373.372 375.058 376.925 378.558 383.763 378.327L400.766 377.759C405.661 377.601 402.473 373.628 402 365.136Z" fill="#2E353A"/>
<path d="M452.183 208.634C452.183 208.634 461.618 207.888 463.99 212.639C466.362 217.389 461.843 224.463 461.843 224.463L455.027 219.47L441.008 224.463L437.348 219.67L434.611 221.131C434.611 221.131 434.46 206.511 452.183 208.634Z" fill="#F45D01"/>
<path opacity="0.2" d="M452.183 208.634C452.183 208.634 461.618 207.888 463.99 212.639C466.362 217.389 461.843 224.463 461.843 224.463L455.027 219.47L441.008 224.463L437.348 219.67L434.611 221.131C434.611 221.131 434.46 206.511 452.183 208.634Z" fill="white"/>
<path d="M459.095 213.364C459.095 213.364 455.542 218.335 442.146 222.771C442.146 222.771 436.178 215.34 445.248 211.945C445.248 211.945 447.137 211.367 447.545 208.424C447.737 206.348 447.462 204.257 446.74 202.296C446.644 201.981 446.526 201.645 446.408 201.308L457.442 194.55C457.442 194.55 453.524 208.214 459.095 213.364Z" fill="#E4897B"/>
<path opacity="0.2" d="M454.963 198.439C454.963 198.439 454.372 206.164 447.545 208.392C447.737 206.317 447.462 204.225 446.74 202.265C450.766 200.184 454.963 198.439 454.963 198.439Z" fill="black"/>
<path d="M440.815 175.82C440.503 173.158 441.194 170.476 442.757 168.276C444.32 166.076 446.648 164.51 449.306 163.87C451.676 163.205 454.18 163.14 456.583 163.681C460.513 164.573 464.027 166.722 466.57 169.788C469.113 172.855 470.539 176.664 470.624 180.613C470.924 189.452 468.82 200.751 455.789 199.732C434.632 198.071 440.815 175.82 440.815 175.82Z" fill="#263238"/>
<path d="M452.054 172.583C442.951 171.753 439.559 176.251 438.013 185.385C436.081 196.799 437.895 205.197 449.52 203.789C465.332 201.876 467.189 173.97 452.054 172.583Z" fill="#E4897B"/>
<path d="M443.949 185.427C443.091 186.692 442.082 187.853 440.944 188.885C441.176 189.278 441.514 189.6 441.921 189.817C442.328 190.034 442.789 190.137 443.252 190.115L443.949 185.427Z" fill="#DE5753"/>
<path d="M449.596 185.206C449.51 185.942 449.842 186.583 450.336 186.636C450.83 186.688 451.313 186.152 451.41 185.416C451.506 184.681 451.163 184.05 450.658 183.987C450.154 183.924 449.681 184.481 449.596 185.206Z" fill="#263238"/>
<path d="M450.851 184.05L449.306 183.241C449.306 183.241 449.961 184.67 450.851 184.05Z" fill="#263238"/>
<path d="M440.332 183.987C440.246 184.723 440.568 185.364 441.073 185.416C441.577 185.469 442.039 184.933 442.146 184.197C442.253 183.462 441.899 182.831 441.395 182.768C440.89 182.705 440.418 183.262 440.332 183.987Z" fill="#263238"/>
<path d="M441.588 182.883L440.042 182.074C440.042 182.074 440.643 183.451 441.588 182.883Z" fill="#263238"/>
<path d="M454.093 181.149C454.03 181.147 453.968 181.131 453.912 181.102C453.856 181.073 453.808 181.031 453.771 180.981C453.344 180.485 452.809 180.089 452.205 179.822C451.602 179.554 450.945 179.422 450.283 179.436C450.232 179.437 450.181 179.429 450.134 179.411C450.086 179.393 450.043 179.367 450.006 179.332C449.969 179.298 449.94 179.257 449.919 179.212C449.898 179.167 449.887 179.118 449.885 179.068C449.884 179.015 449.893 178.962 449.914 178.912C449.935 178.863 449.966 178.818 450.006 178.782C450.045 178.745 450.092 178.717 450.144 178.699C450.195 178.681 450.25 178.675 450.304 178.679C451.098 178.653 451.888 178.81 452.609 179.137C453.331 179.463 453.964 179.951 454.458 180.56C454.488 180.601 454.509 180.648 454.519 180.697C454.53 180.746 454.531 180.797 454.52 180.846C454.51 180.895 454.49 180.942 454.461 180.983C454.432 181.024 454.394 181.059 454.351 181.086C454.275 181.136 454.184 181.158 454.093 181.149Z" fill="#263238"/>
<path d="M439.989 178.858C439.918 178.858 439.849 178.84 439.788 178.805C439.728 178.77 439.678 178.719 439.645 178.658C439.619 178.615 439.603 178.566 439.597 178.516C439.591 178.466 439.596 178.415 439.611 178.366C439.626 178.318 439.651 178.273 439.685 178.235C439.718 178.197 439.76 178.165 439.806 178.143C440.404 177.778 441.08 177.55 441.781 177.479C442.482 177.408 443.191 177.495 443.853 177.733C443.899 177.755 443.94 177.785 443.974 177.822C444.008 177.859 444.034 177.902 444.051 177.949C444.068 177.995 444.075 178.045 444.072 178.095C444.07 178.144 444.057 178.193 444.035 178.238C444.013 178.283 443.983 178.323 443.945 178.356C443.907 178.389 443.863 178.415 443.815 178.432C443.719 178.465 443.613 178.46 443.52 178.417C442.967 178.234 442.38 178.174 441.801 178.241C441.221 178.308 440.665 178.501 440.171 178.805C440.116 178.838 440.053 178.857 439.989 178.858Z" fill="#263238"/>
<path d="M460.577 188.527C460.577 188.527 457.013 180.813 458.204 175.211C458.204 175.211 440.837 166.34 438.228 184.197C438.228 184.197 437.992 168.105 453.685 169.178C469.379 170.25 467.167 192.69 458.441 198.607C458.441 198.649 462.777 193.394 460.577 188.527Z" fill="#263238"/>
<path d="M458.891 190.241C459.085 189.221 459.682 188.317 460.552 187.727C461.423 187.136 462.496 186.906 463.539 187.087C466.33 187.645 467.135 193.446 459.986 194.161C458.966 194.277 458.494 193.257 458.891 190.241Z" fill="#E4897B"/>
<path d="M441.846 193.551C442.248 194.547 442.578 195.569 442.833 196.61H443.413C446.021 196.389 447.148 195.443 447.621 194.508C447.841 194.023 447.937 193.492 447.9 192.963C447.889 192.663 447.839 192.366 447.749 192.08C446.201 192.916 444.488 193.417 442.726 193.551C442.189 193.541 441.846 193.551 441.846 193.551Z" fill="#263238"/>
<path d="M442.726 193.467L443.048 194.361C445.495 194.151 447.202 193.678 447.9 192.879C447.889 192.579 447.839 192.282 447.749 191.996C446.201 192.832 444.488 193.333 442.726 193.467Z" fill="white"/>
<path d="M443.413 196.547C446.021 196.326 447.148 195.38 447.62 194.445C446.632 194.547 445.669 194.817 444.776 195.244C444.195 195.53 443.719 195.985 443.413 196.547Z" fill="#DE5753"/>
<path d="M467.897 181.685C467.897 181.685 463.507 174.864 470.946 172.163C478.385 169.461 485.598 178.826 481.133 185.311C479.921 187.134 478.137 188.521 476.05 189.264C473.963 190.008 471.685 190.066 469.561 189.431L467.897 181.685Z" fill="#263238"/>
</g>
<defs>
<clipPath id="clip0_307_27239">
<rect width="539.942" height="391.937" fill="white"/>
</clipPath>
</defs>
</svg>
