<svg width="581" height="470" viewBox="0 0 581 470" fill="none" xmlns="http://www.w3.org/2000/svg">
<path opacity="0.95" d="M340.725 75.9298H227.11C218.134 75.9298 210.857 83.2034 210.857 92.1758V205.74C210.857 214.712 218.134 221.986 227.11 221.986H340.725C349.702 221.986 356.978 214.712 356.978 205.74V92.1758C356.978 83.2034 349.702 75.9298 340.725 75.9298Z" fill="url(#paint0_linear_251_22923)"/>
<path d="M317.746 188.735H250.093V192.074H317.746V188.735Z" fill="#96BFE6"/>
<path d="M308.161 199.263H259.672V202.602H308.161V199.263Z" fill="#96BFE6"/>
<path opacity="0.95" d="M561.852 126.587H400.164C389.589 126.587 381.016 135.156 381.016 145.726V342.079C381.016 352.649 389.589 361.218 400.164 361.218H561.852C572.427 361.218 581 352.649 581 342.079V145.726C581 135.156 572.427 126.587 561.852 126.587Z" fill="url(#paint1_linear_251_22923)"/>
<path d="M487.553 265.005H471.693V267.94H487.553V265.005Z" fill="#4598E6"/>
<path d="M503.77 291.912H411.475V297.597H503.77V291.912Z" fill="#96BFE6"/>
<path d="M486.11 319.204H411.475V324.889H486.11V319.204Z" fill="#96BFE6"/>
<path d="M455.229 305.558H411.475V311.243H455.229V305.558Z" fill="#96BFE6"/>
<path d="M527.916 149.985V152.856H544.828V168.723H547.701V149.985H527.916ZM413.063 168.723H415.936V152.856H432.834V149.985H413.049L413.063 168.723ZM544.828 250.592V266.462H527.916V269.333H547.701V250.592H544.828ZM415.936 250.592H413.063V269.333H432.848V266.462H415.949L415.936 250.592Z" fill="#4598E6"/>
<path d="M538.748 325.307C535.401 325.307 532.13 324.316 529.348 322.457C526.565 320.599 524.397 317.958 523.116 314.867C521.836 311.777 521.502 308.376 522.156 305.096C522.809 301.816 524.422 298.803 526.789 296.438C529.156 294.074 532.172 292.465 535.454 291.814C538.736 291.164 542.138 291.501 545.229 292.783C548.32 294.065 550.961 296.235 552.817 299.017C554.674 301.8 555.663 305.071 555.66 308.416C555.651 312.895 553.865 317.188 550.695 320.354C547.525 323.52 543.229 325.301 538.748 325.307ZM538.748 294.767C536.05 294.767 533.412 295.567 531.169 297.065C528.926 298.563 527.178 300.692 526.145 303.184C525.113 305.675 524.843 308.417 525.369 311.062C525.895 313.707 527.194 316.136 529.102 318.043C531.01 319.95 533.44 321.248 536.086 321.774C538.733 322.301 541.475 322.031 543.968 320.999C546.46 319.967 548.591 318.219 550.09 315.977C551.588 313.735 552.389 311.098 552.389 308.402C552.385 304.787 550.946 301.321 548.389 298.765C545.832 296.208 542.364 294.771 538.748 294.767Z" fill="#4598E6"/>
<path d="M537.667 315.056L529.982 307.374L532.298 305.059L537.667 310.429L545.194 302.902L547.51 305.217L537.667 315.056Z" fill="#4598E6"/>
<path d="M548.917 457.16C548.917 464.252 426.039 470 274.457 470C122.876 470 0 464.252 0 457.16C0 450.069 122.879 444.323 274.457 444.323C426.036 444.323 548.917 450.071 548.917 457.16Z" fill="#FFC23E"/>
<path opacity="0.95" d="M333.162 81.3931H234.671V165.86H333.162V81.3931Z" fill="url(#paint2_linear_251_22923)"/>
<path d="M89.9206 419.731C98.1206 413.966 107.72 373.795 108.29 349.871C108.584 337.615 112.21 332.509 115.407 327.995C118.454 323.69 121.103 319.965 119.563 311.431C116.623 295.11 124.35 288.066 124.43 287.997L123.535 286.978C123.192 287.279 115.144 294.545 118.227 311.672C119.665 319.65 117.296 322.986 114.299 327.212C111.152 331.642 107.235 337.158 106.933 349.829C106.318 375.507 96.5055 413.434 89.1393 418.612L89.9206 419.731Z" fill="#1E72D1"/>
<path d="M72.7337 408.015C71.9581 406.259 71.1602 404.446 70.2405 402.532C65.5559 392.65 61.4061 391.021 54.533 388.324C52.8514 387.665 50.9483 386.918 48.8595 385.982C39.0111 381.551 40.9171 375.039 42.5986 369.287C42.8341 368.481 43.0696 367.678 43.2718 366.886C44.1389 363.503 42.474 361.805 39.9475 359.236C38.0748 357.328 35.745 354.952 33.9498 351.205C31.9829 347.099 32.9858 344.898 34.1714 343.773C36.6647 341.406 42.4324 341.835 47.8705 344.809C49.5603 345.731 50.951 347.188 52.422 348.73C55.8904 352.357 60.2065 356.874 71.1187 356.926C77.3407 356.954 80.7509 357.812 82.5156 359.795C84.5185 362.046 84.1418 365.413 83.6237 370.076C83.4436 371.688 83.2386 373.516 83.114 375.493C82.3715 387.272 89.3277 395.773 89.397 395.856C93.5524 400.804 98.6774 411.069 96.4667 417.385C95.5387 420.035 93.4665 421.702 90.3056 422.342C89.1658 422.582 88.0048 422.707 86.84 422.716C79.219 422.708 76.4265 416.394 72.7337 408.015ZM47.2472 345.989C42.3909 343.339 37.1827 342.804 35.1327 344.745C33.5758 346.221 34.3016 348.749 35.202 350.61C36.9002 354.16 39.0471 356.35 40.9448 358.286C43.5793 360.972 45.6542 363.096 44.6071 367.219C44.3993 368.027 44.1611 368.844 43.92 369.664C42.244 375.39 40.6622 380.801 49.4329 384.741C51.494 385.666 53.3806 386.403 55.0483 387.062C61.9878 389.784 66.5726 391.581 71.4871 401.951C72.4013 403.889 73.2047 405.703 73.9804 407.464C78.2217 417.075 80.7814 422.877 90.048 421.002C92.7075 420.465 94.4389 419.094 95.1979 416.929C97.1371 411.36 92.4831 401.61 88.3692 396.715C88.0672 396.355 80.9947 387.732 81.7704 375.393C81.8978 373.385 82.1056 371.538 82.2857 369.913C82.7705 365.599 83.1167 362.481 81.5183 360.684C80.0556 359.039 76.8504 358.294 71.1297 358.266C59.6386 358.214 55.1037 353.465 51.4607 349.652C50.0036 348.123 48.7431 346.805 47.2388 345.986L47.2472 345.989Z" fill="#1E72D1"/>
<path d="M90.1755 430.533L91.5274 430.464C91.4609 429.19 89.7544 399.212 77.712 390.44C64.5006 380.815 60.334 370.47 58.3505 363.525C56.0124 355.345 44.1168 353.158 43.6099 353.069L43.3744 354.404C43.4907 354.426 54.9431 356.533 57.0457 363.899C59.0847 371.035 63.362 381.662 76.9114 391.534C88.4386 399.932 90.1589 430.239 90.1755 430.533Z" fill="#1E72D1"/>
<path d="M87.8817 437.276C85.0477 435.866 85.1502 430.195 85.3081 421.611C85.502 410.765 85.7735 395.909 80.0917 382.244C74.058 367.728 79.4379 363.486 84.6432 359.385C90.4608 354.789 95.9792 350.45 85.4134 330.864C80.5571 321.868 79.0168 315.781 80.5626 311.711C82.089 307.69 86.3802 306.123 90.9096 304.464C98.7412 301.598 107.614 298.353 106.467 281.789C106.116 276.71 106.714 273.587 108.349 271.961C110.124 270.195 112.739 270.386 115.767 270.607C120.344 270.942 125.527 271.322 130.04 265.432C130.511 263.961 134.827 250.828 139.991 248.579C140.485 248.345 141.025 248.225 141.572 248.228C142.118 248.231 142.657 248.357 143.149 248.596C146.714 250.302 148.784 252.32 149.473 254.777C150.676 259.044 147.534 263.856 143.933 269.43C138.24 278.192 131.791 288.119 138.481 299.934C147.326 315.554 142.653 321.023 136.187 328.588C132.483 332.924 128.283 337.837 125.477 345.85C123.219 352.297 127.07 358.441 130.793 364.383C135.467 371.838 140.298 379.547 130.126 386.237C113.31 397.296 96.6995 433.396 96.5333 433.759L96.4668 433.908L96.3366 434.011C93.2366 436.439 90.9816 437.611 89.2835 437.611C88.7962 437.612 88.3157 437.497 87.8817 437.276ZM129.375 385.104C138.439 379.142 134.361 372.643 129.652 365.103C125.937 359.178 121.729 352.463 124.203 345.402C127.092 337.15 131.381 332.132 135.162 327.707C141.498 320.295 145.689 315.396 137.306 300.601C130.209 288.071 137.19 277.341 142.8 268.694C146.243 263.397 149.216 258.819 148.18 255.142C147.601 253.087 145.769 251.346 142.575 249.82C142.259 249.665 141.912 249.585 141.56 249.585C141.208 249.585 140.861 249.665 140.545 249.82C135.752 251.905 131.353 265.808 131.309 265.95L131.275 266.06L131.203 266.155C126.217 272.728 120.38 272.302 115.69 271.956C112.881 271.751 110.664 271.587 109.318 272.919C107.972 274.251 107.517 277.098 107.836 281.692C109.052 299.272 99.2481 302.855 91.3889 305.732C86.9703 307.349 83.1501 308.748 81.8453 312.19C80.4601 315.864 81.9671 321.605 86.6184 330.219C97.7273 350.81 91.5108 355.711 85.4965 360.451C80.4684 364.417 75.7174 368.16 81.3577 381.726C87.1476 395.651 86.8761 410.671 86.6766 421.639C86.5409 429.115 86.4328 435.035 88.4995 436.065C89.7101 436.666 92.0233 435.65 95.3781 433.042C96.7078 430.118 112.615 396.119 129.375 385.104Z" fill="#1E72D1"/>
<path d="M61.3369 279.928C69.897 276.995 68.1185 293.496 71.7337 305.68C75.3489 317.864 111.969 311.002 96.597 341.553C81.2247 372.103 116.036 351.768 105.639 378.428C95.2423 405.088 104.736 433.601 93.4333 426.349C82.1306 419.097 87.0839 385.525 75.3296 381.535C63.5752 377.545 61.6582 372.893 73.2962 362.049C84.9341 351.205 42.8037 340.451 53.2005 318.539C63.5974 296.628 51.447 283.317 61.3369 279.928Z" fill="#44A1A0"/>
<path d="M89.494 424.602C90.5717 420.038 99.7635 379.876 91.1867 375.019C83.6266 370.741 83.8122 354.099 84.9923 338.382C86.0367 324.47 68.1601 317.969 67.3983 317.697L66.9439 318.977C67.1212 319.038 84.6045 325.404 83.6377 338.28C82.427 354.42 82.2968 371.547 90.5163 376.199C97.0292 379.887 91.0343 412.166 88.1726 424.292L89.494 424.602Z" fill="white"/>
<path d="M121.787 410.302L109.567 456.642H82.258L70.0383 410.302H121.787Z" fill="url(#paint3_linear_251_22923)"/>
<path d="M121.787 410.302C121.787 410.302 94.885 415.35 94.885 456.642H82.258L70.0383 410.302H121.787Z" fill="url(#paint4_linear_251_22923)"/>
<path opacity="0.95" d="M465.327 21.845H384.692C377.313 21.845 371.331 27.8242 371.331 35.2V105.135C371.331 112.511 377.313 118.49 384.692 118.49H465.327C472.706 118.49 478.688 112.511 478.688 105.135V35.2C478.688 27.8242 472.706 21.845 465.327 21.845Z" fill="url(#paint5_linear_251_22923)"/>
<path d="M428.859 100.209H420.346V101.784H428.859V100.209Z" fill="#4598E6"/>
<path d="M450.528 39.3342V40.8738H459.606V49.3914H461.149V39.3342H450.528ZM388.873 49.3914H390.413V40.8738H399.494V39.3342H388.873V49.3914ZM459.606 93.3416V101.862H450.528V103.401H461.149V93.3416H459.606ZM390.413 93.3416H388.873V103.401H399.494V101.862H390.413V93.3416Z" fill="#4598E6"/>
<path d="M289.602 172.417H278.23V174.521H289.602V172.417Z" fill="#4598E6"/>
<path d="M318.001 91.1041V93.1615H330.129V104.54H332.201V91.1041H318.001ZM235.648 104.54H237.707V93.1615H249.835V91.1041H235.648V104.54ZM330.115 163.243V174.624H317.987V176.684H332.201V163.24L330.115 163.243ZM237.693 163.243H235.635V176.684H249.821V174.624H237.707L237.693 163.243Z" fill="#4598E6"/>
<path d="M541.402 238.783H522.431C521.181 229.703 519.66 219.338 519.66 219.338C519.66 219.338 518.893 227.892 517.959 238.783H442.054C441.361 228.988 440.527 221.662 440.225 221.512C439.79 221.293 437.081 229.983 434.834 238.783H414.282C419.567 216.024 429.427 179.509 435.128 177.31C443.239 174.192 476.328 163.999 476.328 163.999H495.21C495.21 163.999 528.761 173.569 531.883 183.972C534.343 192.271 539.817 219.61 541.402 238.783Z" fill="#E65353"/>
<path d="M486.614 102.784C486.614 102.784 504.244 105.553 501.573 133.133C498.903 160.712 483.328 158.447 482.289 158.419C481.251 158.392 466.668 158.921 465.532 125.257C465.518 125.257 465.019 100.364 486.614 102.784Z" fill="#EEA987"/>
<path d="M494.844 150.29C494.844 150.29 494.359 161.643 495.459 164.085C496.559 166.527 480.91 174.427 471.358 165.638C471.358 165.638 473.663 153.313 473.02 148.944C472.377 144.574 494.844 150.29 494.844 150.29Z" fill="#EEA987"/>
<path d="M501.834 125.346C501.834 125.346 503.773 123.283 504.471 125.371C505.169 127.459 501.476 136.782 501.717 137.2C501.717 137.2 501.366 138.009 500.903 137.563C500.44 137.117 501.834 125.346 501.834 125.346Z" fill="#EEA987"/>
<path d="M465.729 124.997C465.729 124.997 463.839 122.898 463.091 124.969C462.343 127.041 465.862 136.436 465.615 136.851C465.615 136.851 465.953 137.666 466.424 137.231C466.895 136.796 465.729 124.997 465.729 124.997Z" fill="#EEA987"/>
<path d="M501.825 129.574L499.302 132.947C499.302 132.947 499.371 125.551 498.966 124.394C498.562 123.236 497.941 119.686 497.603 118.855C497.265 118.025 482.464 113.871 469.388 120.065C469.388 120.065 469.964 125.385 468.712 125.858C467.46 126.332 468.072 134.517 468.072 134.517L465.997 132.177C465.997 132.177 462.82 110.969 463.604 108.754C464.388 106.539 466.889 93.2474 493.711 101.142C493.711 101.142 502.075 99.3725 503.753 105.143C505.432 110.914 501.825 129.574 501.825 129.574Z" fill="#D98B52"/>
<path d="M495.459 164.093C495.459 164.093 499.437 164.941 482.791 180.887C482.791 180.887 470.984 167.831 471.366 165.658C471.748 163.484 495.459 164.093 495.459 164.093Z" fill="#EEA987"/>
<path d="M482.791 180.888L487.334 188.652L500.809 165.782L494.972 161.712L482.791 180.888Z" fill="#B84343"/>
<path d="M482.791 180.887L471.765 163.354L465.515 167.369L476.721 188.652L482.791 180.887Z" fill="#B84343"/>
<path d="M479.372 229.462C479.508 232.048 479.569 235.222 479.577 238.782H478.951C478.951 235.235 478.885 232.07 478.749 229.492C477.727 210.04 482.442 186.373 482.472 180.824L483.082 180.946C483.051 186.492 478.35 210.101 479.372 229.462Z" fill="#B84343"/>
<path d="M474.671 155.174C474.671 155.174 478.86 159.605 484.777 158.42C490.694 157.234 493.321 154.543 493.321 154.543C493.321 154.543 490.985 160.397 484.145 160.934C477.306 161.471 474.671 155.174 474.671 155.174Z" fill="#C78D71"/>
<path d="M270.385 91.885H270.346C269.947 91.7881 269.318 89.883 269.194 89.5009C269.166 89.3957 269.105 89.2046 269.019 88.9471C268.523 87.4213 267.357 83.8465 267.82 82.4786C267.961 82.0466 268.183 81.7974 268.479 81.7365C269.111 81.6036 269.834 82.4066 269.864 82.4426L269.881 82.4592V82.4814C270.044 83.985 270.848 91.5029 270.501 91.8463C270.468 91.8728 270.427 91.8866 270.385 91.885ZM268.623 81.8528C268.584 81.8487 268.545 81.8487 268.507 81.8528C268.266 81.9027 268.08 82.1297 267.953 82.498C267.518 83.8244 268.706 87.4823 269.155 88.8668C269.241 89.1437 269.302 89.3264 269.332 89.4206C269.609 90.3344 270.144 91.6358 270.377 91.705C270.38 91.707 270.384 91.708 270.388 91.708C270.392 91.708 270.395 91.707 270.399 91.705C270.618 91.406 270.122 85.8901 269.737 82.4842C269.643 82.4039 269.105 81.8528 268.623 81.8528Z" fill="#EEA886"/>
<path d="M283.491 61.9185C283.491 61.9185 293.187 60.9022 296.694 70.2699C300.202 79.6376 303.484 82.7057 303.897 87.6262C305.559 107.533 314.862 103.03 312.247 114.503C309.632 125.975 307.814 127.714 307.814 127.714L285.58 123.355L263.058 123.43C263.058 123.43 271.87 119.03 269.909 109.662C267.947 100.295 263.058 84.9403 265.82 74.4955C268.582 64.0506 277.693 62.716 283.491 61.9185Z" fill="#16202E"/>
<path d="M295.356 91.885C295.311 91.8835 295.269 91.8646 295.237 91.8324C294.891 91.489 295.694 83.9711 295.858 82.4675V82.4481L295.874 82.4315C295.905 82.3955 296.628 81.6008 297.259 81.7254C297.556 81.7863 297.778 82.0355 297.919 82.4675C298.37 83.8354 297.215 87.4102 296.719 88.936C296.633 89.2129 296.572 89.3929 296.545 89.4898C296.42 89.8747 295.791 91.7798 295.392 91.8767L295.356 91.885ZM296.002 82.509C295.628 85.926 295.121 91.4309 295.342 91.7327C295.345 91.7344 295.349 91.7353 295.352 91.7353C295.356 91.7353 295.359 91.7344 295.362 91.7327C295.595 91.6746 296.115 90.362 296.409 89.4455C296.437 89.343 296.498 89.1492 296.584 88.8917C297.032 87.5072 298.221 83.8382 297.786 82.5229C297.658 82.1463 297.476 81.9275 297.232 81.8777C296.716 81.7586 296.093 82.3955 295.991 82.509H296.002Z" fill="#EEA886"/>
<path d="M329.123 151.419H315.272C312.399 146.186 310.067 142.09 310.067 142.09C310.067 142.09 308.199 145.496 306.742 151.419H260.107C259.511 148.204 259.307 144.928 259.501 141.664C259.501 141.664 257.007 146.167 254.118 151.419H238.449C242.605 143.636 250.397 129.466 252.168 127.606C254.384 125.28 267.28 116.374 276.48 113.484C285.68 110.593 290.916 113.384 290.916 113.384C290.916 113.384 300.368 115.087 309.105 118.548C312.532 119.908 322.031 137.425 329.123 151.419Z" fill="#FAA146"/>
<path d="M284.771 67.3984C284.771 67.3984 297.625 69.2509 295.744 88.216C293.863 107.181 282.519 105.678 281.76 105.661C281.001 105.644 270.379 106.057 269.46 82.9133C269.46 82.9133 269.039 65.8007 284.771 67.3984Z" fill="#8E4F3A"/>
<path d="M290.483 102.297C290.483 102.297 289.688 112.163 291.591 115.117C293.495 118.072 289.965 122.084 282.699 120.713C275.432 119.343 275.854 115.225 275.854 115.225C275.854 115.225 277.89 109.133 277.294 104.263C276.698 99.3919 290.483 102.297 290.483 102.297Z" fill="#8E4F3A"/>
<path d="M283.303 74.2712C283.303 74.2712 289.306 80.5818 292.096 83.7773C294.885 86.9727 295.207 93.1449 295.207 93.1449C295.207 93.1449 299.916 87.4075 297.941 80.7258C295.966 74.0441 291.326 61.0462 279.557 65.042C267.789 69.0377 267.352 86.6017 268.731 95.3242C268.731 95.3242 274.025 76.0793 283.303 74.2712Z" fill="#16202E"/>
<path d="M294.996 114.248C294.996 114.248 286.081 136.815 280.663 140.736C280.663 140.736 273.549 117.72 274.045 114.35C274.045 114.35 284.779 110.139 294.996 114.248Z" fill="#8E4F3A"/>
<path d="M276.158 108.79C276.158 108.79 260.268 122.912 264.393 131.74C267.911 139.263 280.391 134.647 278.333 126.756C276.275 118.864 276.158 108.79 276.158 108.79Z" fill="#16202E"/>
<path d="M278.236 104.803C278.236 104.803 283.713 107.389 289.04 103.568C288.488 104.542 287.708 105.368 286.768 105.976C285.827 106.584 284.753 106.956 283.638 107.059C279.718 107.494 278.236 104.803 278.236 104.803Z" fill="#633029"/>
<path d="M419.274 52.6006C419.274 52.6006 414.01 72.4242 412.902 76.8907C412.572 78.2364 411.517 80.5624 410.176 83.2151C410.176 83.2345 410.157 83.2539 410.143 83.2761C409.89 83.7821 409.723 84.3268 409.65 84.8876C409.436 86.5491 410.071 87.8422 408.971 89.8055L408.772 90.6362H398.341C399.56 87.0364 401.112 82.4232 402.342 78.7293C403.381 75.6031 404.201 73.1165 404.417 72.3965C405.062 70.245 407.428 63.2808 409.436 58.6593C410.137 57.0477 412.838 55.4555 415.232 54.3064C417.376 53.268 419.274 52.6006 419.274 52.6006Z" fill="#323657"/>
<path d="M412.295 24.2817C412.295 24.2817 408.971 2.78008 426.784 3.17606C444.597 3.57203 444.361 14.2051 444.046 24.7579C443.73 35.3108 436.901 34.516 444.6 49.1947C452.298 63.8734 437.934 63.8706 437.934 63.8706L426.784 48.5578L412.295 24.2817Z" fill="#FCCCA2"/>
<path d="M424.836 5.23899C424.836 5.23899 412.772 7.14409 412.295 24.2817C411.819 41.4193 415.548 45.0661 426.114 41.4996C436.679 37.933 440.006 19.998 440.242 17.2206C440.477 14.4433 441.109 3.17606 424.836 5.23899Z" fill="#EEA886"/>
<path d="M446.026 64.8509C446.068 70.7462 439.286 84.8544 438.239 89.2184C438.117 89.7252 437.984 90.1931 437.851 90.6334H404.924C404.752 88.6009 404.591 86.8648 404.511 85.8818C404.25 82.6614 400.984 75.7222 401.092 72.4907C401.206 69.1983 402.824 66.3573 405.084 62.8434C405.785 61.7524 406.525 60.6447 407.259 59.5648C409.658 56.0481 412.052 52.8554 413.226 51.7561C413.974 51.0546 414.777 50.4147 415.628 49.8427C416.395 49.3059 417.226 48.8677 418.102 48.5385L428.471 46.8771C428.471 46.8771 434.934 49.2197 438.655 50.0864C438.66 50.0809 445.915 51.1414 446.026 64.8509Z" fill="#E55353"/>
<path d="M415.636 49.8344L409.625 59.3018L404.084 68.0408C404.084 67.9938 404.467 66.6563 405.093 62.8378C405.215 62.1123 405.343 61.2918 405.478 60.3761C405.519 60.1042 405.578 59.8351 405.652 59.5704C408.026 54.0987 415.368 49.9729 415.625 49.8372L415.636 49.8344Z" fill="#E55353"/>
<path d="M432.892 33.7795C431.848 35.7538 430.743 48.0068 430.743 48.0068C430.743 48.0068 415.985 53.5837 417.498 50.4297C418.182 48.9981 418.382 47.1401 418.396 45.5396C418.405 44.5449 418.35 43.5506 418.232 42.5629C418.193 42.2417 418.166 42.0562 418.166 42.0562C418.166 42.0562 433.94 31.8052 432.892 33.7795Z" fill="#EEA886"/>
<path d="M419.914 17.539C419.914 17.539 426.114 27.6211 431.743 31.5808C437.372 35.5406 434.513 38.7222 434.513 38.7222C434.513 38.7222 449.218 7.77819 435.239 5.63772C421.26 3.49725 412.686 3.33665 412.29 24.2817C412.295 24.2817 418.634 17.3757 419.914 17.539Z" fill="#FCCCA2"/>
<path d="M426.648 41.3002C424.382 44.6397 418.398 45.5396 418.398 45.5396C418.408 44.5449 418.353 43.5506 418.235 42.5629C422.077 43.3022 426.648 41.3002 426.648 41.3002Z" fill="#A77860"/>
<path d="M405.669 59.5066C405.669 59.5066 405.347 60.1684 405.084 62.8295L407.259 59.5509C407.259 59.5509 411.137 53.988 412.47 52.5425C413.435 51.5405 414.492 50.6319 415.628 49.8289C415.628 49.8289 407.99 53.5034 405.669 59.5066Z" fill="#EBEEFF"/>
<path d="M435.034 67.8027C435.034 67.8027 444.505 64.0894 447.309 63.8734C447.309 63.8734 445.403 48.6714 436.1 50.2802C426.798 51.889 435.034 67.8027 435.034 67.8027Z" fill="#E55353"/>
<path d="M418.107 48.5302C418.107 48.5302 411.154 59.2159 413.506 60.1601C415.858 61.1044 428.601 58.9141 434.006 48.7628C434.02 48.7545 425.92 44.6037 418.107 48.5302Z" fill="#EEA886"/>
<path d="M447.309 63.8735C446.827 72.2526 444.447 80.2108 442.486 87.4989C442.209 88.5539 441.932 89.6006 441.672 90.6279H422.388C422.34 87.7398 422.349 85.1895 422.437 83.0629C423.41 59.803 430.784 47.5749 430.784 47.5749C430.784 47.5749 433.139 48.3641 439.926 50.283C444.569 51.5955 446.323 57.5019 446.963 61.0823C446.965 61.0961 446.965 61.11 446.963 61.1238C447.128 62.0333 447.244 62.9513 447.309 63.8735Z" fill="#323657"/>
<path d="M418.102 48.5357C417.037 50.3962 416.079 52.3165 415.235 54.287C412.952 59.5205 410.099 67.811 409.858 76.9433C409.78 79.8757 409.198 84.6274 408.312 90.6279H404.464C404.153 86.5987 403.443 82.6102 402.345 78.721C401.818 76.8491 401.336 75.4535 401.076 74.5674C399.846 70.3945 403.771 64.837 405.084 62.8489C406.397 60.8607 409.547 51.7118 418.102 48.5357Z" fill="#323657"/>
<path d="M453.451 90.6278H443.095C443.095 89.955 442.866 88.8557 442.486 87.4988C440.605 80.8144 435.037 67.7999 435.037 67.7999C435.037 67.7999 426.704 54.1928 434.599 50.7232C442.494 47.2536 445.893 56.948 446.954 61.085C446.956 61.0988 446.956 61.1127 446.954 61.1265C447.226 62.1178 451.927 80.0307 453.451 90.6278Z" fill="#323657"/>
<path d="M284.569 284.671C284.569 284.671 288.19 284.621 289.478 283.228C290.766 281.836 293.04 280.584 293.772 280.229C294.747 279.756 297.445 277.131 297.786 278.413C298.127 279.695 293.486 282.943 292.603 283.821C291.719 284.699 296.456 285.081 297.151 285.934C297.847 286.787 295.428 295.742 292.273 295.047C289.118 294.352 286.533 291.17 285.937 291.17C285.342 291.17 283.605 290.771 283.605 290.771L284.569 284.671Z" fill="#EEA886"/>
<path d="M296.481 285.568C296.481 285.568 305.9 288.442 306.288 289.257C306.676 290.071 306.412 290.669 305.515 290.442C304.617 290.215 296.295 287.977 296.295 287.977C296.295 287.977 306.587 293.604 307.052 294.166C307.329 294.496 306.872 295.672 306.374 295.603C305.875 295.534 295.276 290.677 295.276 290.677C295.276 290.677 304.878 295.938 305.116 296.578C305.327 297.132 304.681 298.137 303.936 297.805C303.191 297.472 293.941 293.197 293.941 293.197C293.941 293.197 300.631 297.577 300.526 298.297C300.462 298.738 300.113 299.768 298.429 298.574C296.744 297.381 292.425 295.08 292.425 295.08L296.481 285.568Z" fill="#EEA886"/>
<path d="M264.756 443.5C264.756 443.5 267.778 448.019 272.017 448.997C276.255 449.974 280.43 451.525 280.46 454.2C280.491 456.875 268.208 458.467 263.357 455.773C256.118 451.749 255.381 452.962 254.578 450.952C253.774 448.942 255.542 443.564 255.489 442.922C255.425 442.146 264.756 443.5 264.756 443.5Z" fill="#353A3D"/>
<path d="M264.285 441.271C264.285 441.271 264.839 443.456 264.756 443.5C264.673 443.545 255.204 444.674 255.489 442.924C255.722 441.504 256.043 439.959 256.043 439.959L264.285 441.271Z" fill="#81807E"/>
<path d="M205.292 443.201C205.292 443.201 207.447 447.524 211.129 448.997C215.065 450.57 218.223 452.381 218.151 454.984C218.079 457.587 208.527 460.228 201.58 455.23C197.189 452.071 195.798 452.057 195.092 450.066C194.385 448.075 196.316 442.908 196.288 442.282C196.258 441.512 205.292 443.201 205.292 443.201Z" fill="#353A3D"/>
<path d="M205.4 440.958C205.4 440.958 205.372 443.174 205.292 443.201C205.211 443.229 196.056 443.996 196.288 442.282C196.472 441.251 196.77 440.243 197.177 439.278L205.4 440.958Z" fill="#81807E"/>
<path d="M238.956 308.911C238.956 308.911 250.976 354.944 255.556 365.585C259.794 375.446 261.193 389.235 261.778 396.161C262.512 404.869 266.883 438.804 267.399 441.34C267.914 443.877 253.27 442.747 253.27 442.747C253.27 442.747 243.167 384.096 238.97 375.537C236.172 369.827 219.927 328.865 218.068 331.232C216.209 333.6 213.913 374.632 212.528 381.446C211.142 388.261 206.923 442.088 206.923 442.088C206.923 442.088 197.474 443.473 194.953 441.349C194.953 441.349 193.803 395.383 194.676 382.609C195.011 377.741 188.972 324.243 196.718 302.709C200.798 291.317 238.956 308.911 238.956 308.911Z" fill="#2D3133"/>
<path d="M171.998 275.901C171.998 276.428 172.993 278.532 174.583 281.561C176.902 276.92 178.739 273.108 179.323 271.706C181.279 267.088 191.363 256.502 191.363 256.502C191.362 256.509 191.362 256.516 191.363 256.524C191.363 256.524 191.363 256.554 191.363 256.568C191.369 256.598 191.378 256.628 191.388 256.657C191.388 256.676 191.388 256.695 191.388 256.715C191.388 256.734 191.388 256.742 191.388 256.756C191.942 258.8 195.308 271.576 195.432 277.87C195.568 284.721 197.371 297.398 197.371 297.398L199.477 297.691L204.136 298.347L204.69 298.425L206.045 298.616L218.398 300.352L222.778 300.97L223.371 301.053L225.864 301.404L232.789 302.376L234.554 302.623L235.876 302.808L237.701 303.066C237.751 302.999 239.477 300.637 239.211 295.39C239.042 292.003 238.632 285.64 238.804 279.737C238.804 279.706 238.804 279.676 238.804 279.645C238.804 279.57 238.804 279.498 238.804 279.424C238.805 279.399 238.805 279.374 238.804 279.349C238.912 276.104 239.197 273.03 239.804 270.696C240.189 269.178 240.476 267.637 240.663 266.082L240.688 265.869C240.721 265.592 240.748 265.315 240.773 265.061C241.02 262.603 241.042 260.129 240.84 257.667V257.681C240.965 257.958 241.868 261.256 243.056 265.335C245.053 272.227 247.851 281.332 249.043 281.769C250.774 282.409 278.837 290.716 284.898 291.566C285.599 291.666 286.007 291.663 286.045 291.541L286.128 291.264C286.865 288.836 287.877 284.713 288.04 284.048L288.062 283.954L286.976 283.63L256.442 274.492L242.483 234.258C242.192 234.025 238.762 232.367 236.258 231.176C233.706 229.96 230.629 228.177 227.842 226.651C226.418 225.873 225.071 225.164 223.911 224.63L223.733 224.55L220.534 223.09L219.703 223.01C217.021 222.755 208.691 221.974 205.898 221.811C205.668 221.811 205.474 221.789 205.328 221.786C205.181 221.783 205.103 221.786 205.051 221.786C204.696 221.808 202.981 222.406 200.723 223.265L200.466 223.364L200.147 223.484L199.552 223.713L198.311 224.201L197.87 224.372C193.352 226.167 188.174 228.379 186.947 229.263C186.135 229.844 183.606 234.612 180.672 240.508C176.894 252.606 172.104 271.128 171.954 275.694C172.001 275.766 171.998 275.835 171.998 275.901Z" fill="#DECBC4"/>
<path d="M237.759 303.093C237.759 303.093 238.687 304.201 238.956 308.908C238.956 308.908 200.746 304.453 196.707 302.698C196.707 302.698 196.549 297.511 197.405 297.42C198.347 297.326 237.759 303.093 237.759 303.093Z" fill="#495055"/>
<path d="M205.173 220.49C205.292 226.485 216.902 229.764 216.902 229.764C216.902 229.764 221.758 223.672 220.6 223.096C220.143 222.866 219.958 221.958 219.902 220.939C219.865 220.032 219.887 219.124 219.969 218.22C220.002 217.796 220.035 217.525 220.035 217.525C220.035 217.525 218.373 215.775 216.265 213.69C212.578 210.045 207.508 205.382 207.5 207.232C207.502 207.35 207.516 207.468 207.541 207.584C208.433 211.762 205.173 220.49 205.173 220.49Z" fill="#EEA886"/>
<path d="M206.137 298.342C206.137 298.342 205.306 303.603 205.228 304.971L203.461 304.616C203.461 304.616 203.948 299.056 204.234 298.123L206.137 298.342Z" fill="#353A3D"/>
<path d="M234.571 302.481C234.571 302.481 235.241 307.258 235.255 309.064L233.385 308.82C233.385 308.82 233.003 302.853 232.789 302.229L234.571 302.481Z" fill="#353A3D"/>
<path d="M209.644 211.707C209.669 211.74 210.159 212.477 211.001 213.534C212.783 215.775 216.135 219.457 219.902 220.936C219.865 220.029 219.887 219.121 219.969 218.217C220.356 218.208 220.742 218.162 221.121 218.078C220.358 216.796 219.515 215.562 218.597 214.385L216.265 213.701L209.644 211.707Z" fill="#A77860"/>
<path d="M207.416 207.312C208.419 209.497 209.372 211.081 209.633 211.707C209.994 212.379 210.451 212.995 210.99 213.534C212.904 215.595 216.461 218.314 219.958 218.217C220.345 218.208 220.731 218.161 221.11 218.078C222.523 217.771 224.188 217.115 225.107 215.309C232.349 201.135 227.105 189.541 227.105 189.541C227.105 189.541 207.297 183.944 204.2 189.903C202.037 194.096 205.045 202.181 207.416 207.312Z" fill="#EEA886"/>
<path d="M227.116 189.552C227.116 189.552 228.955 189.452 229.413 185.966C229.87 182.48 228.953 181.58 228.953 181.58C228.953 181.58 220.775 178.16 217.838 177.703C214.902 177.246 207.682 176.831 205.99 178.766C205.99 178.766 201.876 177.811 200.757 184.634C198.978 195.458 206.813 205.969 206.813 205.969C206.813 205.969 206.746 198.897 208.306 197.961C209.865 197.025 211.215 199.252 211.215 199.252L214.406 199.825C214.406 199.825 209.558 189.361 215.373 188.973C221.188 188.585 223.789 190.164 227.116 189.552Z" fill="#252E3B"/>
<path d="M211.14 196.43C210.835 193.315 205.198 192.124 205.577 195.392C205.957 198.659 208.73 201.794 210.01 201.683C211.289 201.572 211.356 198.806 211.14 196.43Z" fill="#EEA886"/>
<path d="M174.572 281.561C177.026 286.244 180.899 293.133 184.725 299.815C184.221 300.755 183.732 301.685 183.26 302.606C182.158 304.695 181.19 306.852 180.362 309.064C179.489 311.506 178.279 317.758 180.597 318.921L192.823 325.664L193.069 324.983C193.474 323.875 194.352 321.538 195.562 318.498C195.601 318.401 195.723 318.11 195.906 317.684C196.15 317.11 196.499 316.299 196.9 315.358C197.081 314.939 197.269 314.496 197.455 314.042L198.136 312.458C198.468 311.686 198.798 310.913 199.106 310.202C199.937 308.263 200.59 306.751 200.59 306.751L200.715 306.475C201.111 305.613 201.521 304.752 201.934 303.891C202.577 302.559 203.239 301.233 203.915 299.934L204.12 299.541C204.242 299.314 204.361 299.084 204.483 298.86L204.707 298.444L204.757 298.353L204.848 298.19C208.383 291.746 212.364 286.357 213.633 278.457C213.755 277.693 213.871 276.937 213.982 276.184C214.165 274.93 214.337 273.692 214.489 272.476C214.547 272.019 214.605 271.565 214.661 271.114C215.295 265.853 215.675 261.145 215.982 257.875C216.938 247.682 210.694 236.648 205.898 229.83C204.311 227.554 202.599 225.368 200.771 223.282L200.746 223.257L200.488 223.356L200.169 223.475L199.574 223.705L198.333 224.193L197.892 224.364C193.249 226.186 183.47 228.875 182.24 229.756C181.531 230.262 179.941 234.914 178.107 240.79C174.328 252.888 172.087 271.13 171.976 275.68C171.976 275.752 171.976 275.821 171.976 275.888C171.998 276.428 172.993 278.532 174.572 281.561ZM193.133 279.285C193.133 281.559 192.393 284.162 191.257 286.936C191.227 287.005 191.199 287.077 191.169 287.147C190.385 285.485 189.648 283.874 188.986 282.392C187.168 278.322 185.919 275.148 185.85 273.891C185.401 265.822 191.346 256.532 191.346 256.532C191.346 256.532 191.346 256.563 191.346 256.576L191.371 256.665C191.371 256.684 191.371 256.704 191.371 256.723C191.371 256.743 191.371 256.751 191.371 256.765C192.654 261.577 193.155 279.285 193.155 279.285H193.133Z" fill="#3C4145"/>
<path d="M216.373 309.695L181.531 325.201C180.584 325.621 179.509 325.649 178.542 325.278C177.575 324.906 176.795 324.167 176.373 323.222L166.835 301.8C166.415 300.854 166.387 299.78 166.758 298.813C167.13 297.846 167.87 297.067 168.815 296.644L203.657 281.138C204.604 280.717 205.679 280.689 206.646 281.061C207.614 281.432 208.394 282.172 208.815 283.118L218.354 304.539C218.562 305.007 218.677 305.512 218.69 306.025C218.704 306.538 218.616 307.048 218.432 307.527C218.248 308.006 217.971 308.444 217.618 308.816C217.265 309.188 216.842 309.486 216.373 309.695Z" fill="#B3A5A0"/>
<path d="M223.883 224.708C223.883 224.708 225.518 230.146 227.631 243.717C227.703 244.174 227.773 244.636 227.845 245.101L227.87 245.265C227.917 245.578 227.966 245.896 228.014 246.22L228.03 246.334C228.063 246.55 228.097 246.766 228.127 246.987C228.207 247.524 228.285 248.07 228.365 248.626C229.307 255.233 230.631 266.476 231.903 277.826C232.906 286.773 235.197 295.952 235.923 302.805C236.144 304.538 236.462 306.258 236.873 307.956C236.926 308.186 236.981 308.416 237.034 308.651C239.084 317.299 243.059 329.538 243.059 329.538L244.217 328.469L247.644 325.304C248.031 324.949 248.31 324.491 248.447 323.983C248.584 323.476 248.573 322.94 248.417 322.438C246.514 316.305 240.05 294.604 238.865 279.343C239.447 273.98 240.931 266.786 240.71 265.75C240.71 265.789 240.737 265.825 240.749 265.864C241.43 267.755 242.184 269.812 242.945 271.814C244.984 277.189 247.073 282.173 247.932 282.492C249.871 283.203 284.608 293.446 284.86 292.017C284.885 291.873 284.915 291.721 284.948 291.558C284.982 291.394 285.015 291.231 285.051 291.056C285.48 289.099 286.259 286.294 286.802 284.411C286.885 284.134 286.96 283.857 287.026 283.638L287.403 282.353L258.038 272.717L243.214 233.967C242.937 233.737 239.142 231.702 236.637 230.511C234.028 229.271 230.728 227.742 227.803 226.388L223.974 224.627L223.883 224.708Z" fill="#3C4145"/>
<path d="M203.995 238.14L209.644 241.325L207.231 243.786L213.658 278.466C214.968 270.339 215.564 262.618 216.007 257.883C217.486 242.128 201.751 224.353 200.771 223.27C200.014 223.547 199.197 223.871 198.355 224.206L203.995 238.14Z" fill="#51565C"/>
<path d="M223.8 224.555C223.8 224.555 225.911 231.445 228.371 248.646C229.313 255.253 230.637 266.498 231.909 277.845L233.225 245.367L230.532 242.451L232.925 239.464L227.806 226.399C226.407 225.754 225.091 225.148 223.977 224.638L223.8 224.555Z" fill="#51565C"/>
<path d="M200.458 223.392L205.167 220.499C205.167 220.499 205.297 223.065 216.896 229.772L213.603 239.046L200.458 223.392Z" fill="#F5E2D9"/>
<path d="M219.988 221.783C219.988 221.783 219.805 224.552 216.902 229.764L223.332 238.14L223.8 224.555L219.988 221.783Z" fill="#F5E2D9"/>
<path d="M216.885 229.761C216.885 229.761 215.639 234.745 216.088 236.13C216.088 236.13 218.827 237.124 220.797 235.881C220.797 235.892 219.401 232.403 216.885 229.761Z" fill="#FAA146"/>
<path d="M223.329 301.604C224.024 298.09 223.362 287.559 223.329 287.113L222.731 287.149C222.731 287.257 223.418 298.051 222.731 301.487L223.329 301.604Z" fill="#AD9F99"/>
<path d="M218.448 299.984C218.448 299.984 224.069 300.654 225.927 301.119L225.684 307.419L218.32 306.632L218.448 299.984Z" fill="#69737A"/>
<path d="M219.678 235.443C219.678 235.443 225.95 251.271 224.925 268.99C223.866 287.36 222.127 294.019 222.127 294.019L218.248 298.865L216.542 292.909C216.542 292.909 221.731 269.488 218.381 246.699C217.775 242.571 216.874 234.745 216.874 234.745L219.678 235.443Z" fill="#FAA146"/>
<path d="M200.834 310.196C200.834 310.196 202.181 312.888 203.527 313.333C204.873 313.779 206.835 315.969 206.835 315.969L197.358 320.954C197.358 320.954 194.837 316.022 194.723 312.885C194.609 309.747 200.834 310.196 200.834 310.196Z" fill="#EEA886"/>
<path d="M201.735 310.448L202.361 311.711C202.361 311.711 196.344 316.108 194.723 316.388L194.169 314.707L201.735 310.448Z" fill="#DECBC4"/>
<path d="M202.361 310.503C202.361 310.503 197.853 314.23 194.05 315.95L177.027 286.114L187.892 280.174C187.892 280.174 202.062 308.263 202.361 310.503Z" fill="#3C4145"/>
<path d="M240.538 257.742C240.749 261.993 240.718 265.772 240.718 265.772C240.718 265.795 240.718 265.908 240.718 266.099L240.743 265.886C241.424 267.777 242.178 269.835 242.94 271.837C243.107 269.679 243.163 267.515 243.109 265.352C242.804 253.445 239.056 247.181 239.056 247.181C239.929 249.255 240.341 253.713 240.538 257.742Z" fill="#2D3133"/>
<path d="M388.465 218.447C388.465 218.447 388.288 216.256 388.546 215.235C388.992 213.471 388.335 210.61 390.557 209.223C392.779 207.836 399.164 213.653 399.666 215.268C400.167 216.882 397.782 219.657 392.787 221.98C387.792 224.303 388.465 218.447 388.465 218.447Z" fill="#EEA886"/>
<path d="M389.878 209.799C391.42 207.524 393.085 205.336 394.865 203.242C397.358 200.337 400.868 197.075 401.608 197.704C402.73 198.643 399.549 200.988 397.269 204.037C395.172 206.844 396.062 206.645 396.062 206.645C396.062 206.645 395.807 206.687 398.696 204.075C401.802 201.27 405.256 198.385 405.871 198.881C406.636 199.493 406.677 199.634 405.719 200.838C406.422 200.265 406.68 200.379 406.952 200.65C408.337 202.054 404.436 206.894 402.882 208.816C404.084 207.346 405.129 206.399 405.428 207.811C405.771 209.425 399.926 216.018 398.062 218.58C396.042 221.368 389.878 209.799 389.878 209.799Z" fill="#EEA886"/>
<path d="M315.18 442.681C315.18 442.681 321.258 446.28 324.009 447.607C326.76 448.933 337.451 449.324 338.509 450.326C339.567 451.328 339.177 454.524 337.401 454.851C335.625 455.177 322.633 456.351 318.286 455.338C313.939 454.324 305.842 456.03 304.047 455.421C302.252 454.812 303.407 445.134 304.102 442.96C304.797 440.787 315.18 442.681 315.18 442.681Z" fill="#181929"/>
<path d="M315.685 438.724L315.18 442.681C315.18 442.681 307.055 444.198 304.592 442.958L305.202 438.848L315.685 438.724Z" fill="#22243B"/>
<path d="M348.269 303.578C348.183 306.317 347.681 312.262 347.102 318.506C346.972 319.89 346.825 321.294 346.701 322.679C345.892 331.08 345.072 338.85 345.072 338.85C344.047 345.537 341.93 357.148 339.564 365.928C338.88 368.462 338.179 370.76 337.476 372.635C336.789 374.46 336.091 375.886 335.434 376.739C330.398 383.169 318.854 440.15 318.854 440.15L303.096 440.031C303.096 440.031 306.562 401.439 310.044 391.656C313.923 380.729 320.682 366.006 319.006 355.47C317.956 348.857 316.604 327.81 316.604 327.81C316.604 327.81 315.286 304.159 321.475 286.828C323.031 282.519 348.269 303.578 348.269 303.578Z" fill="#292C47"/>
<path d="M359.463 444.159C359.463 444.159 365.497 447.826 368.231 449.193C370.966 450.561 381.653 451.071 382.698 452.087C383.742 453.103 383.318 456.291 381.542 456.598C379.767 456.905 366.758 457.921 362.428 456.855C358.098 455.789 349.978 457.409 348.188 456.767C346.399 456.124 347.673 446.474 348.393 444.306C349.114 442.138 359.463 444.159 359.463 444.159Z" fill="#181929"/>
<path d="M360.017 440.208L359.463 444.157C359.463 444.157 351.322 445.58 348.875 444.298L349.535 440.194L360.017 440.208Z" fill="#22243B"/>
<path d="M341.18 383.695C340.77 371.09 339.656 362.716 336.412 355.434C333.686 349.317 331.353 330.114 331.353 330.114C331.353 330.114 323.968 307.607 325.466 289.273C325.84 284.693 354.385 296.196 354.385 296.196C355.011 298.865 356.92 307.272 357.599 313.497C361.477 349.098 360.017 372.289 360.017 372.289C357.801 380.15 363.386 442 363.386 442H347.318C347.318 442 343.108 419.997 342.664 406.315C342.664 406.326 341.022 385.874 341.18 383.695Z" fill="#292C47"/>
<path d="M340.822 220.587C340.822 220.587 348.302 232.857 350.496 239.694C352.69 246.53 350.923 266.44 351.308 270.43C352.507 282.841 354.255 296.503 354.255 296.503L329.154 312.555C325.946 304.832 323.132 296.951 320.721 288.944C316.793 275.849 316.477 264.058 316.513 256.18C316.629 231.47 329.99 217.516 329.99 217.516L340.822 220.587Z" fill="#CFBEB6"/>
<path d="M350.044 187.685C350.044 187.685 355.192 193.19 353.737 194.636C352.538 195.832 357.267 201.317 357.94 202.24C358.613 203.162 355.84 204.69 355.383 205.518C354.926 206.346 355.194 214.98 352.815 215.866C350.435 216.752 338.409 215.816 334.583 213.485C330.758 211.153 324.61 197.701 325.043 191.244C325.475 184.786 340.994 178.085 350.044 187.685Z" fill="#EEA886"/>
<path d="M345.18 214C345.18 214 345.091 214.733 344.972 215.872C344.928 216.348 344.87 216.891 344.82 217.486C344.789 217.838 344.759 218.211 344.723 218.593C344.723 218.696 344.701 218.798 344.695 218.901C344.678 219.078 344.665 219.253 344.651 219.438C344.592 220.269 344.532 221.124 344.487 221.974C344.379 224.17 344.363 226.266 344.598 227.435C345.23 230.633 331.445 217.134 331.445 217.134C332.17 209.745 332.372 202.314 332.049 194.896C331.475 183.128 345.18 214 345.18 214Z" fill="#EEA886"/>
<path d="M351.1 188.893C351.1 188.893 353.535 183.152 346.027 179.168C337.19 174.477 327.818 186.254 326.575 186.949C325.331 187.644 319.682 193.999 325.212 202.425C332.19 213.055 331.821 212.698 331.821 212.698C331.821 212.698 332.52 204.856 332.475 203.342C332.392 200.573 339.65 200.249 339.65 200.249C339.65 200.249 336.669 196.283 339.983 194.503C343.296 192.722 347.174 188.502 351.1 188.893Z" fill="#3A3F47"/>
<path d="M335.838 199.246C335.309 198.504 333.37 195.226 330.877 198.103C328.384 200.98 335.071 206.36 335.625 206.307C336.179 206.255 340.285 205.49 335.838 199.246Z" fill="#EEA886"/>
<path d="M355.624 301.811C355.624 301.811 354.377 295.941 354.133 295.063L317.433 301.169L317.809 305.91C317.809 305.91 344.252 304.328 355.624 301.811Z" fill="#23263D"/>
<path d="M314.167 275.957C314.167 275.957 319.804 300.294 310.975 328.688C309.898 332.155 335.417 328.134 335.417 328.134L314.167 275.957Z" fill="#FAA146"/>
<path d="M346.584 326.367C346.584 326.367 328.458 330.344 323.367 328.544C323.367 328.544 315.959 301.607 313.374 274.271C313.175 272.158 313.003 270.042 312.867 267.941C311.427 245.697 317.089 223.129 329.996 217.519C330.359 217.763 348.537 233.782 348.191 248.444C348.167 249.437 348.152 250.432 348.147 251.429C348.147 253.231 348.147 255.028 348.186 256.842C348.302 262.419 348.648 267.982 349.141 273.384C349.188 273.938 349.244 274.511 349.299 275.068C349.388 275.976 349.48 276.879 349.576 277.776C349.705 278.969 349.84 280.152 349.981 281.326C352.917 305.791 346.584 326.367 346.584 326.367Z" fill="#FAA146"/>
<path d="M345.842 231.301C348.189 241.338 349.764 251.54 350.551 261.818C351.64 276.043 353.095 286.103 353.095 286.103L355.275 293.144L356.17 286.352C356.17 286.352 355.372 267.993 354.305 260.525C353.23 252.996 352.762 243.437 346.74 231.037L345.842 231.301Z" fill="#D44040"/>
<path d="M345.46 231.312C345.74 231.561 346.084 231.728 346.454 231.793C347.036 231.879 347.87 230.963 344.892 227.02L345.46 231.312Z" fill="#D44040"/>
<path d="M331.605 215.478C331.605 215.478 340.046 223.423 345.069 225.17L346.028 232.779L329.985 217.508L331.605 215.478Z" fill="#EDDAD3"/>
<path d="M337.274 246.24C333.949 245.057 320.117 238.348 323.796 230.517C327.475 222.686 336.955 226.851 344.091 230.038C351.557 233.361 369.182 243.606 370.578 242.659C371.974 241.712 378.058 232.984 379.166 231.029C380.274 229.074 386.922 216.664 387.549 215.728C388.175 214.792 397.829 222.927 397.829 222.927C397.829 222.927 380.47 253.741 375.8 258.648C371.129 263.554 337.274 246.24 337.274 246.24Z" fill="#FAA146"/>
<path d="M339.576 365.928C338.891 368.462 338.19 370.76 337.487 372.635L331.991 339.864C333.378 342.97 339.576 365.928 339.576 365.928Z" fill="#181929"/>
<path d="M348.186 256.834L332.281 243.85C336.495 246.107 346.848 250.831 348.147 251.42C348.133 253.223 348.147 255.031 348.186 256.834Z" fill="#8F5C28"/>
<path d="M344.972 215.872C344.928 216.348 344.87 216.891 344.82 217.486C344.789 217.838 344.759 218.211 344.723 218.593C339.459 218.242 335.379 214.044 335.129 213.789C337.273 215.489 344.972 215.872 344.972 215.872Z" fill="#A77860"/>
<g opacity="0.95">
<path opacity="0.95" d="M551.51 95.1082H559.863L557.306 89.811H548.956L551.51 95.1082Z" fill="url(#paint6_linear_251_22923)"/>
<path opacity="0.95" d="M547.604 95.1082H549.593L547.039 89.811H545.047L547.604 95.1082Z" fill="url(#paint7_linear_251_22923)"/>
<path opacity="0.95" d="M518.755 88.7975H552.566L551.444 86.1503H517.633L518.755 88.7975Z" fill="url(#paint8_linear_251_22923)"/>
</g>
<path d="M337.168 0H324.403C323.971 0 323.622 0.349609 323.622 0.780871V3.53606C323.622 3.96733 323.971 4.31693 324.403 4.31693H337.168C337.6 4.31693 337.949 3.96733 337.949 3.53606V0.780871C337.949 0.349609 337.6 0 337.168 0Z" fill="url(#paint9_linear_251_22923)"/>
<path d="M337.168 10.3506H324.403C323.971 10.3506 323.622 10.7003 323.622 11.1315V13.8867C323.622 14.318 323.971 14.6676 324.403 14.6676H337.168C337.6 14.6676 337.949 14.318 337.949 13.8867V11.1315C337.949 10.7003 337.6 10.3506 337.168 10.3506Z" fill="url(#paint10_linear_251_22923)"/>
<path d="M337.168 20.6985H324.403C323.971 20.6985 323.622 21.0482 323.622 21.4794V24.2346C323.622 24.6659 323.971 25.0155 324.403 25.0155H337.168C337.6 25.0155 337.949 24.6659 337.949 24.2346V21.4794C337.949 21.0482 337.6 20.6985 337.168 20.6985Z" fill="url(#paint11_linear_251_22923)"/>
<path d="M347.161 0H344.645C344.214 0 343.864 0.349609 343.864 0.780871V3.53606C343.864 3.96733 344.214 4.31693 344.645 4.31693H347.161C347.592 4.31693 347.942 3.96733 347.942 3.53606V0.780871C347.942 0.349609 347.592 0 347.161 0Z" fill="url(#paint12_linear_251_22923)"/>
<path d="M347.161 10.3506H344.645C344.214 10.3506 343.864 10.7003 343.864 11.1315V13.8867C343.864 14.318 344.214 14.6676 344.645 14.6676H347.161C347.592 14.6676 347.942 14.318 347.942 13.8867V11.1315C347.942 10.7003 347.592 10.3506 347.161 10.3506Z" fill="url(#paint13_linear_251_22923)"/>
<path d="M347.161 20.6985H344.645C344.214 20.6985 343.864 21.0482 343.864 21.4794V24.2346C343.864 24.6659 344.214 25.0155 344.645 25.0155H347.161C347.592 25.0155 347.942 24.6659 347.942 24.2346V21.4794C347.942 21.0482 347.592 20.6985 347.161 20.6985Z" fill="url(#paint14_linear_251_22923)"/>
<path d="M282.813 249.064H297.802L293.215 239.552H278.225L282.813 249.064Z" fill="url(#paint15_linear_251_22923)"/>
<path d="M275.801 249.064H279.372L274.784 239.552H271.213L275.801 249.064Z" fill="url(#paint16_linear_251_22923)"/>
<defs>
<linearGradient id="paint0_linear_251_22923" x1="294.353" y1="338.036" x2="282.953" y2="131.31" gradientUnits="userSpaceOnUse">
<stop stop-color="#D1D7E0"/>
<stop offset="1" stop-color="#EBEBFF"/>
</linearGradient>
<linearGradient id="paint1_linear_251_22923" x1="447377" y1="387539" x2="447377" y2="207201" gradientUnits="userSpaceOnUse">
<stop stop-color="#D1D7E0"/>
<stop offset="1" stop-color="#EBEBFF"/>
</linearGradient>
<linearGradient id="paint2_linear_251_22923" x1="150308" y1="99459.1" x2="150308" y2="51987.9" gradientUnits="userSpaceOnUse">
<stop stop-color="#D1D7E0"/>
<stop offset="1" stop-color="#EBEBFF"/>
</linearGradient>
<linearGradient id="paint3_linear_251_22923" x1="74.1079" y1="504.256" x2="95.1413" y2="413.546" gradientUnits="userSpaceOnUse">
<stop stop-color="#C9C4C1"/>
<stop offset="1" stop-color="#FFF6DE"/>
</linearGradient>
<linearGradient id="paint4_linear_251_22923" x1="37961.8" y1="83250.7" x2="47628.5" y2="83250.7" gradientUnits="userSpaceOnUse">
<stop stop-color="#C9C4C1"/>
<stop offset="1" stop-color="#FFF6DE"/>
</linearGradient>
<linearGradient id="paint5_linear_251_22923" x1="218630" y1="67808.6" x2="218630" y2="37211.8" gradientUnits="userSpaceOnUse">
<stop stop-color="#D1D7E0"/>
<stop offset="1" stop-color="#EBEBFF"/>
</linearGradient>
<linearGradient id="paint6_linear_251_22923" x1="27602.1" y1="3035.83" x2="28031.4" y2="3035.83" gradientUnits="userSpaceOnUse">
<stop stop-color="#D1D7E0"/>
<stop offset="1" stop-color="#EBEBFF"/>
</linearGradient>
<linearGradient id="paint7_linear_251_22923" x1="11757" y1="3035.82" x2="11831.6" y2="3035.82" gradientUnits="userSpaceOnUse">
<stop stop-color="#D1D7E0"/>
<stop offset="1" stop-color="#EBEBFF"/>
</linearGradient>
<linearGradient id="paint8_linear_251_22923" x1="83217" y1="1510.74" x2="87622.1" y2="1510.74" gradientUnits="userSpaceOnUse">
<stop stop-color="#D1D7E0"/>
<stop offset="1" stop-color="#EBEBFF"/>
</linearGradient>
<linearGradient id="paint9_linear_251_22923" x1="24208.6" y1="993.11" x2="24949.7" y2="993.11" gradientUnits="userSpaceOnUse">
<stop stop-color="#D1D7E0"/>
<stop offset="1" stop-color="#EBEBFF"/>
</linearGradient>
<linearGradient id="paint10_linear_251_22923" x1="24208.6" y1="1164.78" x2="24949.7" y2="1164.78" gradientUnits="userSpaceOnUse">
<stop stop-color="#D1D7E0"/>
<stop offset="1" stop-color="#EBEBFF"/>
</linearGradient>
<linearGradient id="paint11_linear_251_22923" x1="24208.6" y1="1336.5" x2="24949.7" y2="1336.5" gradientUnits="userSpaceOnUse">
<stop stop-color="#D1D7E0"/>
<stop offset="1" stop-color="#EBEBFF"/>
</linearGradient>
<linearGradient id="paint12_linear_251_22923" x1="7439.73" y1="993.11" x2="7499.76" y2="993.11" gradientUnits="userSpaceOnUse">
<stop stop-color="#D1D7E0"/>
<stop offset="1" stop-color="#EBEBFF"/>
</linearGradient>
<linearGradient id="paint13_linear_251_22923" x1="7439.73" y1="1164.78" x2="7499.76" y2="1164.78" gradientUnits="userSpaceOnUse">
<stop stop-color="#D1D7E0"/>
<stop offset="1" stop-color="#EBEBFF"/>
</linearGradient>
<linearGradient id="paint14_linear_251_22923" x1="7439.73" y1="1336.5" x2="7499.76" y2="1336.5" gradientUnits="userSpaceOnUse">
<stop stop-color="#D1D7E0"/>
<stop offset="1" stop-color="#EBEBFF"/>
</linearGradient>
<linearGradient id="paint15_linear_251_22923" x1="29706.4" y1="10745.4" x2="31090" y2="10745.4" gradientUnits="userSpaceOnUse">
<stop stop-color="#D1D7E0"/>
<stop offset="1" stop-color="#EBEBFF"/>
</linearGradient>
<linearGradient id="paint16_linear_251_22923" x1="12328.2" y1="10745.4" x2="12568.5" y2="10745.4" gradientUnits="userSpaceOnUse">
<stop stop-color="#D1D7E0"/>
<stop offset="1" stop-color="#EBEBFF"/>
</linearGradient>
</defs>
</svg>
