<svg width="84" height="85" viewBox="0 0 84 85" fill="none" xmlns="http://www.w3.org/2000/svg">
<path d="M25.2453 28.437H53.8137C54.5576 28.437 55.1607 27.8339 55.1607 27.09C55.1607 26.346 54.5576 25.7429 53.8137 25.7429H25.2453C24.5013 25.7429 23.8983 26.346 23.8983 27.09C23.8983 27.8339 24.5013 28.437 25.2453 28.437Z" fill="url(#paint0_linear_290_26733)"/>
<path d="M53.8135 32.4688H44.5051C43.7611 32.4688 43.1581 33.0718 43.1581 33.8158C43.1581 34.5598 43.7611 35.1628 44.5051 35.1628H53.8135C54.5575 35.1628 55.1606 34.5598 55.1606 33.8158C55.1606 33.0718 54.5575 32.4688 53.8135 32.4688Z" fill="url(#paint1_linear_290_26733)"/>
<path d="M25.2453 35.1628H35.0947C35.8386 35.1628 36.4417 34.5598 36.4417 33.8158C36.4417 33.0718 35.8386 32.4688 35.0947 32.4688H25.2453C24.5013 32.4688 23.8983 33.0718 23.8983 33.8158C23.8983 34.5598 24.5013 35.1628 25.2453 35.1628Z" fill="url(#paint2_linear_290_26733)"/>
<path d="M25.2453 41.8884H53.8137C54.5576 41.8884 55.1607 41.2854 55.1607 40.5414C55.1607 39.7974 54.5576 39.1943 53.8137 39.1943H25.2453C24.5013 39.1943 23.8983 39.7974 23.8983 40.5414C23.8983 41.2854 24.5013 41.8884 25.2453 41.8884Z" fill="url(#paint3_linear_290_26733)"/>
<path d="M25.2453 48.614H27.9346C28.6785 48.614 29.2816 48.0109 29.2816 47.267C29.2816 46.523 28.6785 45.9199 27.9346 45.9199H25.2453C24.5013 45.9199 23.8983 46.523 23.8983 47.267C23.8983 48.0109 24.5013 48.614 25.2453 48.614Z" fill="url(#paint4_linear_290_26733)"/>
<path d="M45.3305 45.6086H34.2935C33.5495 45.6086 32.9464 46.2117 32.9464 46.9557C32.9464 47.6997 33.5495 48.3027 34.2935 48.3027H45.3305C46.0745 48.3027 46.6776 47.6997 46.6776 46.9557C46.6776 46.2117 46.0745 45.6086 45.3305 45.6086Z" fill="url(#paint5_linear_290_26733)"/>
<path d="M43.038 53.9925C43.038 53.2486 42.4349 52.6455 41.691 52.6455H25.2453C24.5013 52.6455 23.8983 53.2486 23.8983 53.9925C23.8983 54.7365 24.5013 55.3396 25.2453 55.3396H41.6911C42.4349 55.3395 43.038 54.7364 43.038 53.9925Z" fill="url(#paint6_linear_290_26733)"/>
<path d="M25.2453 21.7078H41.7137C42.4576 21.7078 43.0607 21.1047 43.0607 20.3607C43.0607 19.6167 42.4576 19.0137 41.7137 19.0137H25.2453C24.5013 19.0137 23.8983 19.6167 23.8983 20.3607C23.8983 21.1047 24.5013 21.7078 25.2453 21.7078Z" fill="url(#paint7_linear_290_26733)"/>
<path d="M73.3532 50.4563L63.3684 45.0668V21.3107C63.3684 21.2622 63.3656 21.2144 63.3605 21.1671C63.3594 21.1571 63.3573 21.1472 63.356 21.1372C63.3512 21.0998 63.3455 21.0625 63.3377 21.0262C63.3353 21.0149 63.3318 21.004 63.3291 20.9928C63.3207 20.958 63.3116 20.9237 63.3005 20.8901C63.2965 20.8776 63.2916 20.8656 63.2872 20.8535C63.2758 20.8219 63.2638 20.7908 63.2502 20.7605C63.244 20.7469 63.2372 20.7335 63.2307 20.72C63.217 20.6921 63.2028 20.6647 63.1873 20.638C63.1788 20.6234 63.17 20.6092 63.1611 20.5949C63.1456 20.5703 63.1294 20.5462 63.1125 20.5227C63.1019 20.508 63.0912 20.4936 63.08 20.4793C63.0624 20.457 63.0439 20.4355 63.025 20.4143C63.013 20.4008 63.0012 20.3872 62.9885 20.3742C62.967 20.352 62.9443 20.3311 62.9213 20.3104C62.9122 20.3022 62.9042 20.2931 62.8949 20.2853L49.2141 8.62816C49.2113 8.62589 49.2083 8.62389 49.2055 8.62149C49.1912 8.60946 49.1763 8.59865 49.1615 8.58716C49.1436 8.5734 49.1258 8.55951 49.1072 8.54669C49.0904 8.53493 49.0729 8.52425 49.0555 8.51329C49.0382 8.50248 49.0209 8.49152 49.003 8.48151C48.9839 8.47069 48.9646 8.4608 48.9449 8.45092C48.9278 8.44237 48.9107 8.43382 48.8932 8.42607C48.8727 8.41672 48.8518 8.40818 48.8306 8.39989C48.813 8.39308 48.7953 8.38654 48.7774 8.38053C48.7562 8.37318 48.7348 8.36624 48.7131 8.35996C48.6937 8.35435 48.6741 8.34967 48.6544 8.34486C48.6339 8.33992 48.6133 8.33485 48.5923 8.33084C48.5684 8.3263 48.5444 8.32309 48.5202 8.31989C48.5028 8.31762 48.4857 8.31454 48.4682 8.31294C48.4262 8.3088 48.3834 8.3064 48.3404 8.3064H20.2752C17.7491 8.3064 15.6942 10.364 15.6942 12.8933V15.6149H13.3307C10.8026 15.6149 8.74591 17.6725 8.74591 20.2018V72.1069C8.74591 74.636 10.8026 76.6936 13.3307 76.6936H62.0212C62.0746 76.6936 62.1271 76.6896 62.1789 76.6836C62.7761 76.6452 63.3873 76.3937 64.1725 75.9236C67.3796 74.0065 70.1921 70.82 72.5321 66.4528C74.7037 62.4016 75.8328 58.1711 75.7972 54.219C75.776 51.8727 74.9445 51.3152 73.3532 50.4563V50.4563ZM49.6875 12.5708L58.3636 19.9636H52.3157C50.8665 19.9636 49.6875 18.7851 49.6875 17.3366V12.5708ZM11.44 72.1068V20.2018C11.44 19.1581 12.2882 18.309 13.3307 18.309H15.6942V64.7945C15.6942 67.3237 17.7491 69.3814 20.2752 69.3814H26.9587C27.7027 69.3814 28.3057 68.7784 28.3057 68.0344C28.3057 67.2904 27.7027 66.6873 26.9587 66.6873H20.2752C19.2347 66.6873 18.3882 65.8382 18.3882 64.7945V12.8933C18.3882 11.8496 19.2347 11.0005 20.2752 11.0005H46.9934V17.3366C46.9934 20.2707 49.381 22.6577 52.3157 22.6577H60.6742V45.0668L50.7314 50.4335L50.6918 50.4548C49.0963 51.3137 48.2628 51.8712 48.2416 54.2188C48.206 58.1711 49.3351 62.4015 51.5065 66.4525C51.5491 66.5321 51.5931 66.6084 51.6361 66.6872H38.9449C38.2009 66.6872 37.5979 67.2903 37.5979 68.0342C37.5979 68.7782 38.2009 69.3813 38.9449 69.3813H53.267C54.4941 71.2004 55.8259 72.7419 57.2528 73.9994H13.3307C12.2882 73.9996 11.44 73.1506 11.44 72.1068V72.1068ZM70.1576 65.1803C68.0512 69.1115 65.5725 71.9482 62.7894 73.6118C62.2473 73.9363 62.0725 73.9941 62.0228 73.9997C62.0224 73.9997 62.0221 73.9997 62.0217 73.9997C61.9654 73.994 61.7901 73.9357 61.2492 73.6118C61.249 73.6117 61.2488 73.6115 61.2485 73.6114C58.5054 71.9715 55.9577 69.056 53.881 65.18C51.9225 61.5264 50.9039 57.7444 50.9355 54.2431C50.9419 53.5243 51.0259 53.405 51.0296 53.4003C51.116 53.286 51.569 53.0421 51.9688 52.827L62.0213 47.4011L72.0326 52.8047L72.0736 52.8269C72.4716 53.0418 72.923 53.2853 73.009 53.3994C73.0126 53.4042 73.0967 53.5237 73.1031 54.2431C73.1348 57.7445 72.1162 61.5264 70.1576 65.1803V65.1803Z" fill="url(#paint8_linear_290_26733)"/>
<path d="M32.9537 66.6873H32.9461C32.2021 66.6873 31.6028 67.2903 31.6028 68.0343C31.6028 68.7783 32.2096 69.3813 32.9536 69.3813C33.6975 69.3813 34.3006 68.7783 34.3006 68.0343C34.3006 67.2903 33.6977 66.6873 32.9537 66.6873Z" fill="url(#paint9_linear_290_26733)"/>
<path d="M65.217 56.2472L60.526 61.0645L58.7822 59.4291C58.2395 58.9203 57.387 58.9477 56.8781 59.4903C56.3692 60.033 56.3966 60.8854 56.9393 61.3943L59.6474 63.9338C59.9071 64.1773 60.2381 64.2983 60.5686 64.2983C60.9197 64.2983 61.2701 64.1618 61.5339 63.8911L67.147 58.1268C67.6661 57.5939 67.6547 56.741 67.1218 56.222C66.5886 55.7031 65.7357 55.7144 65.217 56.2472Z" fill="url(#paint10_linear_290_26733)"/>
<defs>
<linearGradient id="paint0_linear_290_26733" x1="29.8515" y1="25.7429" x2="29.9043" y2="28.4916" gradientUnits="userSpaceOnUse">
<stop stop-color="#268AFF"/>
<stop offset="1" stop-color="#78CAD2"/>
</linearGradient>
<linearGradient id="paint1_linear_290_26733" x1="45.4437" y1="32.4688" x2="45.5811" y2="35.2116" gradientUnits="userSpaceOnUse">
<stop stop-color="#268AFF"/>
<stop offset="1" stop-color="#78CAD2"/>
</linearGradient>
<linearGradient id="paint2_linear_290_26733" x1="26.2869" y1="32.4688" x2="26.4184" y2="35.2122" gradientUnits="userSpaceOnUse">
<stop stop-color="#268AFF"/>
<stop offset="1" stop-color="#78CAD2"/>
</linearGradient>
<linearGradient id="paint3_linear_290_26733" x1="29.8515" y1="39.1943" x2="29.9043" y2="41.943" gradientUnits="userSpaceOnUse">
<stop stop-color="#268AFF"/>
<stop offset="1" stop-color="#78CAD2"/>
</linearGradient>
<linearGradient id="paint4_linear_290_26733" x1="24.9234" y1="45.9199" x2="25.2267" y2="48.6358" gradientUnits="userSpaceOnUse">
<stop stop-color="#268AFF"/>
<stop offset="1" stop-color="#78CAD2"/>
</linearGradient>
<linearGradient id="paint5_linear_290_26733" x1="35.5612" y1="45.6086" x2="35.6814" y2="48.3531" gradientUnits="userSpaceOnUse">
<stop stop-color="#268AFF"/>
<stop offset="1" stop-color="#78CAD2"/>
</linearGradient>
<linearGradient id="paint6_linear_290_26733" x1="27.543" y1="52.6455" x2="27.6293" y2="55.3925" gradientUnits="userSpaceOnUse">
<stop stop-color="#268AFF"/>
<stop offset="1" stop-color="#78CAD2"/>
</linearGradient>
<linearGradient id="paint7_linear_290_26733" x1="27.5473" y1="19.0137" x2="27.6335" y2="21.7607" gradientUnits="userSpaceOnUse">
<stop stop-color="#268AFF"/>
<stop offset="1" stop-color="#78CAD2"/>
</linearGradient>
<linearGradient id="paint8_linear_290_26733" x1="21.5144" y1="8.3064" x2="36.6199" y2="74.6677" gradientUnits="userSpaceOnUse">
<stop stop-color="#268AFF"/>
<stop offset="1" stop-color="#78CAD2"/>
</linearGradient>
<linearGradient id="paint9_linear_290_26733" x1="32.1165" y1="66.6873" x2="32.7004" y2="69.3069" gradientUnits="userSpaceOnUse">
<stop stop-color="#268AFF"/>
<stop offset="1" stop-color="#78CAD2"/>
</linearGradient>
<linearGradient id="paint10_linear_290_26733" x1="58.6113" y1="55.8401" x2="60.0485" y2="64.2267" gradientUnits="userSpaceOnUse">
<stop stop-color="#268AFF"/>
<stop offset="1" stop-color="#78CAD2"/>
</linearGradient>
</defs>
</svg>
