<svg width="65" height="64" viewBox="0 0 65 64" fill="none" xmlns="http://www.w3.org/2000/svg">
<path d="M64.5076 41.2509C64.5076 38.2326 61.9469 35.7073 58.5541 35.1265V28.3756C58.5541 27.7606 58.1951 27.1849 57.5933 26.8345C56.9914 26.4841 56.2231 26.4038 55.5377 26.62L51.2766 27.962C48.4785 25.5188 45.0772 23.6787 41.35 22.549C45.0126 20.2697 47.3913 16.6141 47.3913 12.5003C47.3913 5.6075 40.7147 0 32.5076 0C24.3006 0 17.6239 5.6075 17.6239 12.5003C17.6239 16.6141 20.0026 20.2697 23.6652 22.549C19.9379 23.6788 16.5368 25.5189 13.7387 27.962L9.4776 26.62C8.79206 26.4038 8.02376 26.4841 7.42201 26.8345C6.82011 27.1849 6.46112 27.7606 6.46112 28.3756V35.1265C3.06837 35.7073 0.507629 38.2325 0.507629 41.2509C0.507629 44.2694 3.06837 46.7945 6.46112 47.3753V54.6262C6.46112 55.4079 7.03846 56.1075 7.90975 56.3819L31.7237 63.8821C32.2259 64.0393 32.7892 64.0393 33.2914 63.8821L57.1054 56.3819C57.9767 56.1075 58.554 55.4079 58.554 54.6262V47.3753C61.9469 46.7945 64.5076 44.2692 64.5076 41.2509ZM22.089 12.5003C22.089 7.67542 26.7628 3.75008 32.5076 3.75008C38.2524 3.75008 42.9262 7.67542 42.9262 12.5003C42.9262 17.3251 38.2524 21.2505 32.5076 21.2505C26.7628 21.2505 22.089 17.3251 22.089 12.5003ZM32.5076 25.0006C37.7382 25.0006 42.7341 26.5882 46.6321 29.4248L32.5076 33.8733L18.3831 29.4248C22.2813 26.5882 27.2772 25.0006 32.5076 25.0006ZM4.97275 41.2509C4.97275 39.8724 6.30811 38.7509 7.94949 38.7509H9.43786V43.751H7.94949C6.30811 43.751 4.97275 42.6295 4.97275 41.2509ZM10.9262 47.4382C12.6225 47.1478 13.903 45.8852 13.903 44.376V38.1259C13.903 36.6167 12.6225 35.354 10.9262 35.0637V31.0813L30.2751 37.1752V59.4208L10.9262 53.3269V47.4382ZM34.7402 59.4207V37.1752L54.089 31.0813V35.0637C52.3927 35.354 51.1123 36.6167 51.1123 38.1259V44.376C51.1123 45.8852 52.3927 47.1478 54.089 47.4382V53.3268L34.7402 59.4207ZM57.0658 43.751H55.5774V38.7509H57.0658C58.7071 38.7509 60.0425 39.8724 60.0425 41.2509C60.0425 42.6295 58.7073 43.751 57.0658 43.751Z" fill="url(#paint0_linear_290_26674)"/>
<defs>
<linearGradient id="paint0_linear_290_26674" x1="12.6949" y1="1.28086e-07" x2="26.5818" y2="62.2226" gradientUnits="userSpaceOnUse">
<stop stop-color="#268AFF"/>
<stop offset="1" stop-color="#78CAD2"/>
</linearGradient>
</defs>
</svg>
