<svg width="84" height="85" viewBox="0 0 84 85" fill="none" xmlns="http://www.w3.org/2000/svg">
<path d="M11.4486 27.7648H23.7151C25.672 27.7648 27.2642 26.1728 27.2642 24.2157V11.9494C27.2641 9.99227 25.672 8.40024 23.7151 8.40024H16.9258C16.3203 8.40024 15.8297 8.89101 15.8297 9.49633C15.8297 10.1017 16.3203 10.5924 16.9258 10.5924H23.7151C24.4632 10.5924 25.072 11.2012 25.072 11.9494V24.2158C25.072 24.964 24.4632 25.5728 23.7151 25.5728H11.4486C10.7005 25.5728 10.0917 24.964 10.0917 24.2158V11.9494C10.0917 11.2012 10.7005 10.5924 11.4486 10.5924H12.2774C12.8828 10.5924 13.3734 10.1017 13.3734 9.49633C13.3734 8.891 12.8827 8.40024 12.2774 8.40024H11.4486C9.49152 8.40024 7.8995 9.99227 7.8995 11.9494V24.2158C7.8995 26.1728 9.49152 27.7648 11.4486 27.7648Z" fill="url(#paint0_linear_290_26702)" stroke="url(#paint1_linear_290_26702)" stroke-width="0.2"/>
<path d="M15.2167 22.766L15.2167 22.766C15.0011 23.3318 14.3677 23.6154 13.8022 23.4002L13.8377 23.3067L13.8021 23.4001C13.2366 23.1847 12.9524 22.5515 13.168 21.9857L16.3918 13.5214C16.3918 13.5212 16.3919 13.521 16.392 13.5208C16.3953 13.5117 16.3988 13.503 16.4019 13.4955L15.2167 22.766ZM15.2167 22.766L15.7507 21.3637M15.2167 22.766L15.7507 21.3637M17.5953 12.6935L17.5954 12.6935L17.5954 12.6935H17.5954H17.5954H17.5954H17.5954H17.5954H17.5954H17.5954H17.5954H17.5954H17.5954H17.5954H17.5954H17.5954H17.5954H17.5954H17.5954H17.5954H17.5955H17.5955H17.5955H17.5955H17.5955H17.5955H17.5955H17.5955H17.5955H17.5955H17.5955H17.5955H17.5955H17.5955H17.5955H17.5955H17.5955H17.5955H17.5955H17.5955H17.5955H17.5955H17.5956H17.5956H17.5956H17.5956H17.5956H17.5956H17.5956H17.5956H17.5956H17.5956H17.5956H17.5956H17.5956H17.5956H17.5956H17.5956H17.5956H17.5956H17.5956H17.5956H17.5956H17.5957H17.5957H17.5957H17.5957H17.5957H17.5957H17.5957H17.5957H17.5957H17.5957H17.5957H17.5957H17.5957H17.5957H17.5957H17.5957H17.5957H17.5957H17.5957H17.5957H17.5957H17.5957H17.5958H17.5958H17.5958H17.5958H17.5958H17.5958H17.5958H17.5958H17.5958H17.5958H17.5958H17.5958H17.5958H17.5958H17.5958H17.5958H17.5958H17.5958H17.5958H17.5958H17.5958H17.5959H17.5959H17.5959H17.5959H17.5959H17.5959H17.5959H17.5959H17.5959H17.5959H17.5959H17.5959H17.5959H17.5959H17.5959H17.5959H17.5959H17.5959H17.5959H17.5959H17.5959H17.596H17.596H17.596H17.596H17.596H17.596H17.596H17.596H17.596H17.596H17.596H17.596H17.596H17.596H17.596H17.596H17.596H17.596H17.596H17.596H17.596H17.596H17.5961H17.5961H17.5961H17.5961H17.5961H17.5961H17.5961H17.5961H17.5961H17.5961H17.5961H17.5961H17.5961H17.5961H17.5961H17.5961H17.5961H17.5961H17.5961H17.5961H17.5961H17.5962H17.5962H17.5962H17.5962H17.5962H17.5962H17.5962H17.5962H17.5962H17.5962H17.5962H17.5962H17.5962H17.5962H17.5962H17.5962H17.5962H17.5962H17.5962H17.5962H17.5962H17.5962H17.5963H17.5963H17.5963H17.5963H17.5963H17.5963H17.5963H17.5963H17.5963H17.5963H17.5963H17.5963H17.5963H17.5963H17.5963H17.5963H17.5963H17.5963H17.5963H17.5963H17.5963H17.5964H17.5964H17.5964H17.5964H17.5964H17.5964H17.5964H17.5964H17.5964H17.5964H17.5964H17.5964H17.5964H17.5964H17.5964H17.5964H17.5964H17.5964H17.5964H17.5964H17.5964H17.5965H17.5965H17.5965H17.5965H17.5965H17.5965H17.5965H17.5965H17.5965H17.5965H17.5965H17.5965H17.5965H17.5965H17.5965H17.5965H17.5965H17.5965H17.5965H17.5965H17.5965H17.5965H17.5966H17.5966C18.1217 12.6935 18.5904 13.0076 18.7902 13.4933L17.5953 12.6935ZM17.5953 12.6935C17.0697 12.6939 16.6011 13.0089 16.402 13.4954L17.5953 12.6935ZM15.7507 21.3637H19.4179L19.9459 22.7628C19.9459 22.7628 19.9459 22.7628 19.9459 22.7628C20.1116 23.2018 20.5288 23.4722 20.9716 23.4722C21.1003 23.4722 21.2312 23.4493 21.3584 23.4013C21.9247 23.1876 22.2106 22.5551 21.9968 21.9888C21.9968 21.9888 21.9968 21.9888 21.9968 21.9888L18.8022 13.5239C18.8021 13.5238 18.8021 13.5237 18.802 13.5235L15.7507 21.3637ZM16.5857 19.1715L17.5927 16.5273L18.5905 19.1715H16.5857Z" fill="url(#paint2_linear_290_26702)" stroke="url(#paint3_linear_290_26702)" stroke-width="0.2"/>
<path d="M30.4612 14.8856H37.7059C38.3114 14.8856 38.802 14.3949 38.802 13.7895C38.802 13.1842 38.3114 12.6935 37.7059 12.6935H30.4612C29.8557 12.6935 29.3651 13.1842 29.3651 13.7895C29.3651 14.3949 29.8559 14.8856 30.4612 14.8856Z" fill="url(#paint4_linear_290_26702)" stroke="url(#paint5_linear_290_26702)" stroke-width="0.2"/>
<path d="M30.4612 19.1786H35.0227C35.6282 19.1786 36.1188 18.6878 36.1188 18.0825C36.1188 17.4772 35.6282 16.9864 35.0227 16.9864H30.4612C29.8557 16.9864 29.3651 17.4772 29.3651 18.0825C29.3651 18.6878 29.8559 19.1786 30.4612 19.1786Z" fill="url(#paint6_linear_290_26702)" stroke="url(#paint7_linear_290_26702)" stroke-width="0.2"/>
<path d="M30.4612 23.4718H35.0227C35.6282 23.4718 36.1188 22.9811 36.1188 22.3757C36.1188 21.7704 35.6282 21.2796 35.0227 21.2796H30.4612C29.8557 21.2796 29.3651 21.7704 29.3651 22.3757C29.3651 22.9811 29.8559 23.4718 30.4612 23.4718Z" fill="url(#paint8_linear_290_26702)" stroke="url(#paint9_linear_290_26702)" stroke-width="0.2"/>
<path d="M30.4612 36.3512H37.7059C38.3114 36.3512 38.802 35.8604 38.802 35.2551C38.802 34.6498 38.3114 34.159 37.7059 34.159H30.4612C29.8557 34.159 29.3651 34.6498 29.3651 35.2551C29.3651 35.8605 29.8559 36.3512 30.4612 36.3512Z" fill="url(#paint10_linear_290_26702)" stroke="url(#paint11_linear_290_26702)" stroke-width="0.2"/>
<path d="M30.4612 40.6444H35.0227C35.6282 40.6444 36.1188 40.1537 36.1188 39.5483C36.1188 38.943 35.6282 38.4522 35.0227 38.4522H30.4612C29.8557 38.4522 29.3651 38.943 29.3651 39.5483C29.3651 40.1537 29.8559 40.6444 30.4612 40.6444Z" fill="url(#paint12_linear_290_26702)" stroke="url(#paint13_linear_290_26702)" stroke-width="0.2"/>
<path d="M30.4612 44.9376H35.0227C35.6282 44.9376 36.1188 44.4469 36.1188 43.8415C36.1188 43.2362 35.6282 42.7455 35.0227 42.7455H30.4612C29.8557 42.7455 29.3651 43.2362 29.3651 43.8415C29.3651 44.4469 29.8559 44.9376 30.4612 44.9376Z" fill="url(#paint14_linear_290_26702)" stroke="url(#paint15_linear_290_26702)" stroke-width="0.2"/>
<path d="M48.7455 27.765H61.0116C62.9688 27.765 64.561 26.1728 64.561 24.2156V11.9496C64.5609 9.99241 62.9688 8.40024 61.0116 8.40024H48.7455C46.7883 8.40024 45.1961 9.9924 45.1961 11.9496V24.2157C45.1961 26.1728 46.7882 27.765 48.7455 27.765ZM47.3883 11.9496C47.3883 11.2013 47.9972 10.5924 48.7455 10.5924H61.0116C61.7599 10.5924 62.3688 11.2013 62.3688 11.9496V24.2157C62.3688 24.964 61.7599 25.5729 61.0116 25.5729H48.7455C47.9972 25.5729 47.3883 24.964 47.3883 24.2157V11.9496Z" fill="url(#paint16_linear_290_26702)" stroke="url(#paint17_linear_290_26702)" stroke-width="0.2"/>
<path d="M58.758 22.3419L58.758 22.3418C58.9206 22.1969 59.0753 22.0375 59.2174 21.8678C59.6063 21.4039 59.5454 20.7125 59.0814 20.3237C58.6175 19.935 57.9261 19.9958 57.5373 20.4597C57.4632 20.5481 57.3834 20.6305 57.3001 20.7047L57.3001 20.7048C56.8736 21.0846 56.3285 21.2796 55.6728 21.2796C53.9101 21.2796 52.4758 19.8453 52.4758 18.0826C52.4758 16.3199 53.9101 14.8855 55.6728 14.8855C56.3138 14.8855 56.9314 15.0741 57.4596 15.4308L57.4596 15.4308C57.9612 15.7696 58.6425 15.6378 58.9814 15.1361L58.8985 15.0801L58.9814 15.1361C59.3202 14.6345 59.1884 13.9532 58.6866 13.6143L58.6369 13.6879L58.6866 13.6143C57.7947 13.0118 56.7524 12.6932 55.6728 12.6932C52.701 12.6932 50.2836 15.1108 50.2836 18.0824C50.2836 21.0541 52.701 23.4718 55.6728 23.4718C56.8589 23.4718 57.9268 23.082 58.758 22.3419Z" fill="url(#paint18_linear_290_26702)" stroke="url(#paint19_linear_290_26702)" stroke-width="0.2"/>
<path d="M61.0111 29.8666H54.8791C54.2737 29.8666 53.7831 30.3573 53.7831 30.9626C53.7831 31.568 54.2737 32.0587 54.8791 32.0587H61.0111C61.7599 32.0587 62.3692 32.6676 62.3692 33.4157V45.6822C62.3692 46.4302 61.7598 47.0391 61.0111 47.0391H48.7459C47.9978 47.0391 47.389 46.4303 47.389 45.6822V33.4157C47.389 32.6675 47.9978 32.0587 48.7459 32.0587H50.2309C50.8363 32.0587 51.327 31.568 51.327 30.9626C51.327 30.3573 50.8363 29.8666 50.2309 29.8666H48.7459C46.7889 29.8666 45.1968 31.4586 45.1968 33.4157V45.6822C45.1968 47.6392 46.7888 49.2313 48.7459 49.2313H61.0111C62.9688 49.2313 64.5614 47.6393 64.5614 45.6822V33.4157C64.5614 31.4587 62.9688 29.8666 61.0111 29.8666Z" fill="url(#paint20_linear_290_26702)" stroke="url(#paint21_linear_290_26702)" stroke-width="0.2"/>
<path d="M50.8328 43.7019H50.8328V35.264V35.2638V35.2571L50.8328 43.7019ZM50.8328 43.7019L50.8328 43.7048C50.842 44.0236 50.9154 44.3723 51.1749 44.62L50.8328 43.7019ZM51.2238 34.5515C51.4108 34.3642 51.6645 34.259 51.9289 34.259H54.3607C57.0303 34.259 58.8241 36.3845 58.8241 39.5483C58.8241 42.5576 56.9842 44.7741 54.4491 44.8185C53.7569 44.8304 52.0236 44.8372 51.95 44.8375L51.2238 34.5515ZM51.2238 34.5515C51.0371 34.7387 50.9323 34.9926 50.9328 35.257V35.2638V35.264V43.7019L51.2238 34.5515ZM54.4127 42.7266C54.097 42.7321 53.5427 42.7366 53.0387 42.7398C53.0356 41.7262 53.0312 40.2707 53.0312 39.5388C53.0312 38.9291 53.0287 37.4188 53.027 36.3648L53.027 36.3512H54.3608C55.2343 36.3512 55.8214 36.7565 56.1949 37.355C56.5716 37.9587 56.732 38.7625 56.732 39.5483C56.732 40.3401 56.5479 41.1321 56.1654 41.7264C55.7851 42.3171 55.2096 42.7126 54.4127 42.7266ZM54.4127 42.7266L54.4145 42.8266M54.4127 42.7266C54.4127 42.7266 54.4127 42.7266 54.4127 42.7266L54.4145 42.8266M54.4145 42.8266C54.0981 42.8321 53.5431 42.8366 53.0391 42.8398L54.3608 36.2512C56.183 36.2512 56.832 37.9544 56.832 39.5483C56.832 41.159 56.0844 42.7974 54.4145 42.8266ZM52.9387 42.7404C52.9356 41.7269 52.9312 40.271 52.9312 39.5388C52.9312 38.9291 52.9287 37.4184 52.927 36.3643L52.927 36.3512L52.9387 42.7404Z" fill="url(#paint22_linear_290_26702)" stroke="url(#paint23_linear_290_26702)" stroke-width="0.2"/>
<path d="M67.7579 14.8856H75.0026C75.6081 14.8856 76.0987 14.3949 76.0987 13.7895C76.0987 13.1842 75.6081 12.6935 75.0026 12.6935H67.7579C67.1524 12.6935 66.6618 13.1842 66.6618 13.7895C66.6618 14.3949 67.1526 14.8856 67.7579 14.8856Z" fill="url(#paint24_linear_290_26702)" stroke="url(#paint25_linear_290_26702)" stroke-width="0.2"/>
<path d="M67.7579 19.1786H72.3194C72.9249 19.1786 73.4155 18.6878 73.4155 18.0825C73.4155 17.4772 72.9249 16.9864 72.3194 16.9864H67.7579C67.1524 16.9864 66.6618 17.4772 66.6618 18.0825C66.6618 18.6878 67.1526 19.1786 67.7579 19.1786Z" fill="url(#paint26_linear_290_26702)" stroke="url(#paint27_linear_290_26702)" stroke-width="0.2"/>
<path d="M67.7579 23.4718H72.3194C72.9249 23.4718 73.4155 22.9811 73.4155 22.3757C73.4155 21.7704 72.9249 21.2796 72.3194 21.2796H67.7579C67.1524 21.2796 66.6618 21.7704 66.6618 22.3757C66.6618 22.9811 67.1526 23.4718 67.7579 23.4718Z" fill="url(#paint28_linear_290_26702)" stroke="url(#paint29_linear_290_26702)" stroke-width="0.2"/>
<path d="M75.0026 34.159H67.7579C67.1524 34.159 66.6618 34.6498 66.6618 35.2551C66.6618 35.8604 67.1524 36.3512 67.7579 36.3512H75.0026C75.6081 36.3512 76.0987 35.8604 76.0987 35.2551C76.0987 34.6498 75.6081 34.159 75.0026 34.159Z" fill="url(#paint30_linear_290_26702)" stroke="url(#paint31_linear_290_26702)" stroke-width="0.2"/>
<path d="M72.3194 38.4522H67.7579C67.1524 38.4522 66.6618 38.943 66.6618 39.5483C66.6618 40.1537 67.1524 40.6444 67.7579 40.6444H72.3194C72.9249 40.6444 73.4155 40.1537 73.4155 39.5483C73.4155 38.943 72.9249 38.4522 72.3194 38.4522Z" fill="url(#paint32_linear_290_26702)" stroke="url(#paint33_linear_290_26702)" stroke-width="0.2"/>
<path d="M72.3194 42.7455H67.7579C67.1524 42.7455 66.6618 43.2362 66.6618 43.8415C66.6618 44.4469 67.1524 44.9376 67.7579 44.9376H72.3194C72.9249 44.9376 73.4155 44.4469 73.4155 43.8415C73.4155 43.2361 72.9249 42.7455 72.3194 42.7455Z" fill="url(#paint34_linear_290_26702)" stroke="url(#paint35_linear_290_26702)" stroke-width="0.2"/>
<path d="M17.7619 55.8508L15.7169 49.2308H11.4484C9.49134 49.2308 7.89931 47.6387 7.89931 45.6817V33.4152C7.89931 31.4581 9.49147 29.8661 11.4484 29.8661H23.7149C25.672 29.8661 27.264 31.4581 27.264 33.4152V45.6817C27.264 45.9308 27.2382 46.1765 27.1878 46.4158C27.8477 46.7621 28.4079 47.3033 28.7801 47.9907C29.2275 47.5684 29.7753 47.2608 30.3882 47.0952C32.1499 46.6189 33.954 47.478 34.7582 49.0809C35.2022 48.6676 35.7433 48.3662 36.3473 48.203C38.2897 47.6778 40.3579 48.843 40.9611 50.7971L42.5456 55.9247C42.7244 56.5031 42.4004 57.1168 41.8222 57.2955C41.2431 57.4748 40.6301 57.1502 40.4514 56.572L40.5469 56.5425L40.4514 56.572L38.8668 51.4441L38.8668 51.4441C38.6064 50.6008 37.7304 50.0997 36.9197 50.3193L36.9196 50.3193C36.4987 50.4331 36.152 50.705 35.9421 51.0856C35.7338 51.4636 35.6882 51.8974 35.8123 52.3097C35.8123 52.3098 35.8124 52.31 35.8124 52.3101L36.6468 55.0111C36.6469 55.0113 36.6469 55.0115 36.647 55.0117C36.7551 55.3451 36.7059 55.6434 36.5592 55.8788C36.4139 56.1118 36.1771 56.2771 35.918 56.3579C35.659 56.4387 35.3702 56.4374 35.1181 56.3275C34.8634 56.2164 34.6535 55.9974 34.5525 55.6591C34.5525 55.6589 34.5524 55.6587 34.5524 55.6586L32.9089 50.3376L17.7619 55.8508ZM17.7619 55.8508C17.2254 55.7783 16.6747 55.8229 16.1424 55.9871L16.1423 55.9871C14.5486 56.4798 13.4774 57.931 13.4774 59.5976C13.4774 59.9715 13.5343 60.3465 13.647 60.7138L13.6471 60.714L17.0793 71.8247L17.0794 71.8248C17.4963 73.1693 18.3189 74.318 19.459 75.1473L19.4591 75.1474L21.1737 76.3906L21.2324 76.3096L21.1737 76.3906C21.368 76.5314 21.5932 76.5992 21.8162 76.5992C22.1552 76.5992 22.49 76.4422 22.7044 76.1465L22.6235 76.0878L22.7044 76.1465C23.0597 75.6565 22.9505 74.9711 22.4604 74.6156L22.4017 74.6966L22.4604 74.6156L20.7472 73.3735L17.7619 55.8508ZM19.1734 71.1765C19.4491 72.0653 19.9931 72.825 20.7471 73.3735L19.1734 71.1765ZM19.1734 71.1765L15.7422 60.069L15.7418 60.0677C15.4758 59.2442 15.9582 58.3267 16.7881 58.0822L16.7881 58.0822L16.7913 58.0812C17.5978 57.8136 18.5413 58.3105 18.7739 59.1275L18.7739 59.1275L18.7745 59.1297L20.6602 65.2331L20.075 66.3416C19.7922 66.8769 19.9971 67.54 20.5324 67.8227C20.6955 67.9088 20.8706 67.9496 21.0433 67.9496C21.4364 67.9496 21.8169 67.7373 22.0136 67.3652L22.0136 67.3652L22.8108 65.8551C22.9466 65.598 22.9745 65.2976 22.8887 65.0198L22.7932 65.0493L22.8887 65.0198L16.1182 43.1026C15.9849 42.5773 16.0677 42.1376 16.2711 41.8033C16.4757 41.467 16.8061 41.231 17.1776 41.1231C17.917 40.9082 18.8104 41.2022 19.1687 42.2261L24.2979 58.8276L24.2978 58.8277L24.299 58.8311C24.78 60.2065 26.7728 59.5721 26.3934 58.1837L26.3934 58.1837L26.3924 58.1805L23.9372 50.2332L23.9372 50.2332L23.9365 50.2311L23.9345 50.2255L23.9342 50.2249C23.809 49.8118 23.8546 49.3768 24.0635 48.9979L23.9759 48.9496L24.0635 48.9979C24.2732 48.6173 24.62 48.3453 25.0401 48.2318C25.8501 48.0136 26.7279 48.5149 26.9884 49.3596L26.9884 49.3597L29.4252 57.2436L29.4252 57.2436L29.4264 57.2471C29.9073 58.6224 31.9001 57.9881 31.5207 56.5996L31.5207 56.5996L31.5198 56.5965L31.4242 56.626L31.5197 56.5964L31.5197 56.5962L31.5195 56.5955L31.5186 56.5926L31.515 56.581L31.5011 56.536L31.4484 56.3653L31.2601 55.7557L30.6887 53.9056C30.5152 53.3438 30.3419 52.7829 30.1989 52.3198C29.9988 51.6719 29.8578 51.2154 29.8579 51.2158L29.858 51.2157L29.857 51.2125C29.7284 50.7967 29.7731 50.3586 29.983 49.9778C30.1926 49.5975 30.5393 49.3256 30.9605 49.2118C31.7711 48.9931 32.6478 49.4943 32.9089 50.3375L19.1734 71.1765ZM23.9336 50.2232C23.9335 50.223 23.9335 50.2231 23.9337 50.2234L23.9336 50.2232ZM24.4691 46.1152C23.8844 46.2732 23.3588 46.5606 22.9232 46.9533L21.2942 41.6791C21.2968 41.6263 21.2981 41.573 21.2981 41.5195C21.2981 40.4567 20.8086 39.507 20.0443 38.882C20.3498 38.4048 20.5273 37.838 20.5273 37.2306C20.5273 35.5367 19.1494 34.1588 17.4555 34.1588H14.9614C14.356 34.1588 13.8653 34.6496 13.8653 35.2549V43.841C13.8653 44.1336 13.9824 44.4141 14.1904 44.62L14.1904 44.62C14.2335 44.6626 14.2796 44.7012 14.3285 44.7357L15.04 47.0387H11.4486C10.7004 47.0387 10.0916 46.4299 10.0916 45.6818V33.4153C10.0916 32.6672 10.7004 32.0584 11.4486 32.0584H23.715C24.4632 32.0584 25.072 32.6672 25.072 33.4153V45.6818C25.072 45.7932 25.0581 45.9027 25.0318 46.0087C24.8447 46.0296 24.6567 46.0646 24.4691 46.1152L24.4691 46.1152ZM17.4555 38.1105C17.2767 38.1105 16.9445 38.1114 16.5796 38.1127C16.5795 38.1127 16.5795 38.1127 16.5794 38.1127L16.0575 38.1127V36.3511H17.4555C17.9404 36.3511 18.3351 36.7458 18.3351 37.2307C18.3351 37.7158 17.9404 38.1105 17.4555 38.1105Z" fill="url(#paint36_linear_290_26702)" stroke="url(#paint37_linear_290_26702)" stroke-width="0.2"/>
<path d="M43.9176 60.3663L43.9176 60.3663L45.1434 64.3346C45.2989 64.835 45.3928 65.3587 45.4218 65.8895M43.9176 60.3663L45.6776 70.6049L45.6813 70.6167M43.9176 60.3663C43.7389 59.788 43.1256 59.4642 42.5468 59.6426L42.5468 59.6426C41.9685 59.8214 41.6443 60.435 41.8231 61.0135C41.8231 61.0135 41.8231 61.0135 41.8231 61.0135L43.0495 64.9835L43.0495 64.9837C43.1521 65.3132 43.2137 65.6582 43.2329 66.0093L43.2329 66.0093L43.4999 70.8714L43.9176 60.3663ZM45.4218 65.8895L45.3228 65.8949L45.4218 65.8894L45.4218 65.8895ZM45.4218 65.8895L45.6813 70.6167M45.6813 70.6167L47.0905 75.1803M45.6813 70.6167L47.0905 75.1803M47.0905 75.1803C47.2692 75.7587 46.9451 76.3724 46.3667 76.551L47.0905 75.1803Z" fill="url(#paint38_linear_290_26702)" stroke="url(#paint39_linear_290_26702)" stroke-width="0.2"/>
<defs>
<linearGradient id="paint0_linear_290_26702" x1="11.649" y1="8.50024" x2="15.8073" y2="27.1326" gradientUnits="userSpaceOnUse">
<stop stop-color="#268AFF"/>
<stop offset="1" stop-color="#78CAD2"/>
</linearGradient>
<linearGradient id="paint1_linear_290_26702" x1="11.649" y1="8.50024" x2="15.8073" y2="27.1326" gradientUnits="userSpaceOnUse">
<stop stop-color="#268AFF"/>
<stop offset="1" stop-color="#78CAD2"/>
</linearGradient>
<linearGradient id="paint2_linear_290_26702" x1="14.8663" y1="12.7935" x2="17.5761" y2="22.8613" gradientUnits="userSpaceOnUse">
<stop stop-color="#268AFF"/>
<stop offset="1" stop-color="#78CAD2"/>
</linearGradient>
<linearGradient id="paint3_linear_290_26702" x1="14.8663" y1="12.7935" x2="17.5761" y2="22.8613" gradientUnits="userSpaceOnUse">
<stop stop-color="#268AFF"/>
<stop offset="1" stop-color="#78CAD2"/>
</linearGradient>
<linearGradient id="paint4_linear_290_26702" x1="31.2241" y1="12.7935" x2="31.3217" y2="14.8221" gradientUnits="userSpaceOnUse">
<stop stop-color="#268AFF"/>
<stop offset="1" stop-color="#78CAD2"/>
</linearGradient>
<linearGradient id="paint5_linear_290_26702" x1="31.2241" y1="12.7935" x2="31.3217" y2="14.8221" gradientUnits="userSpaceOnUse">
<stop stop-color="#268AFF"/>
<stop offset="1" stop-color="#78CAD2"/>
</linearGradient>
<linearGradient id="paint6_linear_290_26702" x1="30.7131" y1="17.0864" x2="30.8504" y2="19.1104" gradientUnits="userSpaceOnUse">
<stop stop-color="#268AFF"/>
<stop offset="1" stop-color="#78CAD2"/>
</linearGradient>
<linearGradient id="paint7_linear_290_26702" x1="30.7131" y1="17.0864" x2="30.8504" y2="19.1104" gradientUnits="userSpaceOnUse">
<stop stop-color="#268AFF"/>
<stop offset="1" stop-color="#78CAD2"/>
</linearGradient>
<linearGradient id="paint8_linear_290_26702" x1="30.7131" y1="21.3796" x2="30.8504" y2="23.4036" gradientUnits="userSpaceOnUse">
<stop stop-color="#268AFF"/>
<stop offset="1" stop-color="#78CAD2"/>
</linearGradient>
<linearGradient id="paint9_linear_290_26702" x1="30.7131" y1="21.3796" x2="30.8504" y2="23.4036" gradientUnits="userSpaceOnUse">
<stop stop-color="#268AFF"/>
<stop offset="1" stop-color="#78CAD2"/>
</linearGradient>
<linearGradient id="paint10_linear_290_26702" x1="31.2241" y1="34.259" x2="31.3217" y2="36.2876" gradientUnits="userSpaceOnUse">
<stop stop-color="#268AFF"/>
<stop offset="1" stop-color="#78CAD2"/>
</linearGradient>
<linearGradient id="paint11_linear_290_26702" x1="31.2241" y1="34.259" x2="31.3217" y2="36.2876" gradientUnits="userSpaceOnUse">
<stop stop-color="#268AFF"/>
<stop offset="1" stop-color="#78CAD2"/>
</linearGradient>
<linearGradient id="paint12_linear_290_26702" x1="30.7131" y1="38.5522" x2="30.8504" y2="40.5762" gradientUnits="userSpaceOnUse">
<stop stop-color="#268AFF"/>
<stop offset="1" stop-color="#78CAD2"/>
</linearGradient>
<linearGradient id="paint13_linear_290_26702" x1="30.7131" y1="38.5522" x2="30.8504" y2="40.5762" gradientUnits="userSpaceOnUse">
<stop stop-color="#268AFF"/>
<stop offset="1" stop-color="#78CAD2"/>
</linearGradient>
<linearGradient id="paint14_linear_290_26702" x1="30.7131" y1="42.8455" x2="30.8504" y2="44.8695" gradientUnits="userSpaceOnUse">
<stop stop-color="#268AFF"/>
<stop offset="1" stop-color="#78CAD2"/>
</linearGradient>
<linearGradient id="paint15_linear_290_26702" x1="30.7131" y1="42.8455" x2="30.8504" y2="44.8695" gradientUnits="userSpaceOnUse">
<stop stop-color="#268AFF"/>
<stop offset="1" stop-color="#78CAD2"/>
</linearGradient>
<linearGradient id="paint16_linear_290_26702" x1="48.9456" y1="8.50024" x2="53.104" y2="27.1327" gradientUnits="userSpaceOnUse">
<stop stop-color="#268AFF"/>
<stop offset="1" stop-color="#78CAD2"/>
</linearGradient>
<linearGradient id="paint17_linear_290_26702" x1="48.9456" y1="8.50024" x2="53.104" y2="27.1327" gradientUnits="userSpaceOnUse">
<stop stop-color="#268AFF"/>
<stop offset="1" stop-color="#78CAD2"/>
</linearGradient>
<linearGradient id="paint18_linear_290_26702" x1="52.0955" y1="12.7932" x2="54.7481" y2="22.8936" gradientUnits="userSpaceOnUse">
<stop stop-color="#268AFF"/>
<stop offset="1" stop-color="#78CAD2"/>
</linearGradient>
<linearGradient id="paint19_linear_290_26702" x1="52.0955" y1="12.7932" x2="54.7481" y2="22.8936" gradientUnits="userSpaceOnUse">
<stop stop-color="#268AFF"/>
<stop offset="1" stop-color="#78CAD2"/>
</linearGradient>
<linearGradient id="paint20_linear_290_26702" x1="48.9462" y1="29.9666" x2="53.1047" y2="48.599" gradientUnits="userSpaceOnUse">
<stop stop-color="#268AFF"/>
<stop offset="1" stop-color="#78CAD2"/>
</linearGradient>
<linearGradient id="paint21_linear_290_26702" x1="48.9462" y1="29.9666" x2="53.1047" y2="48.599" gradientUnits="userSpaceOnUse">
<stop stop-color="#268AFF"/>
<stop offset="1" stop-color="#78CAD2"/>
</linearGradient>
<linearGradient id="paint22_linear_290_26702" x1="52.4355" y1="34.259" x2="55.4003" y2="44.1689" gradientUnits="userSpaceOnUse">
<stop stop-color="#268AFF"/>
<stop offset="1" stop-color="#78CAD2"/>
</linearGradient>
<linearGradient id="paint23_linear_290_26702" x1="52.4355" y1="34.259" x2="55.4003" y2="44.1689" gradientUnits="userSpaceOnUse">
<stop stop-color="#268AFF"/>
<stop offset="1" stop-color="#78CAD2"/>
</linearGradient>
<linearGradient id="paint24_linear_290_26702" x1="68.5208" y1="12.7935" x2="68.6184" y2="14.8221" gradientUnits="userSpaceOnUse">
<stop stop-color="#268AFF"/>
<stop offset="1" stop-color="#78CAD2"/>
</linearGradient>
<linearGradient id="paint25_linear_290_26702" x1="68.5208" y1="12.7935" x2="68.6184" y2="14.8221" gradientUnits="userSpaceOnUse">
<stop stop-color="#268AFF"/>
<stop offset="1" stop-color="#78CAD2"/>
</linearGradient>
<linearGradient id="paint26_linear_290_26702" x1="68.0098" y1="17.0864" x2="68.1471" y2="19.1104" gradientUnits="userSpaceOnUse">
<stop stop-color="#268AFF"/>
<stop offset="1" stop-color="#78CAD2"/>
</linearGradient>
<linearGradient id="paint27_linear_290_26702" x1="68.0098" y1="17.0864" x2="68.1471" y2="19.1104" gradientUnits="userSpaceOnUse">
<stop stop-color="#268AFF"/>
<stop offset="1" stop-color="#78CAD2"/>
</linearGradient>
<linearGradient id="paint28_linear_290_26702" x1="68.0098" y1="21.3796" x2="68.1471" y2="23.4036" gradientUnits="userSpaceOnUse">
<stop stop-color="#268AFF"/>
<stop offset="1" stop-color="#78CAD2"/>
</linearGradient>
<linearGradient id="paint29_linear_290_26702" x1="68.0098" y1="21.3796" x2="68.1471" y2="23.4036" gradientUnits="userSpaceOnUse">
<stop stop-color="#268AFF"/>
<stop offset="1" stop-color="#78CAD2"/>
</linearGradient>
<linearGradient id="paint30_linear_290_26702" x1="68.5208" y1="34.259" x2="68.6184" y2="36.2876" gradientUnits="userSpaceOnUse">
<stop stop-color="#268AFF"/>
<stop offset="1" stop-color="#78CAD2"/>
</linearGradient>
<linearGradient id="paint31_linear_290_26702" x1="68.5208" y1="34.259" x2="68.6184" y2="36.2876" gradientUnits="userSpaceOnUse">
<stop stop-color="#268AFF"/>
<stop offset="1" stop-color="#78CAD2"/>
</linearGradient>
<linearGradient id="paint32_linear_290_26702" x1="68.0098" y1="38.5522" x2="68.1471" y2="40.5762" gradientUnits="userSpaceOnUse">
<stop stop-color="#268AFF"/>
<stop offset="1" stop-color="#78CAD2"/>
</linearGradient>
<linearGradient id="paint33_linear_290_26702" x1="68.0098" y1="38.5522" x2="68.1471" y2="40.5762" gradientUnits="userSpaceOnUse">
<stop stop-color="#268AFF"/>
<stop offset="1" stop-color="#78CAD2"/>
</linearGradient>
<linearGradient id="paint34_linear_290_26702" x1="68.0098" y1="42.8455" x2="68.1471" y2="44.8695" gradientUnits="userSpaceOnUse">
<stop stop-color="#268AFF"/>
<stop offset="1" stop-color="#78CAD2"/>
</linearGradient>
<linearGradient id="paint35_linear_290_26702" x1="68.0098" y1="42.8455" x2="68.1471" y2="44.8695" gradientUnits="userSpaceOnUse">
<stop stop-color="#268AFF"/>
<stop offset="1" stop-color="#78CAD2"/>
</linearGradient>
<linearGradient id="paint36_linear_290_26702" x1="14.5682" y1="29.9661" x2="27.6786" y2="73.5133" gradientUnits="userSpaceOnUse">
<stop stop-color="#268AFF"/>
<stop offset="1" stop-color="#78CAD2"/>
</linearGradient>
<linearGradient id="paint37_linear_290_26702" x1="14.5682" y1="29.9661" x2="27.6786" y2="73.5133" gradientUnits="userSpaceOnUse">
<stop stop-color="#268AFF"/>
<stop offset="1" stop-color="#78CAD2"/>
</linearGradient>
<linearGradient id="paint38_linear_290_26702" x1="42.8576" y1="59.6936" x2="51.0132" y2="70.9253" gradientUnits="userSpaceOnUse">
<stop stop-color="#268AFF"/>
<stop offset="1" stop-color="#78CAD2"/>
</linearGradient>
<linearGradient id="paint39_linear_290_26702" x1="42.8576" y1="59.6936" x2="51.0132" y2="70.9253" gradientUnits="userSpaceOnUse">
<stop stop-color="#268AFF"/>
<stop offset="1" stop-color="#78CAD2"/>
</linearGradient>
</defs>
</svg>
