<svg width="72" height="57" viewBox="0 0 72 57" fill="none" xmlns="http://www.w3.org/2000/svg">
<path d="M71.173 14.8257C70.9962 14.096 70.5424 13.478 69.8952 13.0852L49.8262 0.915874C49.1791 0.523351 48.4164 0.403578 47.6776 0.578368C46.9394 0.753295 46.3141 1.20207 45.9193 1.83839L33.9891 20.9861L28.0229 3.64734C27.5182 2.18084 25.9013 1.39318 24.4168 1.89231L2.1283 9.38838C1.40931 9.62999 0.828814 10.1342 0.493395 10.8076C0.158114 11.4809 0.108294 12.2431 0.352538 12.9533L14.6809 54.5947C15.0828 55.7627 16.1904 56.5 17.3741 56.5C17.6769 56.5 17.9847 56.4519 18.2871 56.3501L35.6493 50.5109L43.6617 55.3695C44.1242 55.6501 44.6367 55.7836 45.1431 55.7836C46.0996 55.7836 47.0346 55.3071 47.5707 54.4436L68.059 21.4194C68.1039 21.3624 68.1472 21.3033 68.1866 21.2406C68.2306 21.1706 68.2686 21.0986 68.3033 21.0259L70.832 16.9499C71.2287 16.31 71.3499 15.5556 71.173 14.8257ZM4.72381 12.8668L24.5048 6.21404L24.9966 7.64323L5.22396 14.3201L4.72381 12.8668ZM35.2279 46.3011C35.2271 46.3014 35.2263 46.3017 35.2254 46.302L18.1991 52.0285L6.56591 18.2198L26.3386 11.5429L37.9798 45.3756L35.2279 46.3011ZM44.7113 51.1734L40.7645 48.7803C41.3955 48.5181 41.9054 48.0479 42.2107 47.4348C42.5458 46.7616 42.5958 45.9994 42.3515 45.289L35.7303 26.0462L45.7988 9.88641L63.5477 20.8119L44.7113 51.1734ZM65.7262 17.3L47.9841 6.37895L48.7745 5.11042L66.5876 15.9119L65.7262 17.3Z" fill="url(#paint0_linear_290_26687)"/>
<defs>
<linearGradient id="paint0_linear_290_26687" x1="13.7301" y1="0.5" x2="23.4821" y2="55.9412" gradientUnits="userSpaceOnUse">
<stop stop-color="#268AFF"/>
<stop offset="1" stop-color="#78CAD2"/>
</linearGradient>
</defs>
</svg>
