<svg width="1440" height="248" viewBox="0 0 1440 248" fill="none" xmlns="http://www.w3.org/2000/svg">
<path fill-rule="evenodd" clip-rule="evenodd" d="M0 239.593L34.8 219.627C68.4 199.661 136.8 159.729 205.2 113.141C274.8 66.5537 352.79 53.243 421.19 73.2091C489.59 93.1752 548.4 146.418 616.8 173.04C685.2 199.661 754.8 159.729 823.2 166.384C891.6 173.04 960 226.283 1028.4 212.972C1096.8 199.661 1165.2 119.797 1234.8 73.2091C1303.2 26.6215 1371.6 13.3107 1405.2 6.65537L1440 0V261H1405.2C1371.6 261 1303.2 261 1234.8 261C1165.2 261 1096.8 261 1028.4 261C960 261 891.6 261 823.2 261C754.8 261 675.199 261 606.799 261C538.399 261 466.644 261 398.244 261C329.844 261 274.8 261 205.2 261C136.8 261 77.9626 261 44.3626 261H0V239.593Z" fill="white"/>
</svg>
